SplineFontDB: 3.2
FontName: Plexolas-Regular
FullName: Plexolas Regular
FamilyName: Plexolas
Weight: Regular
Copyright: 
Version: 1.0
ItalicAngle: 0
UnderlinePosition: -338
UnderlineWidth: 144
Ascent: 1521
Descent: 527
InvalidEm: 0
sfntRevision: 0x00010000
LayerCount: 2
Layer: 0 1 "Back" 1
Layer: 1 1 "Fore" 0
XUID: [1021 524 -1093598656 6904740]
StyleMap: 0x0040
FSType: 8
OS2Version: 3
OS2_WeightWidthSlopeOnly: 0
OS2_UseTypoMetrics: 0
CreationTime: 1069378218
ModificationTime: 1644162660
PfmFamily: 17
TTFWeight: 400
TTFWidth: 5
LineGap: 350
VLineGap: 0
Panose: 2 11 6 9 2 2 4 3 2 4
OS2TypoAscent: 1521
OS2TypoAOffset: 0
OS2TypoDescent: -527
OS2TypoDOffset: 0
OS2TypoLinegap: 350
OS2WinAscent: 1884
OS2WinAOffset: 0
OS2WinDescent: 514
OS2WinDOffset: 0
HheadAscent: 1521
HheadAOffset: 0
HheadDescent: -527
HheadDOffset: 0
OS2SubXSize: 1434
OS2SubYSize: 1331
OS2SubXOff: 0
OS2SubYOff: 287
OS2SupXSize: 1434
OS2SupYSize: 1331
OS2SupXOff: 0
OS2SupYOff: 977
OS2StrikeYSize: 102
OS2StrikeYPos: 512
OS2CapHeight: 1307
OS2XHeight: 1004
OS2FamilyClass: 2057
OS2Vendor: 'MS  '
OS2CodePages: 6000019f.dfd70000
OS2UnicodeRanges: e10002ff.4000fcff.00000009.00000000
Lookup: 1 0 0 "'rtla' Right to Left Alternates in Greek lookup 0" { "'rtla' Right to Left Alternates in Greek lookup 0 subtable"  } ['rtla' ('DFLT' <'dflt' > 'grek' <'dflt' > ) ]
Lookup: 254 0 0 "<11,2> Diagonal Fractions lookup 1" { "<11,2> Diagonal Fractions lookup 1 subtable"  } [<11,2> ('DFLT' <'dflt' > ) ]
Lookup: 1 0 0 "<11,2> Diagonal Fractions lookup 1 nested-substitutions 0" { "<11,2> Diagonal Fractions lookup 1 nested-substitutions 0 subtable"  } []
Lookup: 254 0 0 "<11,2> Diagonal Fractions lookup 3" { "<11,2> Diagonal Fractions lookup 3 subtable"  } [<11,2> ('DFLT' <'dflt' > ) ]
Lookup: 1 0 0 "<11,2> Diagonal Fractions lookup 3 nested-substitutions 0" { "<11,2> Diagonal Fractions lookup 3 nested-substitutions 0 subtable"  } []

StartChar: .notdef
Encoding: 65536 -1 0
Width: 1126
Flags: W
LayerCount: 2
Fore
SplineSet
103 15 m 1,0,-1
 1023 15 l 1,1,-1
 1023 1292 l 1,2,-1
 103 1292 l 1,3,-1
 103 15 l 1,0,-1
959 77 m 1,4,-1
 165 77 l 1,5,-1
 165 1229 l 1,6,-1
 959 1229 l 1,7,-1
 959 77 l 1,4,-1
769 754.5 m 128,-1,9
 784 794 784 794 784 839 c 128,-1,10
 784 884 784 884 761 932.5 c 128,-1,11
 738 981 738 981 690 1019.5 c 128,-1,12
 642 1058 642 1058 567.5 1082.5 c 128,-1,13
 493 1107 493 1107 391 1107 c 2,14,-1
 365 1107 l 1,15,-1
 365 1037 l 1,16,-1
 385 1037 l 2,17,18
 451 1037 451 1037 506.5 1023 c 128,-1,19
 562 1009 562 1009 602.5 982 c 128,-1,20
 643 955 643 955 666 915.5 c 128,-1,21
 689 876 689 876 689 827 c 0,22,23
 689 746 689 746 638 710 c 0,24,25
 599 681 599 681 530 681 c 2,26,-1
 431 681 l 1,27,-1
 437 459 l 1,28,-1
 507 459 l 1,29,-1
 511 617 l 1,30,-1
 526 617 l 2,31,32
 595 617 595 617 643.5 635.5 c 128,-1,33
 692 654 692 654 723 684.5 c 128,-1,8
 754 715 754 715 769 754.5 c 128,-1,9
400 266 m 0,34,35
 400 251 400 251 406 238 c 0,36,37
 418 213 418 213 444 201 c 0,38,39
 456 195 456 195 471 195 c 128,-1,40
 486 195 486 195 499 201 c 0,41,42
 511 206 511 206 522 217 c 0,43,44
 542 236 542 236 542 266.5 c 128,-1,45
 542 297 542 297 522 318 c 128,-1,46
 502 339 502 339 472 339 c 128,-1,47
 442 339 442 339 422 318 c 0,48,49
 400 296 400 296 400 266 c 0,34,35
EndSplineSet
EndChar

StartChar: exclam
Encoding: 33 33 4
Width: 1126
Flags: W
LayerCount: 2
Fore
SplineSet
500 398 m 1,0,-1
 624 398 l 1,1,-1
 651 1398 l 1,2,-1
 470 1398 l 1,3,-1
 500 398 l 1,0,-1
560.5 231 m 128,-1,5
 536 231 536 231 515 222 c 128,-1,6
 494 213 494 213 477.5 196.5 c 128,-1,7
 461 180 461 180 452 158.5 c 128,-1,8
 443 137 443 137 443 113 c 128,-1,9
 443 89 443 89 453 68 c 0,10,11
 471 26 471 26 515 7 c 0,12,13
 536 -3 536 -3 560.5 -3 c 128,-1,14
 585 -3 585 -3 606 6 c 128,-1,15
 627 15 627 15 643 31 c 128,-1,16
 659 47 659 47 668 68 c 128,-1,17
 677 89 677 89 677 113 c 128,-1,18
 677 137 677 137 668 158.5 c 128,-1,19
 659 180 659 180 643 196.5 c 128,-1,20
 627 213 627 213 606 222 c 128,-1,4
 585 231 585 231 560.5 231 c 128,-1,5
EndSplineSet
EndChar

StartChar: quotedbl
Encoding: 34 34 5
Width: 1126
Flags: W
LayerCount: 2
Fore
SplineSet
301 959 m 1,0,-1
 437 959 l 1,1,-1
 463 1398 l 1,2,-1
 274 1398 l 1,3,-1
 301 959 l 1,0,-1
690 959 m 1,4,-1
 826 959 l 1,5,-1
 852 1398 l 1,6,-1
 663 1398 l 1,7,-1
 690 959 l 1,4,-1
EndSplineSet
EndChar

StartChar: numbersign
Encoding: 35 35 6
Width: 1126
Flags: W
LayerCount: 2
Fore
SplineSet
793 382 m 1,0,-1
 1015 382 l 1,1,-1
 1015 482 l 1,2,-1
 803 482 l 1,3,-1
 841 862 l 1,4,-1
 1068 862 l 1,5,-1
 1068 962 l 1,6,-1
 851 962 l 1,7,-1
 886 1292 l 1,8,-1
 769 1292 l 1,9,-1
 735 962 l 1,10,-1
 448 962 l 1,11,-1
 481 1292 l 1,12,-1
 366 1292 l 1,13,-1
 332 962 l 1,14,-1
 109 962 l 1,15,-1
 109 862 l 1,16,-1
 322 862 l 1,17,-1
 283 482 l 1,18,-1
 58 482 l 1,19,-1
 58 382 l 1,20,-1
 273 382 l 1,21,-1
 236 15 l 1,22,-1
 353 15 l 1,23,-1
 390 382 l 1,24,-1
 676 382 l 1,25,-1
 639 15 l 1,26,-1
 756 15 l 1,27,-1
 793 382 l 1,0,-1
438 862 m 1,28,-1
 725 862 l 1,29,-1
 687 482 l 1,30,-1
 400 482 l 1,31,-1
 438 862 l 1,28,-1
EndSplineSet
EndChar

StartChar: dollar
Encoding: 36 36 7
Width: 1126
Flags: W
LayerCount: 2
Fore
SplineSet
160.5 1072.5 m 128,-1,1
 136 1015 136 1015 136 956 c 0,2,3
 136 884 136 884 165.5 832 c 128,-1,4
 195 780 195 780 242.5 741 c 128,-1,5
 290 702 290 702 352 673.5 c 128,-1,6
 414 645 414 645 489 616 c 1,7,-1
 427 141 l 1,8,9
 321 146 321 146 251.5 159 c 128,-1,10
 182 172 182 172 126 190 c 1,11,-1
 126 57 l 1,12,13
 239 29 239 29 410 16 c 1,14,-1
 377 -221 l 1,15,-1
 493 -221 l 1,16,-1
 526 17 l 1,17,-1
 530 17 l 1,18,-1
 539 17 l 1,19,20
 639 22 639 22 723 47 c 128,-1,21
 807 72 807 72 865.5 115 c 128,-1,22
 924 158 924 158 956.5 219.5 c 128,-1,23
 989 281 989 281 989 359 c 128,-1,24
 989 437 989 437 958 491 c 128,-1,25
 927 545 927 545 876.5 585 c 128,-1,26
 826 625 826 625 761 655 c 128,-1,27
 696 685 696 685 619 716 c 1,28,-1
 679 1169 l 1,29,30
 792 1159 792 1159 898 1133 c 1,31,-1
 898 1256 l 1,32,33
 817 1274 817 1274 694 1287 c 1,34,-1
 720 1480 l 1,35,-1
 605 1480 l 1,36,-1
 580 1290 l 1,37,-1
 568 1290 l 1,38,39
 454 1284 454 1284 372.5 1253.5 c 128,-1,40
 291 1223 291 1223 238 1176.5 c 128,-1,0
 185 1130 185 1130 160.5 1072.5 c 128,-1,1
343 852 m 128,-1,42
 292 900 292 900 292 975 c 0,43,44
 292 1056 292 1056 354 1107.5 c 128,-1,45
 416 1159 416 1159 546 1170 c 1,46,-1
 565 1171 l 1,47,-1
 508 759 l 1,48,-1
 490 766 l 2,49,41
 394 804 394 804 343 852 c 128,-1,42
775 479 m 0,50,51
 832 429 832 429 832 352 c 0,52,53
 832 259 832 259 766 205 c 128,-1,54
 700 151 700 151 560 141 c 2,55,-1
 542 140 l 1,56,-1
 598 572 l 1,57,58
 668 545 668 545 708 524 c 128,-1,59
 748 503 748 503 775 479 c 0,50,51
EndSplineSet
Substitution2: "<21,0> Lower Case Numbers lookup 7 subtable" dollar.oldstyle
EndChar

StartChar: percent
Encoding: 37 37 8
Width: 1126
Flags: W
LayerCount: 2
Fore
SplineSet
1079 1398 m 1,0,-1
 948 1398 l 1,1,-1
 47 15 l 1,2,-1
 176 15 l 1,3,-1
 1079 1398 l 1,0,-1
540 1018 m 128,-1,5
 558 1071 558 1071 558 1136.5 c 128,-1,6
 558 1202 558 1202 540 1255 c 0,7,8
 506 1357 506 1357 413 1394 c 0,9,10
 367 1412 367 1412 308.5 1412 c 128,-1,11
 250 1412 250 1412 202.5 1390.5 c 128,-1,12
 155 1369 155 1369 121.5 1330 c 128,-1,13
 88 1291 88 1291 70 1238 c 128,-1,14
 52 1185 52 1185 52 1120 c 128,-1,15
 52 1055 52 1055 69.5 1002.5 c 128,-1,16
 87 950 87 950 120 914 c 0,17,18
 184 844 184 844 301 844 c 0,19,20
 360 844 360 844 407.5 866 c 128,-1,21
 455 888 455 888 488.5 926.5 c 128,-1,4
 522 965 522 965 540 1018 c 128,-1,5
405 1263.5 m 128,-1,23
 441 1217 441 1217 441 1126 c 0,24,25
 441 1046 441 1046 407 995 c 0,26,27
 389 970 389 970 363.5 955.5 c 128,-1,28
 338 941 338 941 305 941 c 0,29,30
 241 941 241 941 205 987.5 c 128,-1,31
 169 1034 169 1034 169 1126 c 0,32,33
 169 1205 169 1205 203 1256 c 0,34,35
 221 1281 221 1281 246.5 1295.5 c 128,-1,36
 272 1310 272 1310 305 1310 c 0,37,22
 369 1310 369 1310 405 1263.5 c 128,-1,23
1056.5 174.5 m 128,-1,39
 1075 227 1075 227 1075 292.5 c 128,-1,40
 1075 358 1075 358 1057 411 c 0,41,42
 1022 515 1022 515 929 551 c 0,43,44
 883 569 883 569 824.5 569 c 128,-1,45
 766 569 766 569 718.5 547.5 c 128,-1,46
 671 526 671 526 637.5 487 c 128,-1,47
 604 448 604 448 586 395 c 128,-1,48
 568 342 568 342 568 277 c 128,-1,49
 568 212 568 212 586 159 c 0,50,51
 620 56 620 56 713 19 c 0,52,53
 759 1 759 1 817.5 1 c 128,-1,54
 876 1 876 1 923.5 22.5 c 128,-1,55
 971 44 971 44 1004.5 83 c 128,-1,38
 1038 122 1038 122 1056.5 174.5 c 128,-1,39
921.5 425.5 m 128,-1,57
 958 379 958 379 958 288 c 0,58,59
 958 207 958 207 923 157 c 0,60,61
 905 132 905 132 879.5 117.5 c 128,-1,62
 854 103 854 103 821 103 c 0,63,64
 757 103 757 103 721 149.5 c 128,-1,65
 685 196 685 196 685 288 c 0,66,67
 685 367 685 367 719 418 c 0,68,69
 737 443 737 443 762.5 457.5 c 128,-1,70
 788 472 788 472 821 472 c 0,71,56
 885 472 885 472 921.5 425.5 c 128,-1,57
EndSplineSet
EndChar

StartChar: ampersand
Encoding: 38 38 9
Width: 1126
Flags: W
LayerCount: 2
Fore
SplineSet
831 1094 m 0,0,1
 831 1150 831 1150 811.5 1199.5 c 128,-1,2
 792 1249 792 1249 753.5 1287 c 128,-1,3
 715 1325 715 1325 656.5 1347 c 128,-1,4
 598 1369 598 1369 518.5 1369 c 128,-1,5
 439 1369 439 1369 376.5 1345 c 128,-1,6
 314 1321 314 1321 271.5 1278.5 c 128,-1,7
 229 1236 229 1236 207 1178 c 128,-1,8
 185 1120 185 1120 185 1053 c 128,-1,9
 185 986 185 986 211.5 917.5 c 128,-1,10
 238 849 238 849 293 781 c 1,11,12
 293 781 293 781 324 737 c 1,13,14
 263 699 263 699 219.5 664.5 c 128,-1,15
 176 630 176 630 143 585 c 128,-1,16
 110 540 110 540 91 482.5 c 128,-1,17
 72 425 72 425 72 349.5 c 128,-1,18
 72 274 72 274 97 210 c 128,-1,19
 122 146 122 146 171 99.5 c 128,-1,20
 220 53 220 53 292.5 27 c 128,-1,21
 365 1 365 1 461.5 1 c 128,-1,22
 558 1 558 1 643 31.5 c 128,-1,23
 728 62 728 62 798 121 c 2,24,-1
 809 130 l 1,25,-1
 902 15 l 1,26,-1
 1095 15 l 1,27,-1
 906 250 l 1,28,-1
 911 259 l 2,29,30
 1006 428 1006 428 1009 667 c 1,31,-1
 863 667 l 1,32,-1
 863 661 l 2,33,34
 863 505 863 505 821 392 c 2,35,-1
 812 367 l 1,36,-1
 526 723 l 1,37,38
 597 764 597 764 650 797.5 c 128,-1,39
 703 831 703 831 743 873 c 128,-1,40
 783 915 783 915 807 968.5 c 128,-1,41
 831 1022 831 1022 831 1094 c 0,0,1
223 369 m 128,-1,43
 223 421 223 421 235 459 c 0,44,45
 259 535 259 535 321 591 c 0,46,47
 350 618 350 618 396 649 c 1,48,-1
 731 230 l 1,49,-1
 721 220 l 2,50,51
 619 120 619 120 483 120 c 0,52,53
 423 120 423 120 374.5 138 c 128,-1,54
 326 156 326 156 292.5 189.5 c 128,-1,55
 259 223 259 223 241 270 c 128,-1,42
 223 317 223 317 223 369 c 128,-1,43
685 1077 m 0,56,57
 685 1029 685 1029 668 991 c 0,58,59
 634 919 634 919 550 865 c 0,60,61
 512 840 512 840 457 810 c 1,62,-1
 422 855 l 2,63,64
 377 912 377 912 356 961 c 128,-1,65
 335 1010 335 1010 335 1067 c 0,66,67
 335 1148 335 1148 381 1198 c 0,68,69
 404 1223 404 1223 437.5 1237.5 c 128,-1,70
 471 1252 471 1252 514 1252 c 0,71,72
 592 1252 592 1252 638.5 1205 c 128,-1,73
 685 1158 685 1158 685 1077 c 0,56,57
EndSplineSet
EndChar

StartChar: quotesingle
Encoding: 39 39 10
Width: 1126
Flags: W
LayerCount: 2
Fore
SplineSet
491 959 m 1,0,-1
 635 959 l 1,1,-1
 662 1398 l 1,2,-1
 465 1398 l 1,3,-1
 491 959 l 1,0,-1
EndSplineSet
EndChar

StartChar: parenleft
Encoding: 40 40 11
Width: 1126
Flags: W
LayerCount: 2
Fore
SplineSet
315 524 m 0,0,1
 315 19 315 19 761 -399 c 1,2,-1
 845 -313 l 1,3,4
 659 -126 659 -126 561 88 c 128,-1,5
 463 302 463 302 463 537 c 0,6,7
 463 1003 463 1003 845 1386 c 1,8,-1
 765 1468 l 1,9,10
 526 1244 526 1244 418 1001 c 0,11,12
 364 881 364 881 339.5 762 c 128,-1,13
 315 643 315 643 315 524 c 0,0,1
EndSplineSet
Substitution2: "<10,2> Inferiors lookup 6 subtable" uni208D
Substitution2: "<10,1> Superiors in Latin lookup 5 subtable" uni207D
Substitution2: "'rtla' Right to Left Alternates in Greek lookup 0 subtable" parenright
EndChar

StartChar: parenright
Encoding: 41 41 12
Width: 1126
Flags: W
LayerCount: 2
Fore
SplineSet
662 526 m 0,0,1
 662 293 662 293 566 83 c 128,-1,2
 470 -127 470 -127 281 -317 c 1,3,-1
 361 -399 l 1,4,5
 489 -279 489 -279 576 -158 c 128,-1,6
 663 -37 663 -37 715 83.5 c 128,-1,7
 767 204 767 204 789 318.5 c 128,-1,8
 811 433 811 433 811 539 c 0,9,10
 811 1050 811 1050 365 1468 c 1,11,-1
 281 1382 l 1,12,13
 662 1002 662 1002 662 526 c 0,0,1
EndSplineSet
Substitution2: "<10,2> Inferiors lookup 6 subtable" uni208E
Substitution2: "<10,1> Superiors in Latin lookup 5 subtable" uni207E
Substitution2: "'rtla' Right to Left Alternates in Greek lookup 0 subtable" parenleft
EndChar

StartChar: asterisk
Encoding: 42 42 13
Width: 1126
Flags: W
LayerCount: 2
Fore
SplineSet
619 580 m 1,0,-1
 595 936 l 1,1,-1
 888 742 l 1,2,-1
 940 834 l 1,3,-1
 621 987 l 1,4,-1
 942 1145 l 1,5,-1
 888 1241 l 1,6,-1
 593 1041 l 1,7,-1
 619 1398 l 1,8,-1
 508 1398 l 1,9,-1
 533 1041 l 1,10,-1
 238 1239 l 1,11,-1
 185 1149 l 1,12,-1
 504 989 l 1,13,-1
 185 832 l 1,14,-1
 233 742 l 1,15,-1
 531 936 l 1,16,-1
 508 580 l 1,17,-1
 619 580 l 1,0,-1
EndSplineSet
EndChar

StartChar: plus
Encoding: 43 43 14
Width: 1126
Flags: W
LayerCount: 2
Fore
SplineSet
492 61 m 1,0,-1
 634 61 l 1,1,-1
 634 484 l 1,2,-1
 1042 484 l 1,3,-1
 1042 606 l 1,4,-1
 634 606 l 1,5,-1
 634 1026 l 1,6,-1
 492 1026 l 1,7,-1
 492 606 l 1,8,-1
 84 606 l 1,9,-1
 84 484 l 1,10,-1
 492 484 l 1,11,-1
 492 61 l 1,0,-1
EndSplineSet
Substitution2: "<10,2> Inferiors lookup 6 subtable" uni208A
Substitution2: "<10,1> Superiors in Latin lookup 5 subtable" uni207A
EndChar

StartChar: comma
Encoding: 44 44 15
Width: 1126
Flags: W
LayerCount: 2
Fore
SplineSet
706 82 m 0,0,1
 706 140 706 140 692.5 183 c 128,-1,2
 679 226 679 226 656.5 253.5 c 128,-1,3
 634 281 634 281 604.5 294 c 128,-1,4
 575 307 575 307 543 307 c 128,-1,5
 511 307 511 307 488.5 296.5 c 128,-1,6
 466 286 466 286 451.5 269 c 128,-1,7
 437 252 437 252 430 231.5 c 128,-1,8
 423 211 423 211 423 193 c 0,9,10
 423 155 423 155 436 132.5 c 128,-1,11
 449 110 449 110 467 88 c 128,-1,12
 485 66 485 66 501 37.5 c 128,-1,13
 517 9 517 9 517 -37 c 128,-1,14
 517 -83 517 -83 492 -118 c 0,15,16
 446 -186 446 -186 340 -211 c 0,17,18
 299 -220 299 -220 254 -220 c 2,19,-1
 253 -220 l 1,20,-1
 253 -327 l 1,21,22
 361 -325 361 -325 445.5 -292 c 128,-1,23
 530 -259 530 -259 588.5 -202 c 128,-1,24
 647 -145 647 -145 676.5 -71.5 c 128,-1,25
 706 2 706 2 706 82 c 0,0,1
EndSplineSet
EndChar

StartChar: hyphen
Encoding: 45 45 16
AltUni2: 002010.ffffffff.0 0000ad.ffffffff.0
Width: 1126
Flags: W
LayerCount: 2
Fore
SplineSet
264 488 m 1,0,-1
 862 488 l 1,1,-1
 862 602 l 1,2,-1
 264 602 l 1,3,-1
 264 488 l 1,0,-1
EndSplineSet
EndChar

StartChar: period
Encoding: 46 46 17
Width: 1126
Flags: W
LayerCount: 2
Fore
SplineSet
554.5 300 m 128,-1,1
 523 300 523 300 496 288.5 c 128,-1,2
 469 277 469 277 448 255.5 c 128,-1,3
 427 234 427 234 415.5 206.5 c 128,-1,4
 404 179 404 179 404 147.5 c 128,-1,5
 404 116 404 116 415.5 89 c 128,-1,6
 427 62 427 62 448 41 c 128,-1,7
 469 20 469 20 496 8.5 c 128,-1,8
 523 -3 523 -3 554.5 -3 c 128,-1,9
 586 -3 586 -3 613.5 8.5 c 128,-1,10
 641 20 641 20 662 41 c 128,-1,11
 683 62 683 62 694.5 89 c 128,-1,12
 706 116 706 116 706 147.5 c 128,-1,13
 706 179 706 179 694.5 206.5 c 128,-1,14
 683 234 683 234 662 255.5 c 128,-1,15
 641 277 641 277 613.5 288.5 c 128,-1,0
 586 300 586 300 554.5 300 c 128,-1,1
EndSplineSet
EndChar

StartChar: slash
Encoding: 47 47 18
Width: 1126
Flags: W
LayerCount: 2
Fore
SplineSet
138 -200 m 1,0,-1
 271 -200 l 1,1,-1
 944 1398 l 1,2,-1
 811 1398 l 1,3,-1
 138 -200 l 1,0,-1
EndSplineSet
Substitution2: "<11,2> Diagonal Fractions lookup 1 nested-substitutions 0 subtable" fraction
EndChar

StartChar: zero
Encoding: 48 48 19
Width: 1126
Flags: W
LayerCount: 2
Fore
SplineSet
993.5 383.5 m 128,-1,1
 1023 505 1023 505 1023 653 c 0,2,3
 1023 825 1023 825 990.5 950 c 128,-1,4
 958 1075 958 1075 899 1154.5 c 128,-1,5
 840 1234 840 1234 757.5 1272 c 128,-1,6
 675 1310 675 1310 573 1310 c 0,7,8
 455 1310 455 1310 367.5 1263 c 128,-1,9
 280 1216 280 1216 221.5 1130.5 c 128,-1,10
 163 1045 163 1045 133 923 c 128,-1,11
 103 801 103 801 103 653 c 0,12,13
 103 481 103 481 135.5 356 c 128,-1,14
 168 231 168 231 226.5 152 c 128,-1,15
 285 73 285 73 368 35 c 128,-1,16
 451 -3 451 -3 553 -3 c 0,17,18
 671 -3 671 -3 758.5 44 c 128,-1,19
 846 91 846 91 905 176.5 c 128,-1,0
 964 262 964 262 993.5 383.5 c 128,-1,1
694 156 m 128,-1,21
 635 121 635 121 563 121 c 0,22,23
 457 121 457 121 385 191 c 0,24,25
 319 255 319 255 283 380 c 1,26,-1
 866 813 l 1,27,28
 872 754 872 754 874.5 720 c 128,-1,29
 877 686 877 686 877 652 c 0,30,31
 877 523 877 523 855.5 424.5 c 128,-1,32
 834 326 834 326 793.5 258.5 c 128,-1,20
 753 191 753 191 694 156 c 128,-1,21
432 1151 m 128,-1,34
 491 1186 491 1186 563 1186 c 0,35,36
 666 1186 666 1186 738 1118 c 0,37,38
 805 1053 805 1053 839 935 c 1,39,-1
 256 505 l 1,40,41
 250 560 250 560 249.5 591.5 c 128,-1,42
 249 623 249 623 249 654 c 0,43,44
 249 783 249 783 270.5 881.5 c 128,-1,45
 292 980 292 980 332.5 1048 c 128,-1,33
 373 1116 373 1116 432 1151 c 128,-1,34
EndSplineSet
Substitution2: "<21,0> Lower Case Numbers lookup 7 subtable" zero.oldstyle
Substitution2: "<10,2> Inferiors lookup 6 subtable" uni2080
EndChar

StartChar: one
Encoding: 49 49 20
Width: 1126
Flags: W
LayerCount: 2
Fore
SplineSet
527 1137 m 1,0,-1
 527 152 l 1,1,-1
 191 152 l 1,2,-1
 191 20 l 1,3,-1
 982 20 l 1,4,-1
 982 152 l 1,5,-1
 690 152 l 1,6,-1
 690 1293 l 1,7,-1
 554 1293 l 1,8,-1
 154 1082 l 1,9,-1
 206 967 l 1,10,-1
 527 1137 l 1,0,-1
EndSplineSet
Substitution2: "<21,0> Lower Case Numbers lookup 7 subtable" one.oldstyle
Substitution2: "<10,2> Inferiors lookup 6 subtable" uni2081
EndChar

StartChar: two
Encoding: 50 50 21
Width: 1126
Flags: W
LayerCount: 2
Fore
SplineSet
366 1142 m 0,0,1
 437 1181 437 1181 524 1181 c 0,2,3
 587 1181 587 1181 633 1160.5 c 128,-1,4
 679 1140 679 1140 708.5 1104.5 c 128,-1,5
 738 1069 738 1069 751.5 1023 c 128,-1,6
 765 977 765 977 765 925.5 c 128,-1,7
 765 874 765 874 754.5 828 c 128,-1,8
 744 782 744 782 714 731 c 128,-1,9
 684 680 684 680 631.5 619.5 c 128,-1,10
 579 559 579 559 496 476 c 2,11,-1
 162 145 l 1,12,-1
 162 10 l 1,13,-1
 993 10 l 1,14,-1
 993 146 l 1,15,-1
 336 146 l 1,16,-1
 600 403 l 2,17,18
 683 483 683 483 744 550.5 c 128,-1,19
 805 618 805 618 844.5 680 c 128,-1,20
 884 742 884 742 903.5 804.5 c 128,-1,21
 923 867 923 867 923 939 c 0,22,23
 923 1025 923 1025 896 1093 c 128,-1,24
 869 1161 869 1161 819 1208 c 128,-1,25
 769 1255 769 1255 700 1280 c 128,-1,26
 631 1305 631 1305 547 1305 c 0,27,28
 422 1305 422 1305 331.5 1261 c 128,-1,29
 241 1217 241 1217 172 1148 c 1,30,-1
 249 1055 l 1,31,32
 303 1108 303 1108 366 1142 c 0,0,1
EndSplineSet
Substitution2: "<21,0> Lower Case Numbers lookup 7 subtable" two.oldstyle
Substitution2: "<10,2> Inferiors lookup 6 subtable" uni2082
EndChar

StartChar: three
Encoding: 51 51 22
Width: 1126
Flags: W
LayerCount: 2
Fore
SplineSet
677 1283 m 0,0,1
 600 1305 600 1305 498 1305 c 0,2,3
 360 1305 360 1305 214 1258 c 1,4,-1
 214 1138 l 1,5,6
 284 1160 284 1160 351 1172 c 128,-1,7
 418 1184 418 1184 485 1184 c 0,8,9
 614 1184 614 1184 683 1133 c 128,-1,10
 752 1082 752 1082 752 970 c 0,11,12
 752 914 752 914 732 869 c 128,-1,13
 712 824 712 824 675 793 c 128,-1,14
 638 762 638 762 587.5 746 c 128,-1,15
 537 730 537 730 475 730 c 2,16,-1
 339 730 l 1,17,-1
 339 617 l 1,18,-1
 473 617 l 2,19,20
 547 617 547 617 609.5 603 c 128,-1,21
 672 589 672 589 718 560.5 c 128,-1,22
 764 532 764 532 790 489.5 c 128,-1,23
 816 447 816 447 816 387.5 c 128,-1,24
 816 328 816 328 795 278 c 0,25,26
 751 176 751 176 607 141 c 0,27,28
 536 123 536 123 436 123 c 0,29,30
 303 123 303 123 179 143 c 1,31,-1
 179 18 l 1,32,33
 294 2 294 2 426 2 c 128,-1,34
 558 2 558 2 662 34 c 128,-1,35
 766 66 766 66 833 120 c 0,36,37
 901 174 901 174 934.5 245.5 c 128,-1,38
 968 317 968 317 968 399 c 0,39,40
 968 458 968 458 945 505.5 c 128,-1,41
 922 553 922 553 884 588.5 c 128,-1,42
 846 624 846 624 798.5 646.5 c 128,-1,43
 751 669 751 669 702 677 c 2,44,-1
 653 684 l 1,45,-1
 699 705 l 2,46,47
 796 748 796 748 850.5 819.5 c 128,-1,48
 905 891 905 891 905 998 c 0,49,50
 905 1069 905 1069 879 1126 c 0,51,52
 827 1240 827 1240 677 1283 c 0,0,1
EndSplineSet
Substitution2: "<21,0> Lower Case Numbers lookup 7 subtable" three.oldstyle
Substitution2: "<10,2> Inferiors lookup 6 subtable" uni2083
EndChar

StartChar: four
Encoding: 52 52 23
Width: 1126
Flags: W
LayerCount: 2
Fore
SplineSet
58 309 m 1,0,-1
 687 309 l 1,1,-1
 687 20 l 1,2,-1
 835 20 l 1,3,-1
 835 309 l 1,4,-1
 1058 309 l 1,5,-1
 1058 427 l 1,6,-1
 835 427 l 1,7,-1
 835 1287 l 1,8,-1
 608 1287 l 1,9,-1
 58 438 l 1,10,-1
 58 309 l 1,0,-1
687 1187 m 1,11,-1
 687 427 l 1,12,-1
 190 427 l 1,13,-1
 687 1187 l 1,11,-1
EndSplineSet
Substitution2: "<21,0> Lower Case Numbers lookup 7 subtable" four.oldstyle
Substitution2: "<10,2> Inferiors lookup 6 subtable" uni2084
EndChar

StartChar: five
Encoding: 53 53 24
Width: 1126
Flags: W
LayerCount: 2
Fore
SplineSet
919.5 242 m 128,-1,1
 960 318 960 318 960 411 c 0,2,3
 960 514 960 514 919.5 581.5 c 128,-1,4
 879 649 879 649 812 690 c 128,-1,5
 745 731 745 731 658.5 747 c 128,-1,6
 572 763 572 763 479 763 c 2,7,-1
 350 763 l 1,8,-1
 350 1160 l 1,9,-1
 890 1160 l 1,10,-1
 890 1282 l 1,11,-1
 216 1282 l 1,12,-1
 216 644 l 1,13,-1
 449 644 l 2,14,15
 617 644 617 644 709 587 c 0,16,17
 803 527 803 527 803 398 c 0,18,19
 803 333 803 333 777.5 280 c 128,-1,20
 752 227 752 227 704.5 189.5 c 128,-1,21
 657 152 657 152 590.5 132.5 c 128,-1,22
 524 113 524 113 447 113 c 0,23,24
 294 113 294 113 193 134 c 1,25,-1
 193 8 l 1,26,27
 229 3 229 3 300.5 -2.5 c 128,-1,28
 372 -8 372 -8 428 -8 c 0,29,30
 541 -8 541 -8 639 23 c 128,-1,31
 737 54 737 54 808 110 c 256,32,0
 879 166 879 166 919.5 242 c 128,-1,1
EndSplineSet
Substitution2: "<21,0> Lower Case Numbers lookup 7 subtable" five.oldstyle
Substitution2: "<10,2> Inferiors lookup 6 subtable" uni2085
EndChar

StartChar: six
Encoding: 54 54 25
Width: 1126
Flags: W
LayerCount: 2
Fore
SplineSet
978 241 m 128,-1,1
 1009 317 1009 317 1009 402 c 128,-1,2
 1009 487 1009 487 985 556 c 0,3,4
 936 697 936 697 795 752 c 0,5,6
 723 780 723 780 628 780 c 128,-1,7
 533 780 533 780 452.5 758 c 128,-1,8
 372 736 372 736 311 700 c 2,9,-1
 285 685 l 1,10,-1
 292 755 l 2,11,12
 309 945 309 945 425 1046 c 0,13,14
 485 1098 485 1098 573.5 1126.5 c 128,-1,15
 662 1155 662 1155 782 1155 c 2,16,-1
 907 1155 l 1,17,-1
 907 1277 l 1,18,-1
 793 1277 l 2,19,20
 662 1277 662 1277 563 1250 c 0,21,22
 371 1198 371 1198 271 1061 c 0,23,24
 178 934 178 934 151 743 c 0,25,26
 138 650 138 650 138 551 c 0,27,28
 138 264 138 264 249 122 c 0,29,30
 354 -13 354 -13 567 -13 c 0,31,32
 667 -13 667 -13 748.5 19.5 c 128,-1,33
 830 52 830 52 888.5 108.5 c 128,-1,0
 947 165 947 165 978 241 c 128,-1,1
431 652 m 0,34,35
 513 679 513 679 586 679 c 128,-1,36
 659 679 659 679 709 660 c 0,37,38
 811 620 811 620 842 518 c 0,39,40
 857 467 857 467 857 402 c 128,-1,41
 857 337 857 337 836.5 283.5 c 128,-1,42
 816 230 816 230 779.5 191.5 c 128,-1,43
 743 153 743 153 692.5 134 c 128,-1,44
 642 115 642 115 582 115 c 0,45,46
 511 115 511 115 456 138 c 0,47,48
 343 186 343 186 306 359 c 0,49,50
 288 447 288 447 288 576 c 2,51,-1
 288 584 l 1,52,53
 355 626 355 626 431 652 c 0,34,35
EndSplineSet
Substitution2: "<21,0> Lower Case Numbers lookup 7 subtable" six.oldstyle
Substitution2: "<10,2> Inferiors lookup 6 subtable" uni2086
EndChar

StartChar: seven
Encoding: 55 55 26
Width: 1126
Flags: W
LayerCount: 2
Fore
SplineSet
986 1287 m 1,0,-1
 132 1287 l 1,1,-1
 132 1155 l 1,2,-1
 847 1155 l 1,3,-1
 278 20 l 1,4,-1
 444 20 l 1,5,-1
 986 1146 l 1,6,-1
 986 1287 l 1,0,-1
EndSplineSet
Substitution2: "<21,0> Lower Case Numbers lookup 7 subtable" seven.oldstyle
Substitution2: "<10,2> Inferiors lookup 6 subtable" uni2087
EndChar

StartChar: eight
Encoding: 56 56 27
Width: 1126
Flags: W
LayerCount: 2
Fore
SplineSet
960.5 187 m 128,-1,1
 993 248 993 248 993 328 c 0,2,3
 993 446 993 446 918 532 c 0,4,5
 883 574 883 574 834 608 c 128,-1,6
 785 642 785 642 729 671 c 2,7,-1
 702 684 l 1,8,-1
 728 697 l 2,9,10
 843 756 843 756 903.5 832.5 c 128,-1,11
 964 909 964 909 964 1018 c 0,12,13
 964 1085 964 1085 939 1139 c 0,14,15
 890 1247 890 1247 742 1289 c 0,16,17
 668 1310 668 1310 566.5 1310 c 128,-1,18
 465 1310 465 1310 388.5 1283.5 c 128,-1,19
 312 1257 312 1257 261.5 1213 c 128,-1,20
 211 1169 211 1169 186.5 1113 c 128,-1,21
 162 1057 162 1057 162 997 c 0,22,23
 162 899 162 899 218.5 823 c 128,-1,24
 275 747 275 747 400 683 c 2,25,-1
 426 670 l 1,26,-1
 400 657 l 2,27,28
 263 587 263 587 198.5 503.5 c 128,-1,29
 134 420 134 420 134 305 c 0,30,31
 134 237 134 237 160.5 181 c 128,-1,32
 187 125 187 125 239.5 84.5 c 128,-1,33
 292 44 292 44 371 20.5 c 128,-1,34
 450 -3 450 -3 550 -3 c 128,-1,35
 650 -3 650 -3 731 19.5 c 128,-1,36
 812 42 812 42 870 84 c 128,-1,0
 928 126 928 126 960.5 187 c 128,-1,1
748.5 1143 m 128,-1,38
 816 1096 816 1096 816 999 c 0,39,40
 816 917 816 917 758 856.5 c 128,-1,41
 700 796 700 796 578 739 c 1,42,43
 506 771 506 771 458 799.5 c 128,-1,44
 410 828 410 828 377 858 c 0,45,46
 311 919 311 919 311 1003 c 0,47,48
 311 1097 311 1097 378.5 1143.5 c 128,-1,49
 446 1190 446 1190 563.5 1190 c 128,-1,37
 681 1190 681 1190 748.5 1143 c 128,-1,38
821 397 m 0,50,51
 834 360 834 360 834 320 c 0,52,53
 834 268 834 268 812 230 c 0,54,55
 769 157 769 157 666 132 c 0,56,57
 618 121 618 121 562 121 c 128,-1,58
 506 121 506 121 457 133.5 c 128,-1,59
 408 146 408 146 371 172 c 128,-1,60
 334 198 334 198 313 235.5 c 128,-1,61
 292 273 292 273 292 319 c 128,-1,62
 292 365 292 365 305 403 c 0,63,64
 330 479 330 479 426 546 c 0,65,66
 473 579 473 579 549 616 c 1,67,68
 636 576 636 576 690 541 c 0,69,70
 795 472 795 472 821 397 c 0,50,51
EndSplineSet
Substitution2: "<21,0> Lower Case Numbers lookup 7 subtable" eight.oldstyle
Substitution2: "<10,2> Inferiors lookup 6 subtable" uni2088
EndChar

StartChar: nine
Encoding: 57 57 28
Width: 1126
Flags: W
LayerCount: 2
Fore
SplineSet
941 410 m 0,0,1
 986 542 986 542 986 726 c 0,2,3
 986 883 986 883 953 993 c 128,-1,4
 920 1103 920 1103 862 1170 c 0,5,6
 804 1239 804 1239 724.5 1269.5 c 128,-1,7
 645 1300 645 1300 549.5 1300 c 128,-1,8
 454 1300 454 1300 374 1267.5 c 128,-1,9
 294 1235 294 1235 237 1177 c 0,10,11
 178 1122 178 1122 146.5 1047.5 c 128,-1,12
 115 973 115 973 115 890 c 128,-1,13
 115 807 115 807 139 739.5 c 128,-1,14
 163 672 163 672 210.5 623 c 128,-1,15
 258 574 258 574 330 547 c 128,-1,16
 402 520 402 520 497 520 c 128,-1,17
 592 520 592 520 672 541.5 c 128,-1,18
 752 563 752 563 813 598 c 2,19,-1
 839 613 l 1,20,-1
 832 543 l 2,21,22
 824 452 824 452 789.5 379 c 128,-1,23
 755 306 755 306 690 255 c 0,24,25
 559 152 559 152 301 152 c 2,26,-1
 195 152 l 1,27,-1
 195 30 l 1,28,-1
 289 30 l 2,29,30
 460 30 460 30 592 71 c 0,31,32
 721 112 721 112 809 197 c 0,33,34
 896 280 896 280 941 410 c 0,0,1
433.5 1173 m 128,-1,36
 484 1192 484 1192 543 1192 c 0,37,38
 611 1192 611 1192 666 1169 c 0,39,40
 778 1121 778 1121 817 947 c 0,41,42
 836 859 836 859 836 730 c 2,43,-1
 836 723 l 1,44,45
 771 679 771 679 693 654 c 0,46,47
 610 628 610 628 538 628 c 128,-1,48
 466 628 466 628 415 647 c 0,49,50
 268 702 268 702 268 901 c 0,51,52
 268 970 268 970 289 1024 c 128,-1,53
 310 1078 310 1078 346.5 1116 c 128,-1,35
 383 1154 383 1154 433.5 1173 c 128,-1,36
EndSplineSet
Substitution2: "<21,0> Lower Case Numbers lookup 7 subtable" nine.oldstyle
Substitution2: "<10,2> Inferiors lookup 6 subtable" uni2089
EndChar

StartChar: colon
Encoding: 58 58 29
Width: 1126
Flags: W
LayerCount: 2
Fore
SplineSet
562.5 1007 m 128,-1,1
 534 1007 534 1007 509.5 996 c 128,-1,2
 485 985 485 985 465.5 965.5 c 128,-1,3
 446 946 446 946 435.5 921 c 128,-1,4
 425 896 425 896 425 867.5 c 128,-1,5
 425 839 425 839 435.5 814.5 c 128,-1,6
 446 790 446 790 465.5 770.5 c 128,-1,7
 485 751 485 751 509.5 740.5 c 128,-1,8
 534 730 534 730 562.5 730 c 128,-1,9
 591 730 591 730 616 740.5 c 128,-1,10
 641 751 641 751 660.5 770.5 c 128,-1,11
 680 790 680 790 691 814.5 c 128,-1,12
 702 839 702 839 702 867.5 c 128,-1,13
 702 896 702 896 691 921 c 128,-1,14
 680 946 680 946 660.5 965.5 c 128,-1,15
 641 985 641 985 616 996 c 128,-1,0
 591 1007 591 1007 562.5 1007 c 128,-1,1
562.5 274 m 128,-1,17
 534 274 534 274 509.5 263 c 128,-1,18
 485 252 485 252 465.5 232.5 c 128,-1,19
 446 213 446 213 435.5 188 c 128,-1,20
 425 163 425 163 425 134.5 c 128,-1,21
 425 106 425 106 435.5 81.5 c 128,-1,22
 446 57 446 57 465.5 37.5 c 128,-1,23
 485 18 485 18 509.5 7.5 c 128,-1,24
 534 -3 534 -3 562.5 -3 c 128,-1,25
 591 -3 591 -3 616 7.5 c 128,-1,26
 641 18 641 18 660.5 37.5 c 128,-1,27
 680 57 680 57 691 81.5 c 128,-1,28
 702 106 702 106 702 134.5 c 128,-1,29
 702 163 702 163 691 188 c 128,-1,30
 680 213 680 213 660.5 232.5 c 128,-1,31
 641 252 641 252 616 263 c 128,-1,16
 591 274 591 274 562.5 274 c 128,-1,17
EndSplineSet
EndChar

StartChar: semicolon
Encoding: 59 59 30
Width: 1126
Flags: W
LayerCount: 2
Fore
SplineSet
718 82 m 0,0,1
 718 140 718 140 704.5 183 c 128,-1,2
 691 226 691 226 668.5 253.5 c 128,-1,3
 646 281 646 281 616.5 294 c 128,-1,4
 587 307 587 307 555 307 c 128,-1,5
 523 307 523 307 500.5 296.5 c 128,-1,6
 478 286 478 286 463.5 269 c 128,-1,7
 449 252 449 252 442 231.5 c 128,-1,8
 435 211 435 211 435 193 c 0,9,10
 435 155 435 155 448 132.5 c 128,-1,11
 461 110 461 110 479 88 c 128,-1,12
 497 66 497 66 513 37.5 c 128,-1,13
 529 9 529 9 529 -37 c 128,-1,14
 529 -83 529 -83 504 -118 c 0,15,16
 458 -186 458 -186 352 -211 c 0,17,18
 311 -220 311 -220 266 -220 c 2,19,-1
 265 -220 l 1,20,-1
 265 -327 l 1,21,22
 373 -325 373 -325 457.5 -292 c 128,-1,23
 542 -259 542 -259 600.5 -202 c 128,-1,24
 659 -145 659 -145 688.5 -71.5 c 128,-1,25
 718 2 718 2 718 82 c 0,0,1
562.5 1007 m 128,-1,27
 534 1007 534 1007 509.5 996 c 128,-1,28
 485 985 485 985 465.5 965.5 c 128,-1,29
 446 946 446 946 435.5 921 c 128,-1,30
 425 896 425 896 425 867.5 c 128,-1,31
 425 839 425 839 435.5 814.5 c 128,-1,32
 446 790 446 790 465.5 770.5 c 128,-1,33
 485 751 485 751 509.5 740.5 c 128,-1,34
 534 730 534 730 562.5 730 c 128,-1,35
 591 730 591 730 616 740.5 c 128,-1,36
 641 751 641 751 660.5 770.5 c 128,-1,37
 680 790 680 790 691 814.5 c 128,-1,38
 702 839 702 839 702 867.5 c 128,-1,39
 702 896 702 896 691 921 c 128,-1,40
 680 946 680 946 660.5 965.5 c 128,-1,41
 641 985 641 985 616 996 c 128,-1,26
 591 1007 591 1007 562.5 1007 c 128,-1,27
EndSplineSet
EndChar

StartChar: less
Encoding: 60 60 31
Width: 1126
Flags: W
LayerCount: 2
Fore
SplineSet
280 539 m 1,0,-1
 280 554 l 1,1,-1
 280 557 l 1,2,-1
 972 949 l 1,3,-1
 972 1100 l 1,4,-1
 144 620 l 1,5,-1
 144 470 l 1,6,-1
 972 -10 l 1,7,-1
 972 144 l 1,8,-1
 280 536 l 1,9,-1
 280 539 l 1,0,-1
EndSplineSet
Substitution2: "'rtla' Right to Left Alternates in Greek lookup 0 subtable" greater
EndChar

StartChar: equal
Encoding: 61 61 32
Width: 1126
Flags: W
LayerCount: 2
Fore
SplineSet
133 778 m 1,0,-1
 133 661 l 1,1,-1
 993 661 l 1,2,-1
 993 778 l 1,3,-1
 133 778 l 1,0,-1
133 430 m 1,4,-1
 133 313 l 1,5,-1
 993 313 l 1,6,-1
 993 430 l 1,7,-1
 133 430 l 1,4,-1
EndSplineSet
Substitution2: "<10,2> Inferiors lookup 6 subtable" uni208C
Substitution2: "<10,1> Superiors in Latin lookup 5 subtable" uni207C
EndChar

StartChar: greater
Encoding: 62 62 33
Width: 1126
Flags: W
LayerCount: 2
Fore
SplineSet
845 539 m 1,0,-1
 845 554 l 1,1,-1
 845 557 l 1,2,-1
 153 949 l 1,3,-1
 153 1100 l 1,4,-1
 981 620 l 1,5,-1
 981 470 l 1,6,-1
 153 -10 l 1,7,-1
 153 144 l 1,8,-1
 845 536 l 1,9,-1
 845 539 l 1,0,-1
EndSplineSet
Substitution2: "'rtla' Right to Left Alternates in Greek lookup 0 subtable" less
EndChar

StartChar: question
Encoding: 63 63 34
Width: 1126
Flags: W
LayerCount: 2
Fore
SplineSet
486 440 m 1,0,-1
 630 440 l 1,1,-1
 630 636 l 1,2,3
 702 649 702 649 768.5 679 c 128,-1,4
 835 709 835 709 887 757 c 128,-1,5
 939 805 939 805 971.5 873 c 128,-1,6
 1004 941 1004 941 1004 1028 c 128,-1,7
 1004 1115 1004 1115 975.5 1182 c 128,-1,8
 947 1249 947 1249 895 1296 c 128,-1,9
 843 1343 843 1343 769 1369.5 c 128,-1,10
 695 1396 695 1396 602 1396 c 128,-1,11
 509 1396 509 1396 437 1370.5 c 128,-1,12
 365 1345 365 1345 312 1303 c 128,-1,13
 259 1261 259 1261 224.5 1205 c 128,-1,14
 190 1149 190 1149 171 1088 c 1,15,-1
 308 1037 l 1,16,17
 336 1134 336 1134 406.5 1198.5 c 128,-1,18
 477 1263 477 1263 594 1263 c 128,-1,19
 711 1263 711 1263 778 1207 c 128,-1,20
 845 1151 845 1151 845 1040 c 2,21,-1
 845 1012 l 2,22,23
 845 877 845 877 747 810 c 0,24,25
 652 745 652 745 486 737 c 1,26,-1
 486 440 l 1,0,-1
704 115 m 2,27,-1
 704 151 l 2,28,29
 704 199 704 199 673.5 231 c 128,-1,30
 643 263 643 263 565 263 c 128,-1,31
 487 263 487 263 456.5 231 c 128,-1,32
 426 199 426 199 426 151 c 2,33,-1
 426 115 l 2,34,35
 426 67 426 67 456.5 35 c 128,-1,36
 487 3 487 3 565 3 c 128,-1,37
 643 3 643 3 673.5 35 c 128,-1,38
 704 67 704 67 704 115 c 2,27,-1
EndSplineSet
EndChar

StartChar: at
Encoding: 64 64 35
Width: 1126
Flags: W
LayerCount: 2
Fore
SplineSet
612 909 m 0,0,1
 552 909 552 909 505 884 c 0,2,3
 414 834 414 834 364 717 c 0,4,5
 296 558 296 558 296 356 c 0,6,7
 296 209 296 209 339.5 143.5 c 128,-1,8
 383 78 383 78 469 78 c 0,9,10
 525 78 525 78 566 110.5 c 128,-1,11
 607 143 607 143 644 217 c 2,12,-1
 672 276 l 1,13,-1
 672 211 l 2,14,15
 672 149 672 149 705.5 113.5 c 128,-1,16
 739 78 739 78 811 78 c 0,17,18
 874 78 874 78 926 112 c 0,19,20
 1033 183 1033 183 1075 417 c 0,21,22
 1096 538 1096 538 1097 709 c 0,23,24
 1097 1053 1097 1053 988 1228 c 0,25,26
 932 1317 932 1317 848 1363.5 c 128,-1,27
 764 1410 764 1410 649 1410 c 0,28,29
 557 1410 557 1410 476 1373 c 128,-1,30
 395 1336 395 1336 325 1268 c 128,-1,31
 255 1200 255 1200 199 1103 c 0,32,33
 87 906 87 906 45 631 c 0,34,35
 25 501 25 501 25 358 c 0,36,37
 25 -27 25 -27 147 -217 c 0,38,39
 265 -401 265 -401 512 -401 c 0,40,41
 600 -401 600 -401 678.5 -383 c 128,-1,42
 757 -365 757 -365 833 -331 c 1,43,-1
 833 -235 l 1,44,45
 760 -269 760 -269 686.5 -288.5 c 128,-1,46
 613 -308 613 -308 522 -308 c 0,47,48
 337 -308 337 -308 236 -143 c 0,49,50
 137 20 137 20 137 346 c 0,51,52
 137 479 137 479 155 602 c 0,53,54
 190 850 190 850 282 1028 c 0,55,56
 374 1211 374 1211 505 1281 c 0,57,58
 571 1318 571 1318 643 1318 c 0,59,60
 737 1318 737 1318 803 1274 c 128,-1,61
 869 1230 869 1230 909 1148 c 0,62,63
 986 993 986 993 986 700 c 0,64,65
 986 445 986 445 943 308 c 0,66,67
 922 245 922 245 894 211.5 c 128,-1,68
 866 178 866 178 831 178 c 0,69,70
 805 178 805 178 787 190.5 c 128,-1,71
 769 203 769 203 761 232 c 0,72,73
 755 254 755 254 755 295.5 c 128,-1,74
 755 337 755 337 765 410 c 2,75,-1
 842 908 l 1,76,-1
 728 881 l 1,77,-1
 723 884 l 2,78,79
 710 892 710 892 679 900.5 c 128,-1,80
 648 909 648 909 612 909 c 0,0,1
498 178 m 0,81,82
 452 178 452 178 437 231 c 0,83,84
 425 275 425 275 425 373 c 0,85,86
 425 511 425 511 462 642 c 0,87,88
 490 741 490 741 540 786 c 0,89,90
 568 810 568 810 601.5 810 c 128,-1,91
 635 810 635 810 657 799 c 128,-1,92
 679 788 679 788 690 773 c 2,93,-1
 694 769 l 1,94,-1
 627 321 l 1,95,96
 573 203 573 203 528 184 c 0,97,98
 513 178 513 178 498 178 c 0,81,82
EndSplineSet
EndChar

StartChar: A
Encoding: 65 65 36
Width: 1126
Flags: W
LayerCount: 2
Fore
SplineSet
276 305 m 1,0,-1
 842 305 l 1,1,-1
 933 20 l 1,2,-1
 1095 20 l 1,3,-1
 677 1287 l 1,4,-1
 455 1287 l 1,5,-1
 31 20 l 1,6,-1
 184 20 l 1,7,-1
 276 305 l 1,0,-1
317 434 m 1,8,-1
 559 1191 l 1,9,-1
 801 434 l 1,10,-1
 317 434 l 1,8,-1
EndSplineSet
Substitution2: "<10,1> Superiors in Latin lookup 5 subtable" A.superior
EndChar

StartChar: B
Encoding: 66 66 37
Width: 1126
Flags: W
LayerCount: 2
Fore
SplineSet
966 231 m 128,-1,1
 1001 300 1001 300 1001 391 c 0,2,3
 1001 453 1001 453 981 502.5 c 128,-1,4
 961 552 961 552 927 588 c 128,-1,5
 893 624 893 624 847.5 646.5 c 128,-1,6
 802 669 802 669 751 679 c 2,7,-1
 695 689 l 1,8,-1
 749 709 l 1,9,10
 859 743 859 743 906.5 815.5 c 128,-1,11
 954 888 954 888 954 989 c 0,12,13
 954 1157 954 1157 826 1232 c 0,14,15
 723 1292 723 1292 532 1292 c 2,16,-1
 173 1292 l 1,17,-1
 173 15 l 1,18,-1
 500 15 l 2,19,20
 615 15 615 15 708.5 40.5 c 128,-1,21
 802 66 802 66 866.5 114 c 128,-1,0
 931 162 931 162 966 231 c 128,-1,1
786 1043 m 128,-1,23
 799 1005 799 1005 799 962 c 0,24,25
 799 904 799 904 778 860.5 c 128,-1,26
 757 817 757 817 719 788 c 0,27,28
 645 733 645 733 514 733 c 2,29,-1
 321 733 l 1,30,-1
 321 1167 l 1,31,-1
 520 1167 l 2,32,33
 670 1167 670 1167 739 1109 c 0,34,22
 773 1081 773 1081 786 1043 c 128,-1,23
819.5 481.5 m 128,-1,36
 842 438 842 438 842 385 c 0,37,38
 842 257 842 257 762 196 c 128,-1,39
 682 135 682 135 524 135 c 2,40,-1
 321 135 l 1,41,-1
 321 615 l 1,42,-1
 518 615 l 2,43,44
 592 615 592 615 651.5 599.5 c 128,-1,45
 711 584 711 584 754 554.5 c 128,-1,35
 797 525 797 525 819.5 481.5 c 128,-1,36
EndSplineSet
Substitution2: "<10,1> Superiors in Latin lookup 5 subtable" B.superior
EndChar

StartChar: C
Encoding: 67 67 38
Width: 1126
Flags: W
LayerCount: 2
Fore
SplineSet
840 1298.5 m 128,-1,1
 766 1313 766 1313 676 1313 c 0,2,3
 545 1313 545 1313 440 1266 c 128,-1,4
 335 1219 335 1219 261 1132.5 c 128,-1,5
 187 1046 187 1046 147 920.5 c 128,-1,6
 107 795 107 795 107 639 c 0,7,8
 107 318 107 318 251 156 c 128,-1,9
 395 -6 395 -6 666 -6 c 0,10,11
 830 -6 830 -6 980 55 c 1,12,-1
 980 191 l 1,13,14
 757 125 757 125 692 125 c 0,15,16
 689 125 689 125 686 125 c 0,17,18
 480 125 480 125 373 260 c 128,-1,19
 266 395 266 395 266 655 c 0,20,21
 266 779 266 779 294.5 876 c 128,-1,22
 323 973 323 973 377.5 1042 c 128,-1,23
 432 1111 432 1111 509.5 1147 c 128,-1,24
 587 1183 587 1183 680.5 1183 c 128,-1,25
 774 1183 774 1183 846 1163.5 c 128,-1,26
 918 1144 918 1144 980 1111 c 1,27,-1
 980 1255 l 1,28,0
 914 1284 914 1284 840 1298.5 c 128,-1,1
EndSplineSet
Substitution2: "<10,1> Superiors in Latin lookup 5 subtable" C.superior
EndChar

StartChar: D
Encoding: 68 68 39
Width: 1126
Flags: W
LayerCount: 2
Fore
SplineSet
1024 491 m 0,0,1
 1038 575 1038 575 1038 668 c 0,2,3
 1038 986 1038 986 892 1139 c 128,-1,4
 746 1292 746 1292 446 1292 c 2,5,-1
 124 1292 l 1,6,-1
 124 15 l 1,7,-1
 389 15 l 2,8,9
 625 15 625 15 776 103 c 0,10,11
 848 145 848 145 897 203 c 0,12,13
 994 318 994 318 1024 491 c 0,0,1
854 889 m 0,14,15
 881 791 881 791 881 650 c 0,16,17
 881 422 881 422 790 295 c 0,18,19
 676 134 676 134 420 134 c 2,20,-1
 272 134 l 1,21,-1
 272 1167 l 1,22,-1
 440 1167 l 2,23,24
 551 1167 551 1167 634 1140 c 0,25,26
 802 1084 802 1084 854 889 c 0,14,15
EndSplineSet
Substitution2: "<10,1> Superiors in Latin lookup 5 subtable" D.superior
EndChar

StartChar: E
Encoding: 69 69 40
Width: 1126
Flags: W
LayerCount: 2
Fore
SplineSet
929 1297 m 1,0,-1
 216 1297 l 1,1,-1
 216 30 l 1,2,-1
 929 30 l 1,3,-1
 929 152 l 1,4,-1
 364 152 l 1,5,-1
 364 627 l 1,6,-1
 907 627 l 1,7,-1
 907 747 l 1,8,-1
 364 747 l 1,9,-1
 364 1177 l 1,10,-1
 929 1177 l 1,11,-1
 929 1297 l 1,0,-1
EndSplineSet
Substitution2: "<10,1> Superiors in Latin lookup 5 subtable" E.superior
EndChar

StartChar: F
Encoding: 70 70 41
Width: 1126
Flags: W
LayerCount: 2
Fore
SplineSet
372 10 m 1,0,-1
 372 587 l 1,1,-1
 898 587 l 1,2,-1
 898 706 l 1,3,-1
 372 706 l 1,4,-1
 372 1155 l 1,5,-1
 927 1155 l 1,6,-1
 927 1277 l 1,7,-1
 220 1277 l 1,8,-1
 220 10 l 1,9,-1
 372 10 l 1,0,-1
EndSplineSet
Substitution2: "<10,1> Superiors in Latin lookup 5 subtable" F.superior
EndChar

StartChar: G
Encoding: 71 71 42
Width: 1126
Flags: W
LayerCount: 2
Fore
SplineSet
584 720 m 1,0,-1
 584 601 l 1,1,-1
 851 601 l 1,2,-1
 851 154 l 1,3,4
 791 130 791 130 714 123 c 0,5,6
 691 121 691 121 672 121 c 0,7,8
 558 121 558 121 475 158 c 0,9,10
 312 230 312 230 261 431 c 0,11,12
 237 529 237 529 237 649 c 128,-1,13
 237 769 237 769 267.5 866.5 c 128,-1,14
 298 964 298 964 355.5 1035 c 128,-1,15
 413 1106 413 1106 497 1144.5 c 128,-1,16
 581 1183 581 1183 688 1183 c 0,17,18
 781 1183 781 1183 854 1162.5 c 128,-1,19
 927 1142 927 1142 991 1109 c 1,20,-1
 991 1255 l 1,21,22
 858 1315 858 1315 686 1315 c 0,23,24
 551 1315 551 1315 439.5 1269 c 128,-1,25
 328 1223 328 1223 248.5 1136.5 c 128,-1,26
 169 1050 169 1050 125 924 c 128,-1,27
 81 798 81 798 81 638 c 128,-1,28
 81 478 81 478 120.5 357 c 128,-1,29
 160 236 160 236 233.5 155.5 c 128,-1,30
 307 75 307 75 411.5 33.5 c 128,-1,31
 516 -8 516 -8 647 -8 c 0,32,33
 735 -8 735 -8 829 12 c 0,34,35
 918 31 918 31 997 67 c 1,36,-1
 997 720 l 1,37,-1
 584 720 l 1,0,-1
EndSplineSet
Substitution2: "<10,1> Superiors in Latin lookup 5 subtable" G.superior
EndChar

StartChar: H
Encoding: 72 72 43
Width: 1126
Flags: W
LayerCount: 2
Fore
SplineSet
853 615 m 1,0,-1
 853 20 l 1,1,-1
 1001 20 l 1,2,-1
 1001 1287 l 1,3,-1
 853 1287 l 1,4,-1
 853 739 l 1,5,-1
 274 739 l 1,6,-1
 274 1287 l 1,7,-1
 126 1287 l 1,8,-1
 126 20 l 1,9,-1
 274 20 l 1,10,-1
 274 615 l 1,11,-1
 853 615 l 1,0,-1
EndSplineSet
Substitution2: "<10,1> Superiors in Latin lookup 5 subtable" H.superior
EndChar

StartChar: I
Encoding: 73 73 44
Width: 1126
Flags: W
LayerCount: 2
Fore
SplineSet
187 1297 m 1,0,-1
 187 1177 l 1,1,-1
 488 1177 l 1,2,-1
 488 152 l 1,3,-1
 187 152 l 1,4,-1
 187 30 l 1,5,-1
 939 30 l 1,6,-1
 939 152 l 1,7,-1
 638 152 l 1,8,-1
 638 1177 l 1,9,-1
 939 1177 l 1,10,-1
 939 1297 l 1,11,-1
 187 1297 l 1,0,-1
EndSplineSet
Substitution2: "<10,1> Superiors in Latin lookup 5 subtable" I.superior
EndChar

StartChar: J
Encoding: 74 74 45
Width: 1126
Flags: W
LayerCount: 2
Fore
SplineSet
838 240 m 128,-1,1
 862 313 862 313 862 394 c 2,2,-1
 862 1287 l 1,3,-1
 214 1287 l 1,4,-1
 214 1163 l 1,5,-1
 711 1163 l 1,6,-1
 711 394 l 2,7,8
 711 263 711 263 647.5 192 c 128,-1,9
 584 121 584 121 469 121 c 0,10,11
 392 121 392 121 322 145.5 c 128,-1,12
 252 170 252 170 197 205 c 1,13,-1
 197 62 l 1,14,15
 243 34 243 34 313 16 c 0,16,17
 393 -4 393 -4 467 -4 c 0,18,19
 568 -4 568 -4 642 27.5 c 128,-1,20
 716 59 716 59 765 113 c 128,-1,0
 814 167 814 167 838 240 c 128,-1,1
EndSplineSet
Substitution2: "<10,1> Superiors in Latin lookup 5 subtable" J.superior
EndChar

StartChar: K
Encoding: 75 75 46
Width: 1126
Flags: W
LayerCount: 2
Fore
SplineSet
992 1287 m 1,0,-1
 820 1287 l 1,1,-1
 330 671 l 1,2,-1
 830 20 l 1,3,-1
 1016 20 l 1,4,-1
 489 686 l 1,5,-1
 992 1287 l 1,0,-1
319 20 m 1,6,-1
 319 1287 l 1,7,-1
 171 1287 l 1,8,-1
 171 20 l 1,9,-1
 319 20 l 1,6,-1
EndSplineSet
Substitution2: "<10,1> Superiors in Latin lookup 5 subtable" K.superior
EndChar

StartChar: L
Encoding: 76 76 47
Width: 1126
Flags: W
LayerCount: 2
Fore
SplineSet
399 1297 m 1,0,-1
 248 1297 l 1,1,-1
 248 30 l 1,2,-1
 970 30 l 1,3,-1
 970 152 l 1,4,-1
 399 152 l 1,5,-1
 399 1297 l 1,0,-1
EndSplineSet
Substitution2: "<10,1> Superiors in Latin lookup 5 subtable" L.superior
EndChar

StartChar: M
Encoding: 77 77 48
Width: 1126
Flags: W
LayerCount: 2
Fore
SplineSet
791 949 m 1,0,-1
 878 1210 l 1,1,-1
 892 815 l 1,2,-1
 918 20 l 1,3,-1
 1062 20 l 1,4,-1
 999 1287 l 1,5,-1
 807 1287 l 1,6,-1
 626 810 l 1,7,-1
 557 602 l 1,8,-1
 486 810 l 1,9,-1
 313 1287 l 1,10,-1
 128 1287 l 1,11,-1
 65 20 l 1,12,-1
 202 20 l 1,13,-1
 225 801 l 1,14,-1
 230 1224 l 1,15,-1
 319 929 l 1,16,-1
 499 441 l 1,17,-1
 602 441 l 1,18,-1
 791 949 l 1,0,-1
EndSplineSet
Substitution2: "<10,1> Superiors in Latin lookup 5 subtable" M.superior
EndChar

StartChar: N
Encoding: 78 78 49
Width: 1126
Flags: W
LayerCount: 2
Fore
SplineSet
993 1287 m 1,0,-1
 857 1287 l 1,1,-1
 857 166 l 1,2,-1
 697 529 l 1,3,-1
 339 1287 l 1,4,-1
 134 1287 l 1,5,-1
 134 20 l 1,6,-1
 270 20 l 1,7,-1
 270 1150 l 1,8,-1
 409 821 l 1,9,-1
 785 20 l 1,10,-1
 993 20 l 1,11,-1
 993 1287 l 1,0,-1
EndSplineSet
Substitution2: "<10,1> Superiors in Latin lookup 5 subtable" N.superior
EndChar

StartChar: O
Encoding: 79 79 50
Width: 1126
Flags: W
LayerCount: 2
Fore
SplineSet
1015.5 361 m 128,-1,1
 1056 487 1056 487 1056 662 c 0,2,3
 1056 815 1056 815 1026 937 c 128,-1,4
 996 1059 996 1059 936 1142.5 c 128,-1,5
 876 1226 876 1226 786 1270.5 c 128,-1,6
 696 1315 696 1315 573 1315 c 0,7,8
 471 1315 471 1315 380 1275.5 c 128,-1,9
 289 1236 289 1236 220.5 1154 c 128,-1,10
 152 1072 152 1072 112 946 c 128,-1,11
 72 820 72 820 72 647 c 0,12,13
 72 493 72 493 102 370 c 0,14,15
 161 124 161 124 340 36 c 0,16,17
 430 -8 430 -8 553 -8 c 0,18,19
 655 -8 655 -8 746.5 31.5 c 128,-1,20
 838 71 838 71 906.5 153 c 128,-1,0
 975 235 975 235 1015.5 361 c 128,-1,1
716.5 169.5 m 128,-1,22
 652 127 652 127 562.5 127 c 128,-1,23
 473 127 473 127 408 167 c 0,24,25
 283 244 283 244 245 444 c 0,26,27
 227 541 227 541 227 651.5 c 128,-1,28
 227 762 227 762 246.5 857 c 128,-1,29
 266 952 266 952 306 1023 c 128,-1,30
 346 1094 346 1094 410 1136.5 c 128,-1,31
 474 1179 474 1179 564 1179 c 128,-1,32
 654 1179 654 1179 719 1139 c 128,-1,33
 784 1099 784 1099 825 1028 c 128,-1,34
 866 957 866 957 883.5 860.5 c 128,-1,35
 901 764 901 764 901 653.5 c 128,-1,36
 901 543 901 543 881.5 448.5 c 128,-1,37
 862 354 862 354 821.5 283 c 128,-1,21
 781 212 781 212 716.5 169.5 c 128,-1,22
EndSplineSet
Substitution2: "<10,1> Superiors in Latin lookup 5 subtable" O.superior
EndChar

StartChar: P
Encoding: 80 80 51
Width: 1126
Flags: W
LayerCount: 2
Fore
SplineSet
972 754.5 m 128,-1,1
 1001 830 1001 830 1001 907 c 0,2,3
 1001 1013 1001 1013 962.5 1085.5 c 128,-1,4
 924 1158 924 1158 859.5 1204 c 128,-1,5
 795 1250 795 1250 708 1271 c 128,-1,6
 621 1292 621 1292 526 1292 c 2,7,-1
 173 1292 l 1,8,-1
 173 15 l 1,9,-1
 321 15 l 1,10,-1
 321 484 l 1,11,-1
 498 484 l 2,12,13
 631 484 631 484 726 521.5 c 128,-1,14
 821 559 821 559 882 619 c 128,-1,0
 943 679 943 679 972 754.5 c 128,-1,1
759 1099 m 128,-1,16
 846 1029 846 1029 846 896 c 0,17,18
 846 750 846 750 756 678 c 128,-1,19
 666 606 666 606 502 606 c 2,20,-1
 321 606 l 1,21,-1
 321 1169 l 1,22,-1
 518 1169 l 2,23,15
 672 1169 672 1169 759 1099 c 128,-1,16
EndSplineSet
Substitution2: "<10,1> Superiors in Latin lookup 5 subtable" P.superior
EndChar

StartChar: Q
Encoding: 81 81 52
Width: 1126
Flags: W
LayerCount: 2
Fore
SplineSet
1106 -262 m 1,0,-1
 1043 -164 l 1,1,2
 957 -227 957 -227 858 -227 c 0,3,4
 752 -227 752 -227 693 -169.5 c 128,-1,5
 634 -112 634 -112 618 -20 c 2,6,-1
 615 -5 l 1,7,-1
 630 -2 l 2,8,9
 720 13 720 13 797 59.5 c 128,-1,10
 874 106 874 106 931.5 188 c 128,-1,11
 989 270 989 270 1022.5 389.5 c 128,-1,12
 1056 509 1056 509 1056 664 c 0,13,14
 1056 976 1056 976 936 1143 c 0,15,16
 876 1227 876 1227 786 1271 c 128,-1,17
 696 1315 696 1315 573 1315 c 0,18,19
 471 1315 471 1315 380 1275.5 c 128,-1,20
 289 1236 289 1236 220.5 1153 c 128,-1,21
 152 1070 152 1070 112 942 c 128,-1,22
 72 814 72 814 72 637 c 0,23,24
 72 500 72 500 96.5 387.5 c 128,-1,25
 121 275 121 275 170 193 c 0,26,27
 272 26 272 26 469 -2 c 1,28,-1
 480 -4 l 1,29,-1
 482 -16 l 1,30,31
 488 -99 488 -99 517 -162 c 0,32,33
 574 -286 574 -286 704 -329 c 0,34,35
 769 -350 769 -350 843 -350 c 128,-1,36
 917 -350 917 -350 982 -328.5 c 128,-1,37
 1047 -307 1047 -307 1106 -262 c 1,0,-1
715.5 161 m 128,-1,39
 651 119 651 119 562 119 c 128,-1,40
 473 119 473 119 408.5 158.5 c 128,-1,41
 344 198 344 198 303.5 270 c 128,-1,42
 263 342 263 342 245 440.5 c 128,-1,43
 227 539 227 539 227 651 c 0,44,45
 227 881 227 881 306 1021 c 0,46,47
 346 1093 346 1093 410.5 1135 c 128,-1,48
 475 1177 475 1177 564.5 1177 c 128,-1,49
 654 1177 654 1177 719 1137 c 128,-1,50
 784 1097 784 1097 825 1025.5 c 128,-1,51
 866 954 866 954 883.5 856.5 c 128,-1,52
 901 759 901 759 901 647 c 0,53,54
 901 415 901 415 821 276 c 0,55,38
 780 203 780 203 715.5 161 c 128,-1,39
EndSplineSet
Substitution2: "<10,1> Superiors in Latin lookup 5 subtable" Q.superior
EndChar

StartChar: R
Encoding: 82 82 53
Width: 1126
Flags: W
LayerCount: 2
Fore
SplineSet
920 852.5 m 128,-1,1
 937 905 937 905 937 963 c 0,2,3
 937 1037 937 1037 913 1098 c 0,4,5
 866 1221 866 1221 712 1267 c 0,6,7
 632 1292 632 1292 520 1292 c 2,8,-1
 185 1292 l 1,9,-1
 185 15 l 1,10,-1
 333 15 l 1,11,-1
 333 597 l 1,12,-1
 432 597 l 2,13,14
 473 597 473 597 506 588 c 0,15,16
 575 571 575 571 622 506 c 0,17,18
 646 474 646 474 669 424 c 2,19,-1
 859 15 l 1,20,-1
 1027 15 l 1,21,-1
 830 424 l 2,22,23
 792 501 792 501 755 546 c 128,-1,24
 718 591 718 591 667 609 c 2,25,-1
 618 626 l 1,26,-1
 669 638 l 2,27,28
 734 653 734 653 784.5 684.5 c 128,-1,29
 835 716 835 716 869 758 c 128,-1,0
 903 800 903 800 920 852.5 c 128,-1,1
710.5 1112 m 128,-1,31
 781 1057 781 1057 781 945 c 0,32,33
 781 889 781 889 760 845 c 128,-1,34
 739 801 739 801 701 770 c 0,35,36
 625 710 625 710 492 710 c 2,37,-1
 333 710 l 1,38,-1
 333 1167 l 1,39,-1
 516 1167 l 2,40,30
 640 1167 640 1167 710.5 1112 c 128,-1,31
EndSplineSet
Substitution2: "<10,1> Superiors in Latin lookup 5 subtable" R.superior
EndChar

StartChar: S
Encoding: 83 83 54
Width: 1126
Flags: W
LayerCount: 2
Fore
SplineSet
375 1134 m 128,-1,1
 452 1189 452 1189 610 1189 c 0,2,3
 749 1189 749 1189 898 1149 c 1,4,-1
 898 1279 l 1,5,6
 838 1292 838 1292 761 1303 c 0,7,8
 680 1315 680 1315 614 1315 c 0,9,10
 489 1315 489 1315 399 1284.5 c 128,-1,11
 309 1254 309 1254 252 1205.5 c 128,-1,12
 195 1157 195 1157 168.5 1094.5 c 128,-1,13
 142 1032 142 1032 142 968 c 0,14,15
 142 894 142 894 170 840.5 c 128,-1,16
 198 787 198 787 244.5 746.5 c 128,-1,17
 291 706 291 706 351 676 c 128,-1,18
 411 646 411 646 475 620 c 128,-1,19
 539 594 539 594 600.5 569 c 128,-1,20
 662 544 662 544 712 513.5 c 128,-1,21
 762 483 762 483 794 442 c 128,-1,22
 826 401 826 401 826 345 c 128,-1,23
 826 289 826 289 807 248 c 128,-1,24
 788 207 788 207 747 177 c 0,25,26
 665 121 665 121 492 121 c 0,27,28
 372 121 372 121 283.5 136 c 128,-1,29
 195 151 195 151 126 176 c 1,30,-1
 126 34 l 1,31,32
 231 8 231 8 376 -4 c 0,33,34
 427 -8 427 -8 479 -8 c 0,35,36
 592 -8 592 -8 685.5 14.5 c 128,-1,37
 779 37 779 37 844 82 c 128,-1,38
 909 127 909 127 945.5 194.5 c 128,-1,39
 982 262 982 262 982 351 c 0,40,41
 982 426 982 426 954 480.5 c 128,-1,42
 926 535 926 535 879.5 576.5 c 128,-1,43
 833 618 833 618 773 648.5 c 128,-1,44
 713 679 713 679 649 705 c 128,-1,45
 585 731 585 731 523 756 c 128,-1,46
 461 781 461 781 411.5 812 c 128,-1,47
 362 843 362 843 330 885 c 128,-1,48
 298 927 298 927 298 985 c 0,49,0
 298 1079 298 1079 375 1134 c 128,-1,1
EndSplineSet
Substitution2: "<10,1> Superiors in Latin lookup 5 subtable" S.superior
EndChar

StartChar: T
Encoding: 84 84 55
Width: 1126
Flags: W
LayerCount: 2
Fore
SplineSet
101 1155 m 1,0,-1
 488 1155 l 1,1,-1
 488 10 l 1,2,-1
 638 10 l 1,3,-1
 638 1155 l 1,4,-1
 1025 1155 l 1,5,-1
 1025 1277 l 1,6,-1
 101 1277 l 1,7,-1
 101 1155 l 1,0,-1
EndSplineSet
Substitution2: "<10,1> Superiors in Latin lookup 5 subtable" T.superior
EndChar

StartChar: U
Encoding: 85 85 56
Width: 1126
Flags: W
LayerCount: 2
Fore
SplineSet
287 317 m 0,0,1
 272 376 272 376 272 454 c 2,2,-1
 272 1297 l 1,3,-1
 124 1297 l 1,4,-1
 124 440 l 2,5,6
 124 233 124 233 223 124 c 1,7,-1
 223 124 l 1,8,9
 274 62 274 62 356 27 c 128,-1,10
 438 -8 438 -8 557 -8 c 0,11,12
 665 -8 665 -8 747.5 28.5 c 128,-1,13
 830 65 830 65 887 131 c 1,14,-1
 887 131 l 1,15,16
 944 192 944 192 973.5 277 c 128,-1,17
 1003 362 1003 362 1003 466 c 2,18,-1
 1003 1297 l 1,19,-1
 855 1297 l 1,20,-1
 855 456 l 2,21,22
 855 304 855 304 784 217 c 0,23,24
 712 128 712 128 563 128 c 0,25,26
 484 128 484 128 429 152 c 0,27,28
 318 194 318 194 287 317 c 0,0,1
EndSplineSet
Substitution2: "<10,1> Superiors in Latin lookup 5 subtable" U.superior
EndChar

StartChar: V
Encoding: 86 86 57
Width: 1126
Flags: W
LayerCount: 2
Fore
SplineSet
25 1287 m 1,0,-1
 449 20 l 1,1,-1
 667 20 l 1,2,-1
 1101 1287 l 1,3,-1
 943 1287 l 1,4,-1
 567 120 l 1,5,-1
 472 423 l 1,6,-1
 194 1287 l 1,7,-1
 25 1287 l 1,0,-1
EndSplineSet
Substitution2: "<10,1> Superiors in Latin lookup 5 subtable" V.superior
EndChar

StartChar: W
Encoding: 87 87 58
Width: 1126
Flags: W
LayerCount: 2
Fore
SplineSet
615 470 m 1,0,-1
 773 20 l 1,1,-1
 979 20 l 1,2,-1
 1065 1287 l 1,3,-1
 936 1287 l 1,4,-1
 885 354 l 1,5,-1
 879 93 l 1,6,-1
 791 343 l 1,7,-1
 612 851 l 1,8,-1
 511 851 l 1,9,-1
 357 378 l 1,10,-1
 269 92 l 1,11,-1
 249 417 l 1,12,-1
 199 1287 l 1,13,-1
 61 1287 l 1,14,-1
 149 20 l 1,15,-1
 347 20 l 1,16,-1
 493 457 l 1,17,-1
 555 666 l 1,18,-1
 615 470 l 1,0,-1
EndSplineSet
Substitution2: "<10,1> Superiors in Latin lookup 5 subtable" W.superior
EndChar

StartChar: X
Encoding: 88 88 59
Width: 1126
Flags: W
LayerCount: 2
Fore
SplineSet
559 557 m 1,0,-1
 886 20 l 1,1,-1
 1075 20 l 1,2,-1
 650 676 l 1,3,-1
 1042 1287 l 1,4,-1
 873 1287 l 1,5,-1
 563 786 l 1,6,-1
 255 1287 l 1,7,-1
 80 1287 l 1,8,-1
 471 668 l 1,9,-1
 45 20 l 1,10,-1
 231 20 l 1,11,-1
 559 557 l 1,0,-1
EndSplineSet
Substitution2: "<10,1> Superiors in Latin lookup 5 subtable" X.superior
EndChar

StartChar: Y
Encoding: 89 89 60
Width: 1126
Flags: W
LayerCount: 2
Fore
SplineSet
488 475 m 1,0,-1
 488 20 l 1,1,-1
 638 20 l 1,2,-1
 638 471 l 1,3,-1
 1100 1287 l 1,4,-1
 931 1287 l 1,5,-1
 672 804 l 1,6,-1
 571 604 l 1,7,-1
 462 822 l 1,8,-1
 206 1287 l 1,9,-1
 26 1287 l 1,10,-1
 488 475 l 1,0,-1
EndSplineSet
Substitution2: "<10,1> Superiors in Latin lookup 5 subtable" Y.superior
EndChar

StartChar: Z
Encoding: 90 90 61
Width: 1126
Flags: W
LayerCount: 2
Fore
SplineSet
126 20 m 1,0,-1
 999 20 l 1,1,-1
 999 156 l 1,2,-1
 306 156 l 1,3,-1
 986 1169 l 1,4,-1
 986 1287 l 1,5,-1
 144 1287 l 1,6,-1
 144 1155 l 1,7,-1
 810 1155 l 1,8,-1
 126 131 l 1,9,-1
 126 20 l 1,0,-1
EndSplineSet
Substitution2: "<10,1> Superiors in Latin lookup 5 subtable" Z.superior
EndChar

StartChar: bracketleft
Encoding: 91 91 62
Width: 1126
Flags: W
LayerCount: 2
Fore
SplineSet
360 1433 m 1,0,-1
 360 -395 l 1,1,-1
 823 -395 l 1,2,-1
 823 -285 l 1,3,-1
 496 -285 l 1,4,-1
 496 1323 l 1,5,-1
 823 1323 l 1,6,-1
 823 1433 l 1,7,-1
 360 1433 l 1,0,-1
EndSplineSet
Substitution2: "'rtla' Right to Left Alternates in Greek lookup 0 subtable" bracketright
EndChar

StartChar: backslash
Encoding: 92 92 63
Width: 1126
Flags: W
LayerCount: 2
Fore
SplineSet
183 1398 m 1,0,-1
 856 -200 l 1,1,-1
 989 -200 l 1,2,-1
 316 1398 l 1,3,-1
 183 1398 l 1,0,-1
EndSplineSet
EndChar

StartChar: bracketright
Encoding: 93 93 64
Width: 1126
Flags: W
LayerCount: 2
Fore
SplineSet
303 -285 m 1,0,-1
 303 -395 l 1,1,-1
 766 -395 l 1,2,-1
 766 1433 l 1,3,-1
 303 1433 l 1,4,-1
 303 1323 l 1,5,-1
 628 1323 l 1,6,-1
 628 -285 l 1,7,-1
 303 -285 l 1,0,-1
EndSplineSet
Substitution2: "'rtla' Right to Left Alternates in Greek lookup 0 subtable" bracketleft
EndChar

StartChar: asciicircum
Encoding: 94 94 65
Width: 1126
Flags: W
LayerCount: 2
Fore
SplineSet
270 683 m 1,0,-1
 551 1199 l 1,1,-1
 849 683 l 1,2,-1
 987 683 l 1,3,-1
 620 1292 l 1,4,-1
 496 1292 l 1,5,-1
 147 683 l 1,6,-1
 270 683 l 1,0,-1
EndSplineSet
EndChar

StartChar: underscore
Encoding: 95 95 66
Width: 1126
Flags: W
LayerCount: 2
Fore
SplineSet
0 -281 m 1,0,-1
 0 -395 l 1,1,-1
 1126 -395 l 1,2,-1
 1126 -281 l 1,3,-1
 0 -281 l 1,0,-1
EndSplineSet
EndChar

StartChar: grave
Encoding: 96 96 67
Width: 1126
Flags: W
LayerCount: 2
Fore
SplineSet
219 1398 m 1,0,-1
 499 1186 l 1,1,-1
 632 1186 l 1,2,-1
 420 1398 l 1,3,-1
 219 1398 l 1,0,-1
0 1004 m 1024,4,-1
EndSplineSet
EndChar

StartChar: a
Encoding: 97 97 68
Width: 1126
Flags: W
LayerCount: 2
Fore
SplineSet
389 873 m 128,-1,1
 468 891 468 891 555 891 c 0,2,3
 678 891 678 891 739.5 833.5 c 128,-1,4
 801 776 801 776 801 679 c 2,5,-1
 801 577 l 1,6,-1
 578 577 l 2,7,8
 363 577 363 577 255.5 494 c 128,-1,9
 148 411 148 411 148 266 c 0,10,11
 148 207 148 207 165.5 157.5 c 128,-1,12
 183 108 183 108 220 71.5 c 128,-1,13
 257 35 257 35 315.5 13.5 c 128,-1,14
 374 -8 374 -8 460.5 -8 c 128,-1,15
 547 -8 547 -8 628.5 31 c 128,-1,16
 710 70 710 70 790 159 c 1,17,18
 790 159 790 159 815 183 c 1,19,-1
 820 30 l 1,20,-1
 946 30 l 1,21,-1
 946 700 l 2,22,23
 946 780 946 780 920 839 c 0,24,25
 869 954 869 954 729 992 c 0,26,27
 658 1012 658 1012 568 1012 c 128,-1,28
 478 1012 478 1012 379 992 c 0,29,30
 302 977 302 977 232 951 c 1,31,-1
 232 824 l 1,32,0
 310 855 310 855 389 873 c 128,-1,1
367 420 m 0,33,34
 433 472 433 472 565 472 c 2,35,-1
 801 472 l 1,36,-1
 801 276 l 1,37,38
 709 192 709 192 628.5 154.5 c 128,-1,39
 548 117 548 117 485 117 c 0,40,41
 391 117 391 117 344 165 c 0,42,43
 302 209 302 209 302 277 c 0,44,45
 302 369 302 369 367 420 c 0,33,34
EndSplineSet
Substitution2: "<10,1> Superiors in Latin lookup 5 subtable" uni1D43
EndChar

StartChar: b
Encoding: 98 98 69
Width: 1126
Flags: W
LayerCount: 2
Fore
SplineSet
969.5 300 m 128,-1,1
 1003 397 1003 397 1003 515 c 0,2,3
 1003 751 1003 751 918 880 c 0,4,5
 875 943 875 943 813.5 977.5 c 128,-1,6
 752 1012 752 1012 670 1012 c 0,7,8
 575 1012 575 1012 493 972 c 128,-1,9
 411 932 411 932 338 834 c 2,10,-1
 309 795 l 1,11,-1
 319 1029 l 1,12,-1
 319 1403 l 1,13,-1
 175 1403 l 1,14,-1
 175 65 l 1,15,16
 260 31 260 31 349 14.5 c 128,-1,17
 438 -2 438 -2 526 -2 c 0,18,19
 637 -2 637 -2 725 33.5 c 128,-1,20
 813 69 813 69 874.5 136 c 128,-1,0
 936 203 936 203 969.5 300 c 128,-1,1
843 658 m 0,21,22
 855 591 855 591 855 512 c 0,23,24
 855 401 855 401 829.5 326.5 c 128,-1,25
 804 252 804 252 760.5 205 c 128,-1,26
 717 158 717 158 659.5 138.5 c 128,-1,27
 602 119 602 119 539 119 c 0,28,29
 439 119 439 119 319 166 c 1,30,-1
 319 662 l 1,31,32
 368 726 368 726 410 767 c 128,-1,33
 452 808 452 808 489 833 c 0,34,35
 560 880 560 880 635 880 c 0,36,37
 694 880 694 880 736 852 c 0,38,39
 819 796 819 796 843 658 c 0,21,22
EndSplineSet
Substitution2: "<10,1> Superiors in Latin lookup 5 subtable" uni1D47
EndChar

StartChar: c
Encoding: 99 99 70
Width: 1126
Flags: W
LayerCount: 2
Fore
SplineSet
925 831 m 1,0,-1
 925 965 l 1,1,2
 814 1008 814 1008 664 1008 c 0,3,4
 555 1008 555 1008 465 971.5 c 128,-1,5
 375 935 375 935 310 867 c 128,-1,6
 245 799 245 799 209 704 c 128,-1,7
 173 609 173 609 173 492 c 0,8,9
 173 248 173 248 297 122 c 128,-1,10
 421 -4 421 -4 653 -4 c 0,11,12
 798 -4 798 -4 925 43 c 1,13,-1
 925 174 l 1,14,15
 807 118 807 118 674 118 c 0,16,17
 511 118 511 118 418 213.5 c 128,-1,18
 325 309 325 309 325 498 c 0,19,20
 325 589 325 589 352 661 c 128,-1,21
 379 733 379 733 426 783.5 c 128,-1,22
 473 834 473 834 535.5 860.5 c 128,-1,23
 598 887 598 887 668 887 c 0,24,25
 807 887 807 887 925 831 c 1,0,-1
EndSplineSet
Substitution2: "<10,1> Superiors in Latin lookup 5 subtable" uni1D9C
EndChar

StartChar: d
Encoding: 100 100 71
Width: 1126
Flags: W
LayerCount: 2
Fore
SplineSet
158 705 m 128,-1,1
 124 607 124 607 124 481 c 0,2,3
 124 370 124 370 145.5 279 c 128,-1,4
 167 188 167 188 209 124.5 c 128,-1,5
 251 61 251 61 313 26.5 c 128,-1,6
 375 -8 375 -8 457 -8 c 0,7,8
 552 -8 552 -8 633.5 41.5 c 128,-1,9
 715 91 715 91 787 195 c 2,10,-1
 812 233 l 1,11,-1
 820 10 l 1,12,-1
 946 10 l 1,13,-1
 946 1403 l 1,14,-1
 801 1403 l 1,15,-1
 801 977 l 1,16,-1
 782 981 l 1,17,18
 697 1006 697 1006 600 1006 c 0,19,20
 492 1006 492 1006 404.5 971 c 128,-1,21
 317 936 317 936 254.5 869.5 c 128,-1,0
 192 803 192 803 158 705 c 128,-1,1
328 216 m 0,22,23
 272 308 272 308 272 492 c 0,24,25
 272 691 272 691 355.5 786.5 c 128,-1,26
 439 882 439 882 588 882 c 0,27,28
 703 882 703 882 801 836 c 1,29,-1
 801 362 l 1,30,31
 716 242 716 242 640 181.5 c 128,-1,32
 564 121 564 121 492 121 c 0,33,34
 385 121 385 121 328 216 c 0,22,23
EndSplineSet
Substitution2: "<10,1> Superiors in Latin lookup 5 subtable" uni1D48
EndChar

StartChar: e
Encoding: 101 101 72
Width: 1126
Flags: W
LayerCount: 2
Fore
SplineSet
374.5 197 m 128,-1,1
 284 285 284 285 284 446 c 2,2,-1
 284 461 l 1,3,-1
 990 461 l 1,4,5
 993 500 993 500 993 556 c 0,6,7
 993 661 993 661 965 746 c 0,8,9
 910 915 910 915 753 979 c 0,10,11
 675 1012 675 1012 571.5 1012 c 128,-1,12
 468 1012 468 1012 386 971 c 128,-1,13
 304 930 304 930 247.5 860.5 c 128,-1,14
 191 791 191 791 161.5 697.5 c 128,-1,15
 132 604 132 604 132 500 c 0,16,17
 132 252 132 252 245 125 c 0,18,19
 302 61 302 61 392 26.5 c 128,-1,20
 482 -8 482 -8 608 -8 c 0,21,22
 703 -8 703 -8 788 4.5 c 128,-1,23
 873 17 873 17 939 34 c 1,24,-1
 939 148 l 1,25,26
 883 133 883 133 808 123 c 0,27,28
 718 109 718 109 633 109 c 0,29,0
 465 109 465 109 374.5 197 c 128,-1,1
842 596 m 2,30,-1
 842 560 l 1,31,-1
 283 560 l 1,32,-1
 284 576 l 2,33,34
 289 645 289 645 311 703.5 c 128,-1,35
 333 762 333 762 369 804 c 128,-1,36
 405 846 405 846 455 869.5 c 128,-1,37
 505 893 505 893 565 893 c 0,38,39
 634 893 634 893 687 869 c 128,-1,40
 740 845 740 845 776 803 c 0,41,42
 842 724 842 724 842 596 c 2,30,-1
EndSplineSet
Substitution2: "<10,1> Superiors in Latin lookup 5 subtable" uni1D49
EndChar

StartChar: f
Encoding: 102 102 73
Width: 1126
Flags: W
LayerCount: 2
Fore
SplineSet
418 20 m 1,0,-1
 565 20 l 1,1,-1
 565 733 l 1,2,-1
 1005 733 l 1,3,-1
 1005 848 l 1,4,-1
 565 848 l 1,5,-1
 565 1039 l 2,6,7
 565 1154 565 1154 614 1218 c 0,8,9
 678 1300 678 1300 815 1300 c 0,10,11
 909 1300 909 1300 1036 1274 c 1,12,-1
 1036 1394 l 1,13,14
 919 1415 919 1415 821 1415 c 0,15,16
 641 1415 641 1415 541 1339 c 0,17,18
 418 1245 418 1245 418 1029 c 2,19,-1
 418 848 l 1,20,-1
 95 848 l 1,21,-1
 95 733 l 1,22,-1
 418 733 l 1,23,-1
 418 20 l 1,0,-1
0 1004 m 1024,24,-1
EndSplineSet
Substitution2: "<10,1> Superiors in Latin lookup 5 subtable" uni1DA0
EndChar

StartChar: g
Encoding: 103 103 74
Width: 1126
Flags: W
LayerCount: 2
Fore
SplineSet
871 856 m 2,0,-1
 851 880 l 1,1,-1
 1029 880 l 1,2,-1
 1029 994 l 1,3,-1
 677 994 l 1,4,5
 619 1012 619 1012 549 1012 c 0,6,7
 464 1012 464 1012 394 987 c 256,8,9
 324 962 324 962 274.5 917.5 c 128,-1,10
 225 873 225 873 198 811 c 128,-1,11
 171 749 171 749 171 677.5 c 128,-1,12
 171 606 171 606 192 556 c 0,13,14
 201 531 201 531 215 510 c 128,-1,15
 229 489 229 489 255 456 c 1,16,-1
 248 447 l 1,17,18
 206 400 206 400 177 347.5 c 128,-1,19
 148 295 148 295 148 233 c 0,20,21
 148 188 148 188 170 147 c 0,22,23
 192 107 192 107 239 83 c 1,24,-1
 263 73 l 1,25,-1
 242 58 l 2,26,27
 173 8 173 8 141 -45 c 0,28,29
 109 -96 109 -96 109 -165 c 0,30,31
 109 -219 109 -219 132.5 -262.5 c 128,-1,32
 156 -306 156 -306 208 -339 c 128,-1,33
 260 -372 260 -372 343.5 -391 c 128,-1,34
 427 -410 427 -410 550 -410 c 128,-1,35
 673 -410 673 -410 763.5 -383.5 c 128,-1,36
 854 -357 854 -357 912 -313.5 c 128,-1,37
 970 -270 970 -270 997.5 -213.5 c 128,-1,38
 1025 -157 1025 -157 1025 -95 c 0,39,40
 1025 -34 1025 -34 1002 9 c 0,41,42
 954 98 954 98 831 132 c 0,43,44
 769 148 769 148 696 150 c 2,45,-1
 432 160 l 2,46,47
 367 162 367 162 325.5 190.5 c 128,-1,48
 284 219 284 219 284 266 c 0,49,50
 284 301 284 301 298 328 c 256,51,52
 312 355 312 355 340 396 c 1,53,-1
 352 388 l 2,54,55
 382 370 382 370 435 356.5 c 128,-1,56
 488 343 488 343 549 343 c 0,57,58
 633 343 633 343 703 368 c 128,-1,59
 773 393 773 393 823 437 c 128,-1,60
 873 481 873 481 900 543.5 c 128,-1,61
 927 606 927 606 927 681 c 0,62,63
 927 733 927 733 912.5 778 c 128,-1,64
 898 823 898 823 871 856 c 2,0,-1
347 -268 m 0,65,66
 264 -231 264 -231 264 -150 c 0,67,68
 264 -99 264 -99 288 -57 c 0,69,70
 313 -11 313 -11 385 37 c 1,71,-1
 651 28 l 2,72,73
 758 23 758 23 812 -8 c 0,74,75
 869 -41 869 -41 869 -111 c 0,76,77
 869 -147 869 -147 852 -182 c 0,78,79
 819 -254 819 -254 702 -285 c 0,80,81
 644 -301 644 -301 559 -301 c 0,82,83
 424 -301 424 -301 347 -268 c 0,65,66
334.5 580.5 m 128,-1,85
 317 623 317 623 317 670.5 c 128,-1,86
 317 718 317 718 332.5 759 c 128,-1,87
 348 800 348 800 377.5 831.5 c 128,-1,88
 407 863 407 863 450.5 882 c 128,-1,89
 494 901 494 901 547 901 c 128,-1,90
 600 901 600 901 642.5 885 c 128,-1,91
 685 869 685 869 715.5 839 c 128,-1,92
 746 809 746 809 763.5 766.5 c 128,-1,93
 781 724 781 724 781 676.5 c 128,-1,94
 781 629 781 629 765.5 588 c 128,-1,95
 750 547 750 547 720.5 515 c 128,-1,96
 691 483 691 483 647.5 464.5 c 128,-1,97
 604 446 604 446 551 446 c 128,-1,98
 498 446 498 446 455.5 462 c 128,-1,99
 413 478 413 478 382.5 508 c 128,-1,84
 352 538 352 538 334.5 580.5 c 128,-1,85
EndSplineSet
Substitution2: "<10,1> Superiors in Latin lookup 5 subtable" uni1D4D
EndChar

StartChar: h
Encoding: 104 104 75
Width: 1126
Flags: W
LayerCount: 2
Fore
SplineSet
175 20 m 1,0,-1
 319 20 l 1,1,-1
 319 677 l 1,2,3
 374 741 374 741 413.5 782 c 128,-1,4
 453 823 453 823 488 847.5 c 128,-1,5
 523 872 523 872 555 882 c 128,-1,6
 587 892 587 892 625 892 c 0,7,8
 713 892 713 892 760.5 829.5 c 128,-1,9
 808 767 808 767 808 646 c 2,10,-1
 808 20 l 1,11,-1
 952 20 l 1,12,-1
 952 660 l 2,13,14
 952 838 952 838 874.5 925 c 128,-1,15
 797 1012 797 1012 653 1012 c 0,16,17
 611 1012 611 1012 571.5 1003.5 c 128,-1,18
 532 995 532 995 494 975 c 0,19,20
 416 933 416 933 340 842 c 2,21,-1
 311 807 l 1,22,-1
 319 1009 l 1,23,-1
 319 1403 l 1,24,-1
 175 1403 l 1,25,-1
 175 20 l 1,0,-1
EndSplineSet
Substitution2: "<10,1> Superiors in Latin lookup 5 subtable" uni02B0
EndChar

StartChar: i
Encoding: 105 105 76
Width: 1126
Flags: W
LayerCount: 2
Fore
SplineSet
663 984 m 1,0,-1
 220 984 l 1,1,-1
 220 870 l 1,2,-1
 517 870 l 1,3,-1
 517 125 l 1,4,-1
 187 125 l 1,5,-1
 187 10 l 1,6,-1
 962 10 l 1,7,-1
 962 125 l 1,8,-1
 663 125 l 1,9,-1
 663 984 l 1,0,-1
562.5 1415 m 128,-1,11
 510 1415 510 1415 477 1380 c 0,12,13
 441 1343 441 1343 441 1293 c 0,14,15
 441 1268 441 1268 450 1246 c 128,-1,16
 459 1224 459 1224 476 1206.5 c 128,-1,17
 493 1189 493 1189 515 1180 c 128,-1,18
 537 1171 537 1171 563 1171 c 128,-1,19
 589 1171 589 1171 611 1180 c 128,-1,20
 633 1189 633 1189 650 1206.5 c 128,-1,21
 667 1224 667 1224 676 1246 c 128,-1,22
 685 1268 685 1268 685 1293.5 c 128,-1,23
 685 1319 685 1319 676 1340.5 c 128,-1,24
 667 1362 667 1362 650 1380 c 0,25,10
 615 1415 615 1415 562.5 1415 c 128,-1,11
EndSplineSet
EndChar

StartChar: j
Encoding: 106 106 77
Width: 1126
Flags: W
LayerCount: 2
Fore
SplineSet
264 -397.5 m 128,-1,1
 330 -410 330 -410 403 -410 c 0,2,3
 502 -410 502 -410 581 -382 c 0,4,5
 738 -326 738 -326 796 -168 c 0,6,7
 825 -89 825 -89 825 13 c 2,8,-1
 825 984 l 1,9,-1
 187 984 l 1,10,-1
 187 870 l 1,11,-1
 679 870 l 1,12,-1
 679 7 l 2,13,14
 679 -139 679 -139 609.5 -215.5 c 128,-1,15
 540 -292 540 -292 422 -292 c 128,-1,16
 304 -292 304 -292 192 -251 c 0,17,18
 168 -242 168 -242 146 -232 c 1,19,-1
 146 -364 l 1,20,0
 198 -385 198 -385 264 -397.5 c 128,-1,1
783 1406 m 128,-1,22
 761 1415 761 1415 735 1415 c 128,-1,23
 709 1415 709 1415 687 1406 c 128,-1,24
 665 1397 665 1397 648 1379.5 c 128,-1,25
 631 1362 631 1362 622 1340 c 128,-1,26
 613 1318 613 1318 613 1292.5 c 128,-1,27
 613 1267 613 1267 622 1245.5 c 128,-1,28
 631 1224 631 1224 648 1206.5 c 128,-1,29
 665 1189 665 1189 687 1180 c 128,-1,30
 709 1171 709 1171 735 1171 c 0,31,32
 788 1171 788 1171 821 1206 c 0,33,34
 857 1243 857 1243 857 1293 c 0,35,36
 857 1318 857 1318 848 1340 c 128,-1,37
 839 1362 839 1362 822 1379.5 c 128,-1,21
 805 1397 805 1397 783 1406 c 128,-1,22
EndSplineSet
Substitution2: "<10,1> Superiors in Latin lookup 5 subtable" uni02B2
EndChar

StartChar: k
Encoding: 107 107 78
Width: 1126
Flags: W
LayerCount: 2
Fore
SplineSet
813 984 m 1,0,-1
 373 541 l 1,1,-1
 831 20 l 1,2,-1
 1029 20 l 1,3,-1
 545 541 l 1,4,-1
 1001 984 l 1,5,-1
 813 984 l 1,0,-1
197 1403 m 1,6,-1
 197 30 l 1,7,-1
 341 30 l 1,8,-1
 341 1403 l 1,9,-1
 197 1403 l 1,6,-1
EndSplineSet
Substitution2: "<10,1> Superiors in Latin lookup 5 subtable" uni1D4F
EndChar

StartChar: l
Encoding: 108 108 79
Width: 1126
Flags: W
LayerCount: 2
Fore
SplineSet
220 1403 m 1,0,-1
 220 1290 l 1,1,-1
 517 1290 l 1,2,-1
 517 145 l 1,3,-1
 187 145 l 1,4,-1
 187 30 l 1,5,-1
 962 30 l 1,6,-1
 962 145 l 1,7,-1
 663 145 l 1,8,-1
 663 1403 l 1,9,-1
 220 1403 l 1,0,-1
EndSplineSet
EndChar

StartChar: m
Encoding: 109 109 80
Width: 1126
Flags: W
LayerCount: 2
Fore
SplineSet
378 884 m 1,0,1
 409 897 409 897 418 897 c 0,2,3
 419 897 419 897 420 897 c 0,4,5
 441 897 441 897 457 887.5 c 128,-1,6
 473 878 473 878 482 855.5 c 128,-1,7
 491 833 491 833 494.5 798 c 128,-1,8
 498 763 498 763 498 707 c 2,9,-1
 498 20 l 1,10,-1
 627 20 l 1,11,-1
 627 653 l 1,12,13
 661 722 661 722 685 766 c 0,14,15
 732 856 732 856 768 882 c 0,16,17
 789 897 789 897 812 897 c 128,-1,18
 835 897 835 897 851 887 c 0,19,20
 880 870 880 870 887 805 c 0,21,22
 891 774 891 774 891 726 c 2,23,-1
 891 20 l 1,24,-1
 1021 20 l 1,25,-1
 1021 736 l 2,26,27
 1021 862 1021 862 986 931 c 0,28,29
 943 1012 943 1012 847 1012 c 0,30,31
 808 1012 808 1012 779 999 c 0,32,33
 722 973 722 973 678 895 c 0,34,35
 655 855 655 855 632 804 c 2,36,-1
 603 741 l 1,37,-1
 603 810 l 2,38,39
 603 916 603 916 565 964 c 128,-1,40
 527 1012 527 1012 453 1012 c 0,41,42
 420 1012 420 1012 393 1001.5 c 128,-1,43
 366 991 366 991 342 968.5 c 128,-1,44
 318 946 318 946 294 907 c 128,-1,45
 270 868 270 868 245 812 c 2,46,-1
 219 755 l 1,47,-1
 208 994 l 1,48,-1
 105 994 l 1,49,-1
 105 20 l 1,50,-1
 235 20 l 1,51,-1
 235 653 l 1,52,53
 270 726 270 726 294 772 c 0,54,55
 342 862 342 862 378 884 c 1,0,1
EndSplineSet
Substitution2: "<10,1> Superiors in Latin lookup 5 subtable" uni1D50
EndChar

StartChar: n
Encoding: 110 110 81
Width: 1126
Flags: W
LayerCount: 2
Fore
SplineSet
808 20 m 1,0,-1
 952 20 l 1,1,-1
 952 660 l 2,2,3
 952 838 952 838 876.5 925 c 128,-1,4
 801 1012 801 1012 653 1012 c 0,5,6
 564 1012 564 1012 494 976 c 0,7,8
 414 933 414 933 334 838 c 2,9,-1
 309 808 l 1,10,-1
 300 994 l 1,11,-1
 175 994 l 1,12,-1
 175 20 l 1,13,-1
 319 20 l 1,14,-1
 319 677 l 1,15,16
 370 741 370 741 409.5 782 c 128,-1,17
 449 823 449 823 484 847.5 c 128,-1,18
 519 872 519 872 551 882 c 128,-1,19
 583 892 583 892 618 892 c 0,20,21
 808 892 808 892 808 646 c 2,22,-1
 808 20 l 1,0,-1
EndSplineSet
Substitution2: "<10,1> Superiors in Latin lookup 5 subtable" uni207F
EndChar

StartChar: o
Encoding: 111 111 82
Width: 1126
Flags: W
LayerCount: 2
Fore
SplineSet
987 298.5 m 128,-1,1
 1019 395 1019 395 1019 514 c 128,-1,2
 1019 633 1019 633 988 727 c 0,3,4
 928 913 928 913 761 979 c 0,5,6
 678 1012 678 1012 570.5 1012 c 128,-1,7
 463 1012 463 1012 377 974.5 c 128,-1,8
 291 937 291 937 231 869.5 c 128,-1,9
 171 802 171 802 139 706.5 c 128,-1,10
 107 611 107 611 107 491.5 c 128,-1,11
 107 372 107 372 138 278 c 0,12,13
 198 91 198 91 365 24 c 0,14,15
 448 -8 448 -8 555.5 -8 c 128,-1,16
 663 -8 663 -8 749 29.5 c 128,-1,17
 835 67 835 67 895 134.5 c 128,-1,0
 955 202 955 202 987 298.5 c 128,-1,1
850 666 m 0,18,19
 871 595 871 595 871 502 c 0,20,21
 871 426 871 426 854 357.5 c 128,-1,22
 837 289 837 289 799.5 235.5 c 128,-1,23
 762 182 762 182 703.5 150.5 c 128,-1,24
 645 119 645 119 563 119 c 0,25,26
 492 119 492 119 435 143.5 c 128,-1,27
 378 168 378 168 337.5 216.5 c 128,-1,28
 297 265 297 265 276 336.5 c 128,-1,29
 255 408 255 408 255 502 c 0,30,31
 255 577 255 577 272 645.5 c 128,-1,32
 289 714 289 714 326.5 767.5 c 128,-1,33
 364 821 364 821 422.5 852.5 c 128,-1,34
 481 884 481 884 563 884 c 0,35,36
 633 884 633 884 691 860 c 0,37,38
 807 810 807 810 850 666 c 0,18,19
EndSplineSet
Substitution2: "<10,1> Superiors in Latin lookup 5 subtable" uni1D52
EndChar

StartChar: p
Encoding: 112 112 83
Width: 1126
Flags: W
LayerCount: 2
Fore
SplineSet
966.5 289.5 m 128,-1,1
 1003 388 1003 388 1003 520 c 0,2,3
 1003 633 1003 633 981.5 724.5 c 128,-1,4
 960 816 960 816 917.5 879.5 c 128,-1,5
 875 943 875 943 813.5 977.5 c 128,-1,6
 752 1012 752 1012 670 1012 c 0,7,8
 574 1012 574 1012 492.5 971.5 c 128,-1,9
 411 931 411 931 338 830 c 2,10,-1
 314 795 l 1,11,-1
 301 994 l 1,12,-1
 175 994 l 1,13,-1
 175 -400 l 1,14,-1
 319 -400 l 1,15,-1
 319 24 l 1,16,17
 386 8 386 8 432.5 3 c 128,-1,18
 479 -2 479 -2 526 -2 c 0,19,20
 628 -2 628 -2 715 30.5 c 128,-1,21
 802 63 802 63 866 127 c 128,-1,0
 930 191 930 191 966.5 289.5 c 128,-1,1
843 658 m 0,22,23
 855 591 855 591 855 512 c 0,24,25
 855 317 855 317 771 218 c 128,-1,26
 687 119 687 119 539 119 c 0,27,28
 433 119 433 119 319 166 c 1,29,-1
 319 662 l 1,30,31
 368 726 368 726 410 767 c 128,-1,32
 452 808 452 808 489 833 c 0,33,34
 560 880 560 880 635 880 c 0,35,36
 694 880 694 880 736 852 c 0,37,38
 819 796 819 796 843 658 c 0,22,23
EndSplineSet
Substitution2: "<10,1> Superiors in Latin lookup 5 subtable" uni1D56
EndChar

StartChar: q
Encoding: 113 113 84
Width: 1126
Flags: W
LayerCount: 2
Fore
SplineSet
699 998 m 128,-1,1
 650 1006 650 1006 600 1006 c 0,2,3
 474 1006 474 1006 384 964 c 128,-1,4
 294 922 294 922 237 850.5 c 128,-1,5
 180 779 180 779 152 683 c 128,-1,6
 124 587 124 587 124 479 c 128,-1,7
 124 371 124 371 145 280 c 128,-1,8
 166 189 166 189 208 125 c 128,-1,9
 250 61 250 61 311.5 26.5 c 128,-1,10
 373 -8 373 -8 457 -8 c 0,11,12
 645 -8 645 -8 783 188 c 2,13,-1
 812 230 l 1,14,-1
 801 -36 l 1,15,-1
 801 -400 l 1,16,-1
 946 -400 l 1,17,-1
 946 1008 l 1,18,-1
 807 973 l 1,19,0
 748 990 748 990 699 998 c 128,-1,1
393 147 m 0,20,21
 272 226 272 226 272 492 c 0,22,23
 272 682 272 682 353 783 c 128,-1,24
 434 884 434 884 588 884 c 0,25,26
 697 884 697 884 801 836 c 1,27,-1
 801 362 l 1,28,29
 716 242 716 242 640 181.5 c 128,-1,30
 564 121 564 121 492 121 c 0,31,32
 436 121 436 121 393 147 c 0,20,21
EndSplineSet
EndChar

StartChar: r
Encoding: 114 114 85
Width: 1126
Flags: W
LayerCount: 2
Fore
SplineSet
865 641 m 1,0,-1
 1011 641 l 1,1,-1
 1011 653 l 2,2,3
 1011 827 1011 827 940 917 c 0,4,5
 864 1012 864 1012 715 1012 c 0,6,7
 631 1012 631 1012 547 965.5 c 128,-1,8
 463 919 463 919 377 815 c 2,9,-1
 351 783 l 1,10,-1
 345 994 l 1,11,-1
 216 994 l 1,12,-1
 216 20 l 1,13,-1
 362 20 l 1,14,-1
 362 655 l 1,15,16
 459 780 459 780 536 836 c 128,-1,17
 613 892 613 892 690 892 c 0,18,19
 778 892 778 892 824 826 c 0,20,21
 865 767 865 767 865 643 c 2,22,-1
 865 641 l 1,0,-1
EndSplineSet
Substitution2: "<10,1> Superiors in Latin lookup 5 subtable" uni02B3
EndChar

StartChar: s
Encoding: 115 115 86
Width: 1126
Flags: W
LayerCount: 2
Fore
SplineSet
723 147 m 0,0,1
 659 111 659 111 530 111 c 0,2,3
 368 111 368 111 197 158 c 1,4,-1
 197 28 l 1,5,6
 273 10 273 10 354.5 1 c 128,-1,7
 436 -8 436 -8 536 -8 c 128,-1,8
 636 -8 636 -8 723 20 c 0,9,10
 875 70 875 70 923 182 c 0,11,12
 940 221 940 221 940 273 c 128,-1,13
 940 325 940 325 924.5 367 c 128,-1,14
 909 409 909 409 873 441.5 c 128,-1,15
 837 474 837 474 777.5 502 c 128,-1,16
 718 530 718 530 633 555.5 c 128,-1,17
 548 581 548 581 496 602.5 c 128,-1,18
 444 624 444 624 413 646 c 128,-1,19
 382 668 382 668 370 693.5 c 128,-1,20
 358 719 358 719 358 749.5 c 128,-1,21
 358 780 358 780 372 807 c 0,22,23
 400 863 400 863 493 884 c 0,24,25
 539 895 539 895 600 895 c 0,26,27
 723 895 723 895 874 859 c 1,28,-1
 874 985 l 1,29,30
 741 1012 741 1012 608 1012 c 0,31,32
 491 1012 491 1012 413 984 c 0,33,34
 336 956 336 956 291 914.5 c 128,-1,35
 246 873 246 873 228 826 c 128,-1,36
 210 779 210 779 210 740 c 0,37,38
 210 679 210 679 232.5 634.5 c 128,-1,39
 255 590 255 590 295 556.5 c 128,-1,40
 335 523 335 523 391 498 c 128,-1,41
 447 473 447 473 526 449 c 0,42,43
 690 400 690 400 740 361 c 0,44,45
 768 339 768 339 779 314 c 128,-1,46
 790 289 790 289 790 258 c 0,47,48
 790 186 790 186 723 147 c 0,0,1
EndSplineSet
EndChar

StartChar: t
Encoding: 116 116 87
Width: 1126
Flags: W
LayerCount: 2
Fore
SplineSet
78 990 m 1,0,-1
 78 873 l 1,1,-1
 359 873 l 1,2,-1
 359 331 l 2,3,4
 359 160 359 160 447.5 78 c 128,-1,5
 536 -4 536 -4 719 -4 c 0,6,7
 850 -4 850 -4 954 21 c 1,8,-1
 954 143 l 1,9,10
 843 115 843 115 745 115 c 0,11,12
 627 115 627 115 565 173 c 128,-1,13
 503 231 503 231 503 345 c 2,14,-1
 503 872 l 1,15,-1
 954 872 l 1,16,-1
 954 989 l 1,17,-1
 503 989 l 1,18,-1
 503 1311 l 1,19,-1
 359 1273 l 1,20,-1
 359 990 l 1,21,-1
 78 990 l 1,0,-1
EndSplineSet
Substitution2: "<10,1> Superiors in Latin lookup 5 subtable" uni1D57
EndChar

StartChar: u
Encoding: 117 117 88
Width: 1126
Flags: W
LayerCount: 2
Fore
SplineSet
319 984 m 1,0,-1
 175 984 l 1,1,-1
 175 343 l 2,2,3
 175 165 175 165 250 78.5 c 128,-1,4
 325 -8 325 -8 473 -8 c 0,5,6
 516 -8 516 -8 555 0 c 0,7,8
 633 17 633 17 710 82 c 0,9,10
 749 116 749 116 793 167 c 2,11,12
 793 167 793 167 819 196 c 1,13,-1
 826 10 l 1,14,-1
 952 10 l 1,15,-1
 952 984 l 1,16,-1
 808 984 l 1,17,-1
 808 328 l 1,18,19
 757 262 757 262 717.5 221 c 128,-1,20
 678 180 678 180 642.5 155.5 c 128,-1,21
 607 131 607 131 575 121 c 128,-1,22
 543 111 543 111 508 111 c 0,23,24
 403 111 403 111 356 189 c 0,25,26
 319 251 319 251 319 357 c 2,27,-1
 319 984 l 1,0,-1
EndSplineSet
Substitution2: "<10,1> Superiors in Latin lookup 5 subtable" uni1D58
EndChar

StartChar: v
Encoding: 118 118 89
Width: 1126
Flags: W
LayerCount: 2
Fore
SplineSet
632 339 m 1,0,-1
 563 131 l 1,1,-1
 496 335 l 1,2,-1
 254 984 l 1,3,-1
 88 984 l 1,4,-1
 469 20 l 1,5,-1
 649 20 l 1,6,-1
 1031 984 l 1,7,-1
 872 984 l 1,8,-1
 632 339 l 1,0,-1
EndSplineSet
Substitution2: "<10,1> Superiors in Latin lookup 5 subtable" uni1D5B
EndChar

StartChar: w
Encoding: 119 119 90
Width: 1126
Flags: W
LayerCount: 2
Fore
SplineSet
603 425 m 1,0,-1
 744 20 l 1,1,-1
 931 20 l 1,2,-1
 1072 984 l 1,3,-1
 931 984 l 1,4,-1
 855 316 l 1,5,-1
 833 108 l 1,6,-1
 766 306 l 1,7,-1
 612 734 l 1,8,-1
 509 734 l 1,9,-1
 302 101 l 1,10,-1
 276 321 l 1,11,-1
 194 984 l 1,12,-1
 55 984 l 1,13,-1
 195 20 l 1,14,-1
 376 20 l 1,15,-1
 511 419 l 1,16,-1
 559 574 l 1,17,-1
 603 425 l 1,0,-1
EndSplineSet
Substitution2: "<10,1> Superiors in Latin lookup 5 subtable" uni02B7
EndChar

StartChar: x
Encoding: 120 120 91
Width: 1126
Flags: W
LayerCount: 2
Fore
SplineSet
563 409 m 1,0,-1
 842 20 l 1,1,-1
 1034 20 l 1,2,-1
 653 500 l 1,3,-1
 1019 984 l 1,4,-1
 842 984 l 1,5,-1
 575 591 l 1,6,-1
 303 984 l 1,7,-1
 118 984 l 1,8,-1
 478 504 l 1,9,-1
 100 20 l 1,10,-1
 287 20 l 1,11,-1
 563 409 l 1,0,-1
EndSplineSet
EndChar

StartChar: y
Encoding: 121 121 92
Width: 1126
Flags: W
LayerCount: 2
Fore
SplineSet
413 -135 m 0,0,1
 343 -238 343 -238 257 -267 c 0,2,3
 213 -282 213 -282 168.5 -282 c 128,-1,4
 124 -282 124 -282 74 -276 c 1,5,-1
 74 -403 l 1,6,7
 115 -406 115 -406 152 -406 c 0,8,9
 248 -406 248 -406 325.5 -377 c 128,-1,10
 403 -348 403 -348 468 -286.5 c 128,-1,11
 533 -225 533 -225 588.5 -127.5 c 128,-1,12
 644 -30 644 -30 697 107 c 2,13,-1
 1031 984 l 1,14,-1
 873 984 l 1,15,-1
 569 133 l 1,16,-1
 504 330 l 1,17,-1
 254 984 l 1,18,-1
 88 984 l 1,19,-1
 483 -5 l 1,20,21
 448 -83 448 -83 413 -135 c 0,0,1
EndSplineSet
Substitution2: "<10,1> Superiors in Latin lookup 5 subtable" uni02B8
EndChar

StartChar: z
Encoding: 122 122 93
Width: 1126
Flags: W
LayerCount: 2
Fore
SplineSet
179 20 m 1,0,-1
 958 20 l 1,1,-1
 958 137 l 1,2,-1
 353 137 l 1,3,-1
 925 870 l 1,4,-1
 925 984 l 1,5,-1
 193 984 l 1,6,-1
 193 868 l 1,7,-1
 761 868 l 1,8,-1
 179 123 l 1,9,-1
 179 20 l 1,0,-1
EndSplineSet
Substitution2: "<10,1> Superiors in Latin lookup 5 subtable" uni1DBB
EndChar

StartChar: braceleft
Encoding: 123 123 94
Width: 1126
Flags: W
LayerCount: 2
Fore
SplineSet
547 -388 m 2,0,1
 465 -388 465 -388 424 -342 c 0,2,3
 383 -297 383 -297 383 -228 c 2,4,-1
 383 -15 l 2,5,6
 383 40 383 40 394 76 c 0,7,8
 405 115 405 115 420.5 146.5 c 128,-1,9
 436 178 436 178 456 202 c 0,10,11
 475 226 475 226 493 248 c 0,12,13
 526 287 526 287 538.5 315 c 128,-1,14
 551 343 551 343 551 375 c 0,15,16
 551 449 551 449 483 483 c 256,17,18
 415 517 415 517 282 517 c 2,19,-1
 130 517 l 1,20,-1
 130 638 l 1,21,-1
 282 638 l 2,22,23
 414 638 414 638 483 672 c 0,24,25
 551 706 551 706 551 780 c 0,26,27
 551 811 551 811 538 840 c 0,28,29
 526 868 526 868 493 907 c 0,30,31
 475 928 475 928 456 953 c 0,32,33
 436 977 436 977 420 1007 c 0,34,35
 416 1016 416 1016 394 1078 c 0,36,37
 383 1107 383 1107 383 1170 c 2,38,-1
 383 1293 l 2,39,40
 383 1362 383 1362 424 1407 c 0,41,42
 465 1453 465 1453 547 1453 c 2,43,-1
 890 1453 l 1,44,-1
 890 1332 l 1,45,-1
 518 1332 l 1,46,-1
 518 1182 l 2,47,48
 518 1102 518 1102 541.5 1059 c 128,-1,49
 565 1016 565 1016 596 975 c 0,50,51
 629 932 629 932 658.5 886.5 c 128,-1,52
 688 841 688 841 688 778 c 0,53,54
 688 696 688 696 630 646 c 0,55,56
 573 595 573 595 473 581 c 1,57,-1
 473 573 l 1,58,59
 573 560 573 560 630 509 c 0,60,61
 688 458 688 458 688 376 c 0,62,63
 688 314 688 314 658 268 c 0,64,65
 629 222 629 222 596 180 c 0,66,67
 565 139 565 139 541 96 c 0,68,69
 518 53 518 53 518 -27 c 2,70,-1
 518 -267 l 1,71,-1
 890 -267 l 1,72,-1
 890 -388 l 1,73,-1
 547 -388 l 2,0,1
EndSplineSet
Substitution2: "'rtla' Right to Left Alternates in Greek lookup 0 subtable" braceright
EndChar

StartChar: bar
Encoding: 124 124 95
Width: 1126
Flags: W
LayerCount: 2
Fore
SplineSet
496 1638 m 1,0,-1
 496 -410 l 1,1,-1
 630 -410 l 1,2,-1
 630 1638 l 1,3,-1
 496 1638 l 1,0,-1
EndSplineSet
EndChar

StartChar: braceright
Encoding: 125 125 96
Width: 1126
Flags: W
LayerCount: 2
Fore
SplineSet
583 -388 m 2,0,1
 665 -388 665 -388 706 -342 c 0,2,3
 747 -297 747 -297 747 -228 c 2,4,-1
 747 -15 l 2,5,6
 747 40 747 40 736 76 c 0,7,8
 725 115 725 115 709.5 146.5 c 128,-1,9
 694 178 694 178 674 202 c 0,10,11
 655 226 655 226 637 248 c 0,12,13
 604 287 604 287 591.5 315 c 128,-1,14
 579 343 579 343 579 375 c 0,15,16
 579 449 579 449 647 483 c 256,17,18
 715 517 715 517 848 517 c 2,19,-1
 1000 517 l 1,20,-1
 1000 638 l 1,21,-1
 848 638 l 2,22,23
 716 638 716 638 647 672 c 0,24,25
 579 706 579 706 579 780 c 0,26,27
 579 811 579 811 592 840 c 0,28,29
 604 868 604 868 637 907 c 0,30,31
 655 928 655 928 674 953 c 0,32,33
 694 977 694 977 710 1007 c 0,34,35
 714 1016 714 1016 736 1078 c 0,36,37
 747 1107 747 1107 747 1170 c 2,38,-1
 747 1293 l 2,39,40
 747 1362 747 1362 706 1407 c 0,41,42
 665 1453 665 1453 583 1453 c 2,43,-1
 240 1453 l 1,44,-1
 240 1332 l 1,45,-1
 612 1332 l 1,46,-1
 612 1182 l 2,47,48
 612 1102 612 1102 588.5 1059 c 128,-1,49
 565 1016 565 1016 534 975 c 0,50,51
 501 932 501 932 471.5 886.5 c 128,-1,52
 442 841 442 841 442 778 c 0,53,54
 442 696 442 696 500 646 c 0,55,56
 557 595 557 595 657 581 c 1,57,-1
 657 573 l 1,58,59
 557 560 557 560 500 509 c 0,60,61
 442 458 442 458 442 376 c 0,62,63
 442 314 442 314 472 268 c 0,64,65
 501 222 501 222 534 180 c 0,66,67
 565 139 565 139 589 96 c 0,68,69
 612 53 612 53 612 -27 c 2,70,-1
 612 -267 l 1,71,-1
 240 -267 l 1,72,-1
 240 -388 l 1,73,-1
 583 -388 l 2,0,1
EndSplineSet
Substitution2: "'rtla' Right to Left Alternates in Greek lookup 0 subtable" braceleft
EndChar

StartChar: asciitilde
Encoding: 126 126 97
Width: 1126
Flags: W
LayerCount: 2
Fore
SplineSet
342 611 m 0,0,1
 380 611 380 611 412.5 591 c 128,-1,2
 445 571 445 571 476.5 542.5 c 128,-1,3
 508 514 508 514 539 480 c 0,4,5
 608 409 608 409 685 377 c 0,6,7
 726 359 726 359 778 359 c 0,8,9
 846 359 846 359 896 384 c 128,-1,10
 946 409 946 409 980 453 c 128,-1,11
 1014 497 1014 497 1029.5 556 c 128,-1,12
 1045 615 1045 615 1046 681 c 1,13,-1
 916 681 l 1,14,15
 914 586 914 586 887 540 c 0,16,17
 856 487 856 487 784 487 c 0,18,19
 746 487 746 487 713.5 507 c 128,-1,20
 681 527 681 527 649.5 555.5 c 128,-1,21
 618 584 618 584 587 618 c 0,22,23
 518 689 518 689 441 721 c 0,24,25
 400 739 400 739 348 739 c 0,26,27
 280 739 280 739 230 714 c 128,-1,28
 180 689 180 689 146.5 644.5 c 128,-1,29
 113 600 113 600 97 540.5 c 128,-1,30
 81 481 81 481 81 416 c 1,31,-1
 211 416 l 1,32,33
 213 510 213 510 242 557 c 0,34,35
 274 611 274 611 342 611 c 0,0,1
EndSplineSet
EndChar

StartChar: exclamdown
Encoding: 161 161 98
Width: 1126
Flags: W
LayerCount: 2
Fore
SplineSet
626 606 m 1,0,-1
 502 606 l 1,1,-1
 476 -395 l 1,2,-1
 657 -395 l 1,3,-1
 626 606 l 1,0,-1
565.5 773 m 128,-1,5
 590 773 590 773 611 782 c 128,-1,6
 632 791 632 791 648.5 807.5 c 128,-1,7
 665 824 665 824 674 845 c 128,-1,8
 683 866 683 866 683 890.5 c 128,-1,9
 683 915 683 915 673 936 c 0,10,11
 655 978 655 978 611 997 c 0,12,13
 590 1007 590 1007 565.5 1007 c 128,-1,14
 541 1007 541 1007 520.5 998 c 128,-1,15
 500 989 500 989 483.5 973 c 128,-1,16
 467 957 467 957 458 936 c 128,-1,17
 449 915 449 915 449 890.5 c 128,-1,18
 449 866 449 866 458 845 c 128,-1,19
 467 824 467 824 483.5 807.5 c 128,-1,20
 500 791 500 791 520.5 782 c 128,-1,4
 541 773 541 773 565.5 773 c 128,-1,5
EndSplineSet
EndChar

StartChar: cent
Encoding: 162 162 99
Width: 1126
Flags: W
LayerCount: 2
Fore
SplineSet
641 302 m 2,0,-1
 624 302 l 1,1,-1
 722 1028 l 1,2,3
 782 1017 782 1017 820.5 1004.5 c 128,-1,4
 859 992 859 992 892 978 c 1,5,-1
 892 1107 l 1,6,7
 810 1134 810 1134 737 1142 c 1,8,-1
 782 1480 l 1,9,-1
 664 1480 l 1,10,-1
 621 1148 l 1,11,-1
 608 1148 l 1,12,13
 504 1144 504 1144 418 1108 c 128,-1,14
 332 1072 332 1072 270 1008 c 128,-1,15
 208 944 208 944 174 855 c 128,-1,16
 140 766 140 766 140 657 c 0,17,18
 140 460 140 460 227.5 345.5 c 128,-1,19
 315 231 315 231 480 197 c 2,20,-1
 494 194 l 1,21,-1
 437 -235 l 1,22,-1
 552 -235 l 1,23,-1
 610 185 l 1,24,-1
 614 185 l 1,25,-1
 623 185 l 2,26,27
 765 185 765 185 892 230 c 1,28,-1
 892 353 l 1,29,30
 776 302 776 302 641 302 c 2,0,-1
292 666 m 0,31,32
 292 745 292 745 314.5 808.5 c 128,-1,33
 337 872 337 872 377 918.5 c 128,-1,34
 417 965 417 965 470.5 993 c 128,-1,35
 524 1021 524 1021 586 1029 c 2,36,-1
 606 1032 l 1,37,-1
 510 317 l 1,38,-1
 493 324 l 2,39,40
 397 360 397 360 344.5 445.5 c 128,-1,41
 292 531 292 531 292 666 c 0,31,32
EndSplineSet
EndChar

StartChar: sterling
Encoding: 163 163 100
Width: 1126
Flags: W
LayerCount: 2
Fore
SplineSet
982 133 m 1,0,-1
 415 133 l 1,1,-1
 415 594 l 1,2,-1
 851 594 l 1,3,-1
 851 707 l 1,4,-1
 415 707 l 1,5,-1
 415 916 l 2,6,7
 415 1046 415 1046 484 1120 c 0,8,9
 517 1156 517 1156 564 1174 c 128,-1,10
 611 1192 611 1192 668 1192 c 0,11,12
 749 1192 749 1192 808 1167 c 0,13,14
 838 1154 838 1154 862 1138 c 128,-1,15
 886 1122 886 1122 907 1105 c 1,16,-1
 985 1194 l 1,17,18
 930 1241 930 1241 852.5 1275.5 c 128,-1,19
 775 1310 775 1310 676.5 1310 c 128,-1,20
 578 1310 578 1310 503 1282 c 0,21,22
 352 1227 352 1227 296 1076 c 0,23,24
 267 1000 267 1000 267 902 c 2,25,-1
 267 707 l 1,26,-1
 107 707 l 1,27,-1
 107 594 l 1,28,-1
 267 594 l 1,29,-1
 267 133 l 1,30,-1
 107 133 l 1,31,-1
 107 15 l 1,32,-1
 982 15 l 1,33,-1
 982 133 l 1,0,-1
EndSplineSet
EndChar

StartChar: currency
Encoding: 164 164 101
Width: 1126
Flags: W
LayerCount: 2
Fore
SplineSet
925 672 m 0,0,1
 925 752 925 752 906 818.5 c 128,-1,2
 887 885 887 885 854 933 c 2,3,-1
 848 942 l 1,4,-1
 1018 1167 l 1,5,-1
 896 1241 l 1,6,-1
 756 1021 l 1,7,-1
 744 1027 l 2,8,9
 670 1062 670 1062 569 1062 c 128,-1,10
 468 1062 468 1062 394 1019 c 0,11,12
 388 1016 388 1016 382 1013 c 1,13,-1
 235 1241 l 1,14,-1
 108 1167 l 1,15,-1
 286 928 l 1,16,-1
 280 919 l 1,17,18
 201 810 201 810 201 651 c 0,19,20
 201 571 201 571 220 504.5 c 128,-1,21
 239 438 239 438 272 390 c 2,22,-1
 278 381 l 1,23,-1
 108 156 l 1,24,-1
 231 82 l 1,25,-1
 371 302 l 1,26,-1
 383 296 l 2,27,28
 455 261 455 261 556.5 261 c 128,-1,29
 658 261 658 261 732 304 c 0,30,31
 738 307 738 307 744 310 c 1,32,-1
 892 82 l 1,33,-1
 1018 156 l 1,34,-1
 840 395 l 1,35,-1
 846 404 l 1,36,37
 925 515 925 515 925 672 c 0,0,1
775 662 m 0,38,39
 775 614 775 614 763.5 565 c 128,-1,40
 752 516 752 516 726.5 476 c 128,-1,41
 701 436 701 436 660 410 c 128,-1,42
 619 384 619 384 563 384 c 0,43,44
 465 384 465 384 408 454.5 c 128,-1,45
 351 525 351 525 351 662 c 0,46,47
 351 710 351 710 362.5 759 c 128,-1,48
 374 808 374 808 400 848 c 128,-1,49
 426 888 426 888 466.5 913.5 c 128,-1,50
 507 939 507 939 563 939 c 0,51,52
 661 939 661 939 718 869 c 128,-1,53
 775 799 775 799 775 662 c 0,38,39
EndSplineSet
EndChar

StartChar: yen
Encoding: 165 165 102
Width: 1126
Flags: W
LayerCount: 2
Fore
SplineSet
946 453 m 1,0,-1
 946 558 l 1,1,-1
 638 558 l 1,2,-1
 638 606 l 1,3,-1
 1050 1292 l 1,4,-1
 890 1292 l 1,5,-1
 689 937 l 1,6,-1
 569 721 l 1,7,-1
 456 933 l 1,8,-1
 251 1292 l 1,9,-1
 82 1292 l 1,10,-1
 488 606 l 1,11,-1
 488 558 l 1,12,-1
 179 558 l 1,13,-1
 179 453 l 1,14,-1
 488 453 l 1,15,-1
 488 261 l 1,16,-1
 181 261 l 1,17,-1
 181 156 l 1,18,-1
 488 156 l 1,19,-1
 488 15 l 1,20,-1
 638 15 l 1,21,-1
 638 156 l 1,22,-1
 946 156 l 1,23,-1
 946 261 l 1,24,-1
 638 261 l 1,25,-1
 638 453 l 1,26,-1
 946 453 l 1,0,-1
EndSplineSet
EndChar

StartChar: brokenbar
Encoding: 166 166 103
Width: 1126
Flags: W
LayerCount: 2
Fore
SplineSet
496 411 m 1,0,-1
 496 -395 l 1,1,-1
 630 -395 l 1,2,-1
 630 411 l 1,3,-1
 496 411 l 1,0,-1
630 1623 m 1,4,-1
 496 1623 l 1,5,-1
 496 842 l 1,6,-1
 630 842 l 1,7,-1
 630 1623 l 1,4,-1
EndSplineSet
EndChar

StartChar: section
Encoding: 167 167 104
Width: 1126
Flags: W
LayerCount: 2
Fore
SplineSet
473 -218 m 0,0,1
 542 -218 542 -218 614.5 -200.5 c 128,-1,2
 687 -183 687 -183 745.5 -146 c 128,-1,3
 804 -109 804 -109 841 -53 c 128,-1,4
 878 3 878 3 878 82 c 0,5,6
 878 126 878 126 856.5 164 c 128,-1,7
 835 202 835 202 806 226 c 2,8,-1
 790 239 l 1,9,-1
 807 251 l 1,10,11
 848 275 848 275 879.5 306.5 c 128,-1,12
 911 338 911 338 933 375 c 0,13,14
 976 446 976 446 976 524 c 0,15,16
 976 587 976 587 953 637.5 c 128,-1,17
 930 688 930 688 891 732 c 128,-1,18
 852 776 852 776 801.5 812.5 c 128,-1,19
 751 849 751 849 698 881 c 128,-1,20
 645 913 645 913 594 942.5 c 128,-1,21
 543 972 543 972 502 1001.5 c 128,-1,22
 461 1031 461 1031 434 1063 c 128,-1,23
 407 1095 407 1095 407 1132.5 c 128,-1,24
 407 1170 407 1170 419 1200 c 0,25,26
 446 1262 446 1262 539 1286 c 0,27,28
 584 1297 584 1297 651 1297 c 0,29,30
 759 1297 759 1297 866 1270 c 1,31,-1
 866 1389 l 1,32,33
 762 1410 762 1410 650 1410 c 128,-1,34
 538 1410 538 1410 460.5 1381 c 128,-1,35
 383 1352 383 1352 338.5 1309 c 128,-1,36
 294 1266 294 1266 275.5 1215.5 c 128,-1,37
 257 1165 257 1165 257 1117.5 c 128,-1,38
 257 1070 257 1070 278.5 1032.5 c 128,-1,39
 300 995 300 995 326 973 c 2,40,-1
 342 960 l 1,41,-1
 325 948 l 1,42,43
 282 923 282 923 250.5 891 c 128,-1,44
 219 859 219 859 198 823 c 0,45,46
 156 752 156 752 156 674 c 0,47,48
 156 612 156 612 179 562 c 128,-1,49
 202 512 202 512 241.5 468.5 c 128,-1,50
 281 425 281 425 331.5 388.5 c 128,-1,51
 382 352 382 352 435.5 320 c 128,-1,52
 489 288 489 288 540 258.5 c 128,-1,53
 591 229 591 229 632.5 200.5 c 128,-1,54
 674 172 674 172 701 140.5 c 128,-1,55
 728 109 728 109 728 70 c 0,56,57
 728 -11 728 -11 662.5 -56 c 128,-1,58
 597 -101 597 -101 467 -101 c 0,59,60
 378 -101 378 -101 317 -90.5 c 128,-1,61
 256 -80 256 -80 189 -60 c 1,62,-1
 189 -187 l 1,63,64
 254 -203 254 -203 309 -210 c 0,65,66
 378 -218 378 -218 473 -218 c 0,0,1
296 690 m 0,67,68
 296 739 296 739 330 794 c 0,69,70
 346 820 346 820 370.5 843.5 c 128,-1,71
 395 867 395 867 428 883 c 1,72,-1
 435 888 l 1,73,74
 504 841 504 841 572.5 802 c 128,-1,75
 641 763 641 763 699.5 721 c 128,-1,76
 758 679 758 679 797 627.5 c 128,-1,77
 836 576 836 576 836 510 c 0,78,79
 836 486 836 486 828 459 c 0,80,81
 809 403 809 403 760 354 c 0,82,83
 736 331 736 331 702 314 c 2,84,85
 702 314 702 314 694 311 c 1,86,87
 624 356 624 356 555.5 395.5 c 128,-1,88
 487 435 487 435 429.5 478 c 128,-1,89
 372 521 372 521 334 572.5 c 128,-1,90
 296 624 296 624 296 690 c 0,67,68
EndSplineSet
EndChar

StartChar: dieresis
Encoding: 168 168 105
Width: 1126
Flags: W
LayerCount: 2
Fore
SplineSet
348 1390 m 128,-1,1
 328 1390 328 1390 311 1382 c 0,2,3
 275 1366 275 1366 259 1329 c 0,4,5
 251 1312 251 1312 251 1292 c 128,-1,6
 251 1272 251 1272 258.5 1254.5 c 128,-1,7
 266 1237 266 1237 279.5 1223.5 c 128,-1,8
 293 1210 293 1210 310.5 1202.5 c 128,-1,9
 328 1195 328 1195 348 1195 c 128,-1,10
 368 1195 368 1195 385.5 1202.5 c 128,-1,11
 403 1210 403 1210 417 1223.5 c 128,-1,12
 431 1237 431 1237 438.5 1254.5 c 128,-1,13
 446 1272 446 1272 446 1292 c 128,-1,14
 446 1312 446 1312 438.5 1329.5 c 128,-1,15
 431 1347 431 1347 417 1361 c 128,-1,16
 403 1375 403 1375 385.5 1382.5 c 128,-1,0
 368 1390 368 1390 348 1390 c 128,-1,1
778 1390 m 128,-1,18
 758 1390 758 1390 741 1382 c 0,19,20
 705 1366 705 1366 689 1329 c 0,21,22
 681 1312 681 1312 681 1292 c 128,-1,23
 681 1272 681 1272 688.5 1254.5 c 128,-1,24
 696 1237 696 1237 709.5 1223.5 c 128,-1,25
 723 1210 723 1210 740.5 1202.5 c 128,-1,26
 758 1195 758 1195 778 1195 c 128,-1,27
 798 1195 798 1195 815.5 1202.5 c 128,-1,28
 833 1210 833 1210 847 1223.5 c 128,-1,29
 861 1237 861 1237 868.5 1254.5 c 128,-1,30
 876 1272 876 1272 876 1292 c 128,-1,31
 876 1312 876 1312 868.5 1329.5 c 128,-1,32
 861 1347 861 1347 847 1361 c 128,-1,33
 833 1375 833 1375 815.5 1382.5 c 128,-1,17
 798 1390 798 1390 778 1390 c 128,-1,18
0 1004 m 1024,34,-1
EndSplineSet
EndChar

StartChar: copyright
Encoding: 169 169 106
Width: 1126
Flags: W
LayerCount: 2
Fore
SplineSet
567 1308 m 128,-1,1
 443 1308 443 1308 344.5 1260 c 128,-1,2
 246 1212 246 1212 175 1126 c 128,-1,3
 104 1040 104 1040 65.5 919 c 128,-1,4
 27 798 27 798 27 656.5 c 128,-1,5
 27 515 27 515 64 394.5 c 128,-1,6
 101 274 101 274 169 186.5 c 128,-1,7
 237 99 237 99 336 49 c 128,-1,8
 435 -1 435 -1 558.5 -1 c 128,-1,9
 682 -1 682 -1 781 46.5 c 128,-1,10
 880 94 880 94 951 180 c 128,-1,11
 1022 266 1022 266 1060.5 387 c 128,-1,12
 1099 508 1099 508 1099 649.5 c 128,-1,13
 1099 791 1099 791 1062 911.5 c 128,-1,14
 1025 1032 1025 1032 956.5 1120 c 128,-1,15
 888 1208 888 1208 789.5 1258 c 128,-1,0
 691 1308 691 1308 567 1308 c 128,-1,1
564.5 1207 m 128,-1,17
 659 1207 659 1207 737 1164 c 128,-1,18
 815 1121 815 1121 869.5 1045.5 c 128,-1,19
 924 970 924 970 952.5 869.5 c 128,-1,20
 981 769 981 769 981 649 c 128,-1,21
 981 529 981 529 952 427.5 c 128,-1,22
 923 326 923 326 868 253 c 128,-1,23
 813 180 813 180 735 140 c 128,-1,24
 657 100 657 100 562 100 c 128,-1,25
 467 100 467 100 389.5 142.5 c 128,-1,26
 312 185 312 185 257.5 260.5 c 128,-1,27
 203 336 203 336 174 436.5 c 128,-1,28
 145 537 145 537 145 657 c 128,-1,29
 145 777 145 777 174.5 879 c 128,-1,30
 204 981 204 981 259 1054 c 128,-1,31
 314 1127 314 1127 392 1167 c 128,-1,16
 470 1207 470 1207 564.5 1207 c 128,-1,17
628 430 m 0,32,33
 626 430 626 430 625 430 c 0,34,35
 534 430 534 430 485 484 c 128,-1,36
 436 538 436 538 436 648 c 128,-1,37
 436 758 436 758 485 817 c 128,-1,38
 534 876 534 876 623 876 c 0,39,40
 690 876 690 876 755 846 c 1,41,-1
 755 946 l 1,42,43
 686 972 686 972 602 972 c 0,44,45
 536 972 536 972 483 949.5 c 128,-1,46
 430 927 430 927 392.5 884.5 c 128,-1,47
 355 842 355 842 334.5 782 c 128,-1,48
 314 722 314 722 314 647 c 0,49,50
 314 506 314 506 370 429 c 0,51,52
 439 334 439 334 596 334 c 0,53,54
 679 334 679 334 755 362 c 1,55,-1
 755 458 l 1,56,57
 657 430 657 430 628 430 c 0,32,33
EndSplineSet
EndChar

StartChar: ordfeminine
Encoding: 170 170 107
Width: 1126
Flags: W
LayerCount: 2
Fore
SplineSet
886 373 m 1,0,-1
 886 479 l 1,1,-1
 240 479 l 1,2,-1
 240 373 l 1,3,-1
 886 373 l 1,0,-1
422 1195 m 128,-1,5
 479 1208 479 1208 530 1208 c 0,6,7
 619 1208 619 1208 658 1173.5 c 128,-1,8
 697 1139 697 1139 697 1083 c 2,9,-1
 697 1021 l 1,10,-1
 578 1021 l 2,11,12
 415 1021 415 1021 337 965.5 c 128,-1,13
 259 910 259 910 259 821 c 0,14,15
 259 725 259 725 312.5 678 c 128,-1,16
 366 631 366 631 459 631 c 0,17,18
 534 631 534 631 587.5 659 c 128,-1,19
 641 687 641 687 685 733 c 2,20,-1
 707 755 l 1,21,-1
 720 646 l 1,22,-1
 825 646 l 1,23,-1
 825 1088 l 2,24,25
 825 1189 825 1189 762 1242 c 0,26,27
 694 1301 694 1301 549 1301 c 0,28,29
 481 1301 481 1301 419.5 1290.5 c 128,-1,30
 358 1280 358 1280 312 1263 c 1,31,-1
 312 1163 l 1,32,4
 365 1182 365 1182 422 1195 c 128,-1,5
436 909 m 0,33,34
 479 943 479 943 563 943 c 2,35,-1
 697 943 l 1,36,-1
 697 821 l 1,37,38
 643 772 643 772 596 748 c 128,-1,39
 549 724 549 724 506 724 c 0,40,41
 452 724 452 724 423.5 750.5 c 128,-1,42
 395 777 395 777 395 825 c 0,43,44
 395 877 395 877 436 909 c 0,33,34
EndSplineSet
EndChar

StartChar: guillemotleft
Encoding: 171 171 108
Width: 1126
Flags: W
LayerCount: 2
Fore
SplineSet
407 157 m 1,0,-1
 518 213 l 1,1,-1
 303 543 l 1,2,-1
 517 871 l 1,3,-1
 407 927 l 1,4,-1
 161 543 l 1,5,-1
 407 157 l 1,0,-1
843 163 m 1,6,-1
 949 220 l 1,7,-1
 719 543 l 1,8,-1
 949 865 l 1,9,-1
 843 922 l 1,10,-1
 581 543 l 1,11,-1
 843 163 l 1,6,-1
EndSplineSet
EndChar

StartChar: logicalnot
Encoding: 172 172 109
Width: 1126
Flags: W
LayerCount: 2
Fore
SplineSet
132 484 m 1,0,-1
 816 484 l 1,1,-1
 816 189 l 1,2,-1
 956 189 l 1,3,-1
 956 606 l 1,4,-1
 132 606 l 1,5,-1
 132 484 l 1,0,-1
EndSplineSet
EndChar

StartChar: registered
Encoding: 174 174 110
Width: 1126
Flags: W
LayerCount: 2
Fore
SplineSet
412 724 m 1,0,-1
 483 724 l 1,1,-1
 483 939 l 1,2,-1
 518 939 l 2,3,4
 577 939 577 939 604 883 c 2,5,-1
 674 724 l 1,6,-1
 756 724 l 1,7,-1
 684 877 l 2,8,9
 669 908 669 908 655 923 c 0,10,11
 642 937 642 937 627 941 c 2,12,-1
 561 961 l 1,13,-1
 628 971 l 2,14,15
 673 978 673 978 701.5 1006 c 128,-1,16
 730 1034 730 1034 730 1085 c 0,17,18
 730 1156 730 1156 685 1184 c 0,19,20
 637 1214 637 1214 553 1214 c 2,21,-1
 412 1214 l 1,22,-1
 412 724 l 1,0,-1
543 1162 m 2,23,24
 597 1162 597 1162 626.5 1141.5 c 128,-1,25
 656 1121 656 1121 656 1075.5 c 128,-1,26
 656 1030 656 1030 623 1008 c 128,-1,27
 590 986 590 986 539 986 c 2,28,-1
 483 986 l 1,29,-1
 483 1162 l 1,30,-1
 543 1162 l 2,23,24
563.5 1338 m 128,-1,32
 638 1338 638 1338 703 1308.5 c 128,-1,33
 768 1279 768 1279 816.5 1229.5 c 128,-1,34
 865 1180 865 1180 892.5 1112.5 c 128,-1,35
 920 1045 920 1045 920 968.5 c 128,-1,36
 920 892 920 892 892.5 824.5 c 128,-1,37
 865 757 865 757 816.5 707.5 c 128,-1,38
 768 658 768 658 703 628.5 c 128,-1,39
 638 599 638 599 563.5 599 c 128,-1,40
 489 599 489 599 423.5 628.5 c 128,-1,41
 358 658 358 658 309.5 707.5 c 128,-1,42
 261 757 261 757 233.5 824.5 c 128,-1,43
 206 892 206 892 206 968.5 c 128,-1,44
 206 1045 206 1045 233.5 1112.5 c 128,-1,45
 261 1180 261 1180 309.5 1229.5 c 128,-1,46
 358 1279 358 1279 423.5 1308.5 c 128,-1,31
 489 1338 489 1338 563.5 1338 c 128,-1,32
562.5 1410 m 128,-1,48
 471 1410 471 1410 391 1375.5 c 128,-1,49
 311 1341 311 1341 250.5 1281 c 128,-1,50
 190 1221 190 1221 155.5 1140.5 c 128,-1,51
 121 1060 121 1060 121 968.5 c 128,-1,52
 121 877 121 877 155.5 797 c 128,-1,53
 190 717 190 717 250.5 656.5 c 128,-1,54
 311 596 311 596 391 561.5 c 128,-1,55
 471 527 471 527 562.5 527 c 128,-1,56
 654 527 654 527 734.5 561.5 c 128,-1,57
 815 596 815 596 875.5 656.5 c 128,-1,58
 936 717 936 717 970.5 797 c 128,-1,59
 1005 877 1005 877 1005 968.5 c 128,-1,60
 1005 1060 1005 1060 970.5 1140.5 c 128,-1,61
 936 1221 936 1221 875.5 1281 c 128,-1,62
 815 1341 815 1341 734.5 1375.5 c 128,-1,47
 654 1410 654 1410 562.5 1410 c 128,-1,48
EndSplineSet
EndChar

StartChar: macron
Encoding: 175 175 111
AltUni2: 0002c9.ffffffff.0
Width: 1126
Flags: W
LayerCount: 2
Fore
SplineSet
291 1215 m 1,0,-1
 291 1368 l 1,1,-1
 835 1368 l 1,2,-1
 835 1215 l 1,3,-1
 291 1215 l 1,0,-1
0 1004 m 1024,4,-1
EndSplineSet
EndChar

StartChar: degree
Encoding: 176 176 112
Width: 1126
Flags: W
LayerCount: 2
Fore
SplineSet
898 1096.5 m 128,-1,1
 898 1166 898 1166 876.5 1223.5 c 128,-1,2
 855 1281 855 1281 813.5 1322.5 c 128,-1,3
 772 1364 772 1364 710.5 1387 c 128,-1,4
 649 1410 649 1410 571 1410 c 128,-1,5
 493 1410 493 1410 430.5 1384.5 c 128,-1,6
 368 1359 368 1359 322.5 1315 c 128,-1,7
 277 1271 277 1271 252.5 1211.5 c 128,-1,8
 228 1152 228 1152 228 1082.5 c 128,-1,9
 228 1013 228 1013 249.5 955.5 c 128,-1,10
 271 898 271 898 313 856.5 c 128,-1,11
 355 815 355 815 416 792 c 128,-1,12
 477 769 477 769 555 769 c 128,-1,13
 633 769 633 769 695.5 794.5 c 128,-1,14
 758 820 758 820 803.5 864 c 128,-1,15
 849 908 849 908 873.5 967.5 c 128,-1,0
 898 1027 898 1027 898 1096.5 c 128,-1,1
563 874 m 0,16,17
 461 874 461 874 407 937 c 0,18,19
 360 992 360 992 360 1090 c 0,20,21
 360 1138 360 1138 373 1177 c 0,22,23
 401 1258 401 1258 477 1290 c 0,24,25
 515 1305 515 1305 565.5 1305 c 128,-1,26
 616 1305 616 1305 654.5 1288.5 c 128,-1,27
 693 1272 693 1272 718 1243 c 0,28,29
 766 1185 766 1185 766 1089 c 128,-1,30
 766 993 766 993 712.5 933.5 c 128,-1,31
 659 874 659 874 563 874 c 0,16,17
EndSplineSet
EndChar

StartChar: plusminus
Encoding: 177 177 113
Width: 1126
Flags: W
LayerCount: 2
Fore
SplineSet
494 310 m 1,0,-1
 632 310 l 1,1,-1
 632 699 l 1,2,-1
 1007 699 l 1,3,-1
 1007 816 l 1,4,-1
 632 816 l 1,5,-1
 632 1204 l 1,6,-1
 494 1204 l 1,7,-1
 494 816 l 1,8,-1
 119 816 l 1,9,-1
 119 699 l 1,10,-1
 494 699 l 1,11,-1
 494 310 l 1,0,-1
148 130 m 1,12,-1
 148 15 l 1,13,-1
 978 15 l 1,14,-1
 978 130 l 1,15,-1
 148 130 l 1,12,-1
EndSplineSet
EndChar

StartChar: acute
Encoding: 180 180 116
Width: 1126
Flags: W
LayerCount: 2
Fore
SplineSet
495 1186 m 1,0,-1
 628 1186 l 1,1,-1
 907 1398 l 1,2,-1
 706 1398 l 1,3,-1
 495 1186 l 1,0,-1
0 1004 m 1024,4,-1
EndSplineSet
EndChar

StartChar: paragraph
Encoding: 182 182 118
Width: 1126
Flags: W
LayerCount: 2
Fore
SplineSet
569 -218 m 128,-1,1
 665 -218 665 -218 742 -190 c 0,2,3
 897 -133 897 -133 953 23 c 0,4,5
 982 103 982 103 982 205 c 2,6,-1
 982 1398 l 1,7,-1
 651 1398 l 2,8,9
 514 1398 514 1398 414 1366.5 c 128,-1,10
 314 1335 314 1335 250 1280 c 128,-1,11
 186 1225 186 1225 155 1152 c 128,-1,12
 124 1079 124 1079 124 995 c 128,-1,13
 124 911 124 911 150 836.5 c 128,-1,14
 176 762 176 762 237.5 706.5 c 128,-1,15
 299 651 299 651 398 619.5 c 128,-1,16
 497 588 497 588 640 586 c 1,17,-1
 640 1285 l 1,18,-1
 838 1285 l 1,19,-1
 838 199 l 2,20,21
 838 52 838 52 768 -23.5 c 128,-1,22
 698 -99 698 -99 578 -99 c 0,23,24
 502 -99 502 -99 435 -71 c 128,-1,25
 368 -43 368 -43 318 -2 c 1,26,-1
 246 -108 l 1,27,28
 312 -158 312 -158 392.5 -188 c 128,-1,0
 473 -218 473 -218 569 -218 c 128,-1,1
EndSplineSet
EndChar

StartChar: periodcentered
Encoding: 183 183 119
AltUni2: 002219.ffffffff.0
Width: 1126
Flags: W
LayerCount: 2
Fore
SplineSet
739 565 m 128,-1,1
 739 529 739 529 725 497 c 128,-1,2
 711 465 711 465 687.5 441.5 c 128,-1,3
 664 418 664 418 631.5 403.5 c 128,-1,4
 599 389 599 389 562.5 389 c 128,-1,5
 526 389 526 389 494 403.5 c 128,-1,6
 462 418 462 418 438.5 441.5 c 128,-1,7
 415 465 415 465 401 497 c 128,-1,8
 387 529 387 529 387 565 c 128,-1,9
 387 601 387 601 401 634 c 128,-1,10
 415 667 415 667 438.5 690.5 c 128,-1,11
 462 714 462 714 494 728.5 c 128,-1,12
 526 743 526 743 562.5 743 c 128,-1,13
 599 743 599 743 631.5 728.5 c 128,-1,14
 664 714 664 714 687.5 690.5 c 128,-1,15
 711 667 711 667 725 634 c 128,-1,0
 739 601 739 601 739 565 c 128,-1,1
EndSplineSet
EndChar

StartChar: cedilla
Encoding: 184 184 120
Width: 1126
Flags: W
LayerCount: 2
Fore
SplineSet
454 -280 m 1,0,-1
 576 -280 l 1,1,-1
 654 -15 l 1,2,-1
 514 -15 l 1,3,-1
 454 -280 l 1,0,-1
EndSplineSet
EndChar

StartChar: ordmasculine
Encoding: 186 186 122
Width: 1126
Flags: W
LayerCount: 2
Fore
SplineSet
886 373 m 1,0,-1
 886 479 l 1,1,-1
 240 479 l 1,2,-1
 240 373 l 1,3,-1
 886 373 l 1,0,-1
867.5 840 m 128,-1,5
 890 903 890 903 890 980 c 128,-1,6
 890 1057 890 1057 868 1119 c 0,7,8
 824 1243 824 1243 707 1285 c 0,9,10
 648 1306 648 1306 570.5 1306 c 128,-1,11
 493 1306 493 1306 430.5 1280.5 c 128,-1,12
 368 1255 368 1255 325 1209 c 128,-1,13
 282 1163 282 1163 259 1100.5 c 128,-1,14
 236 1038 236 1038 236 965 c 0,15,16
 236 881 236 881 258 818 c 0,17,18
 301 695 301 695 422 652 c 0,19,20
 482 631 482 631 559 631 c 128,-1,21
 636 631 636 631 697.5 657.5 c 128,-1,22
 759 684 759 684 802 730.5 c 128,-1,4
 845 777 845 777 867.5 840 c 128,-1,5
706.5 1138 m 128,-1,24
 756 1081 756 1081 756 968 c 0,25,26
 756 866 756 866 708 804 c 0,27,28
 684 773 684 773 647.5 755 c 128,-1,29
 611 737 611 737 563 737 c 0,30,31
 476 737 476 737 423 795 c 128,-1,32
 370 853 370 853 370 966 c 0,33,34
 370 1012 370 1012 381.5 1053.5 c 128,-1,35
 393 1095 393 1095 417.5 1126.5 c 128,-1,36
 442 1158 442 1158 478.5 1176.5 c 128,-1,37
 515 1195 515 1195 563 1195 c 0,38,23
 657 1195 657 1195 706.5 1138 c 128,-1,24
EndSplineSet
EndChar

StartChar: guillemotright
Encoding: 187 187 123
Width: 1126
Flags: W
LayerCount: 2
Fore
SplineSet
719 927 m 1,0,-1
 609 871 l 1,1,-1
 823 543 l 1,2,-1
 609 213 l 1,3,-1
 719 157 l 1,4,-1
 965 543 l 1,5,-1
 719 927 l 1,0,-1
284 922 m 1,6,-1
 178 865 l 1,7,-1
 407 543 l 1,8,-1
 178 220 l 1,9,-1
 284 163 l 1,10,-1
 545 543 l 1,11,-1
 284 922 l 1,6,-1
EndSplineSet
EndChar

StartChar: onequarter
Encoding: 188 188 124
Width: 1126
Flags: W
LayerCount: 2
Fore
SplineSet
47 15 m 1,0,-1
 176 15 l 1,1,-1
 1079 1398 l 1,2,-1
 948 1398 l 1,3,-1
 47 15 l 1,0,-1
261 1295 m 1,4,-1
 261 859 l 1,5,-1
 388 859 l 1,6,-1
 388 1410 l 1,7,-1
 268 1410 l 1,8,-1
 45 1290 l 1,9,-1
 87 1201 l 1,10,-1
 261 1295 l 1,4,-1
849 15 m 1,11,-1
 972 15 l 1,12,-1
 972 124 l 1,13,-1
 1062 124 l 1,14,-1
 1062 216 l 1,15,-1
 972 216 l 1,16,-1
 972 554 l 1,17,-1
 762 554 l 1,18,-1
 550 227 l 1,19,-1
 550 124 l 1,20,-1
 849 124 l 1,21,-1
 849 15 l 1,11,-1
849 508 m 1,22,-1
 849 216 l 1,23,-1
 661 216 l 1,24,-1
 849 508 l 1,22,-1
EndSplineSet
EndChar

StartChar: onehalf
Encoding: 189 189 125
Width: 1126
Flags: W
LayerCount: 2
Fore
SplineSet
47 15 m 1,0,-1
 176 15 l 1,1,-1
 1079 1398 l 1,2,-1
 948 1398 l 1,3,-1
 47 15 l 1,0,-1
654 15 m 1,4,-1
 1064 15 l 1,5,-1
 1064 110 l 1,6,-1
 779 110 l 1,7,-1
 880 180 l 2,8,9
 927 213 927 213 958.5 240 c 128,-1,10
 990 267 990 267 1009.5 292 c 128,-1,11
 1029 317 1029 317 1037.5 341.5 c 128,-1,12
 1046 366 1046 366 1046 393 c 0,13,14
 1046 437 1046 437 1030.5 469.5 c 128,-1,15
 1015 502 1015 502 988 524 c 128,-1,16
 961 546 961 546 924 557.5 c 128,-1,17
 887 569 887 569 849.5 569 c 128,-1,18
 812 569 812 569 784 564 c 0,19,20
 730 553 730 553 687 524 c 0,21,22
 670 512 670 512 653 499 c 1,23,-1
 703 423 l 1,24,25
 735 448 735 448 762.5 462 c 128,-1,26
 790 476 790 476 825 476 c 0,27,28
 876 476 876 476 901 448 c 0,29,30
 920 426 920 426 920 390 c 128,-1,31
 920 354 920 354 901.5 325.5 c 128,-1,32
 883 297 883 297 834 260 c 2,33,-1
 654 118 l 1,34,-1
 654 15 l 1,4,-1
261 1295 m 1,35,-1
 261 859 l 1,36,-1
 388 859 l 1,37,-1
 388 1410 l 1,38,-1
 268 1410 l 1,39,-1
 45 1290 l 1,40,-1
 87 1201 l 1,41,-1
 261 1295 l 1,35,-1
EndSplineSet
EndChar

StartChar: threequarters
Encoding: 190 190 126
Width: 1126
Flags: W
LayerCount: 2
Fore
SplineSet
47 15 m 1,0,-1
 176 15 l 1,1,-1
 1079 1398 l 1,2,-1
 948 1398 l 1,3,-1
 47 15 l 1,0,-1
849 15 m 1,4,-1
 972 15 l 1,5,-1
 972 124 l 1,6,-1
 1062 124 l 1,7,-1
 1062 216 l 1,8,-1
 972 216 l 1,9,-1
 972 554 l 1,10,-1
 762 554 l 1,11,-1
 550 227 l 1,12,-1
 550 124 l 1,13,-1
 849 124 l 1,14,-1
 849 15 l 1,4,-1
849 508 m 1,15,-1
 849 216 l 1,16,-1
 661 216 l 1,17,-1
 849 508 l 1,15,-1
101 854 m 1,18,19
 152 844 152 844 213.5 844 c 128,-1,20
 275 844 275 844 325.5 858 c 128,-1,21
 376 872 376 872 408 896 c 0,22,23
 474 944 474 944 474 1022 c 0,24,25
 474 1118 474 1118 372 1138 c 2,26,-1
 323 1149 l 1,27,-1
 369 1167 l 2,28,29
 407 1182 407 1182 423.5 1210 c 128,-1,30
 440 1238 440 1238 440 1286 c 0,31,32
 440 1343 440 1343 392.5 1377.5 c 128,-1,33
 345 1412 345 1412 250 1412 c 0,34,35
 167 1412 167 1412 111 1394 c 1,36,-1
 111 1311 l 1,37,-1
 150 1319 l 2,38,39
 174 1324 174 1324 207 1324 c 0,40,41
 258 1324 258 1324 281 1303 c 128,-1,42
 304 1282 304 1282 304 1251.5 c 128,-1,43
 304 1221 304 1221 282 1199 c 128,-1,44
 260 1177 260 1177 207 1177 c 2,45,-1
 138 1177 l 1,46,-1
 138 1094 l 1,47,-1
 213 1094 l 2,48,49
 271 1094 271 1094 298 1078 c 0,50,51
 330 1061 330 1061 330 1018 c 0,52,53
 330 979 330 979 298.5 957 c 128,-1,54
 267 935 267 935 199 935 c 0,55,56
 148 935 148 935 101 943 c 1,57,-1
 101 854 l 1,18,19
EndSplineSet
EndChar

StartChar: questiondown
Encoding: 191 191 127
Width: 1126
Flags: W
LayerCount: 2
Fore
SplineSet
218 35 m 0,0,1
 218 -13 218 -13 233 -63.5 c 128,-1,2
 248 -114 248 -114 279 -161.5 c 128,-1,3
 310 -209 310 -209 357 -252 c 128,-1,4
 404 -295 404 -295 468 -326.5 c 128,-1,5
 532 -358 532 -358 614 -376.5 c 128,-1,6
 696 -395 696 -395 795 -395 c 2,7,-1
 806 -395 l 1,8,-1
 806 -269 l 1,9,-1
 797 -269 l 2,10,11
 707 -269 707 -269 630.5 -248 c 128,-1,12
 554 -227 554 -227 497 -186 c 128,-1,13
 440 -145 440 -145 408 -85.5 c 128,-1,14
 376 -26 376 -26 376 51 c 0,15,16
 376 98 376 98 388 135 c 0,17,18
 425 253 425 253 606 253 c 2,19,-1
 708 253 l 1,20,-1
 696 606 l 1,21,-1
 576 606 l 1,22,-1
 568 362 l 1,23,-1
 554 360 l 1,24,25
 390 349 390 349 304 269.5 c 128,-1,26
 218 190 218 190 218 35 c 0,0,1
637 773 m 128,-1,28
 662 773 662 773 683 782 c 128,-1,29
 704 791 704 791 719.5 807.5 c 128,-1,30
 735 824 735 824 744 845 c 128,-1,31
 753 866 753 866 753 890.5 c 128,-1,32
 753 915 753 915 744.5 936 c 128,-1,33
 736 957 736 957 720 973 c 128,-1,34
 704 989 704 989 683 998 c 128,-1,35
 662 1007 662 1007 637 1007 c 128,-1,36
 612 1007 612 1007 591 998 c 128,-1,37
 570 989 570 989 554 973 c 128,-1,38
 538 957 538 957 529.5 936 c 128,-1,39
 521 915 521 915 521 890.5 c 128,-1,40
 521 866 521 866 530 845 c 128,-1,41
 539 824 539 824 554.5 807.5 c 128,-1,42
 570 791 570 791 591 782 c 128,-1,27
 612 773 612 773 637 773 c 128,-1,28
EndSplineSet
EndChar

StartChar: AE
Encoding: 198 198 134
Width: 1126
Flags: W
LayerCount: 2
Fore
SplineSet
599 301 m 1,0,-1
 599 20 l 1,1,-1
 1070 20 l 1,2,-1
 1070 133 l 1,3,-1
 735 133 l 1,4,-1
 735 621 l 1,5,-1
 1042 621 l 1,6,-1
 1042 733 l 1,7,-1
 735 733 l 1,8,-1
 735 1175 l 1,9,-1
 1056 1175 l 1,10,-1
 1056 1287 l 1,11,-1
 499 1287 l 1,12,-1
 -21 20 l 1,13,-1
 123 20 l 1,14,-1
 232 301 l 1,15,-1
 599 301 l 1,0,-1
599 1246 m 1,16,-1
 599 414 l 1,17,-1
 275 414 l 1,18,-1
 599 1246 l 1,16,-1
EndSplineSet
EndChar

StartChar: Ccedilla
Encoding: 199 199 135
Width: 1126
Flags: W
LayerCount: 2
Fore
SplineSet
665 -6 m 1,0,-1
 669 -6 l 1,1,-1
 676 -6 l 2,2,3
 828 -6 828 -6 980 55 c 1,4,-1
 980 191 l 1,5,6
 757 125 757 125 692 125 c 0,7,8
 689 125 689 125 686 125 c 0,9,10
 480 125 480 125 373 261 c 128,-1,11
 266 397 266 397 266 655 c 0,12,13
 266 779 266 779 294.5 876 c 128,-1,14
 323 973 323 973 377.5 1042 c 128,-1,15
 432 1111 432 1111 509.5 1147 c 128,-1,16
 587 1183 587 1183 680.5 1183 c 128,-1,17
 774 1183 774 1183 846 1163.5 c 128,-1,18
 918 1144 918 1144 980 1111 c 1,19,-1
 980 1255 l 1,20,21
 914 1284 914 1284 840 1298.5 c 128,-1,22
 766 1313 766 1313 676 1313 c 0,23,24
 545 1313 545 1313 440 1266 c 128,-1,25
 335 1219 335 1219 261 1132.5 c 128,-1,26
 187 1046 187 1046 147 920.5 c 128,-1,27
 107 795 107 795 107 640 c 0,28,29
 107 371 107 371 211 211 c 128,-1,30
 315 51 315 51 511 11 c 2,31,-1
 526 8 l 1,32,-1
 460 -285 l 1,33,-1
 583 -285 l 1,34,-1
 665 -6 l 1,0,-1
EndSplineSet
EndChar

StartChar: Eth
Encoding: 208 208 144
Width: 1126
Flags: W
LayerCount: 2
Fore
SplineSet
15 617 m 1,0,-1
 154 617 l 1,1,-1
 154 15 l 1,2,-1
 399 15 l 2,3,4
 636 15 636 15 783 103 c 0,5,6
 854 145 854 145 902 203 c 0,7,8
 997 318 997 318 1025 491 c 0,9,10
 1038 575 1038 575 1038 668 c 0,11,12
 1038 986 1038 986 897 1139 c 128,-1,13
 756 1292 756 1292 457 1292 c 2,14,-1
 154 1292 l 1,15,-1
 154 737 l 1,16,-1
 15 737 l 1,17,-1
 15 617 l 1,0,-1
770.5 264 m 128,-1,19
 660 134 660 134 430 134 c 2,20,-1
 302 134 l 1,21,-1
 302 612 l 1,22,-1
 528 612 l 1,23,-1
 528 732 l 1,24,-1
 302 732 l 1,25,-1
 302 1167 l 1,26,-1
 451 1167 l 2,27,28
 561 1167 561 1167 642.5 1139.5 c 128,-1,29
 724 1112 724 1112 777.5 1050 c 128,-1,30
 831 988 831 988 856 889.5 c 128,-1,31
 881 791 881 791 881 650 c 0,32,18
 881 394 881 394 770.5 264 c 128,-1,19
EndSplineSet
EndChar

StartChar: multiply
Encoding: 215 215 151
Width: 1126
Flags: W
LayerCount: 2
Fore
SplineSet
862 150 m 1,0,-1
 958 246 l 1,1,-1
 653 549 l 1,2,-1
 954 850 l 1,3,-1
 868 935 l 1,4,-1
 567 634 l 1,5,-1
 264 940 l 1,6,-1
 168 844 l 1,7,-1
 474 541 l 1,8,-1
 173 240 l 1,9,-1
 258 154 l 1,10,-1
 559 455 l 1,11,-1
 862 150 l 1,0,-1
EndSplineSet
EndChar

StartChar: Oslash
Encoding: 216 216 152
Width: 1126
Flags: W
LayerCount: 2
Fore
SplineSet
495 -5.5 m 128,-1,1
 522 -8 522 -8 553 -8 c 0,2,3
 655 -8 655 -8 746 31.5 c 128,-1,4
 837 71 837 71 905.5 152.5 c 128,-1,5
 974 234 974 234 1014 360.5 c 128,-1,6
 1054 487 1054 487 1054 662 c 0,7,8
 1054 880 1054 880 994 1031 c 0,9,10
 932 1186 932 1186 805 1258 c 1,11,-1
 801 1260 l 1,12,-1
 877 1512 l 1,13,-1
 763 1512 l 1,14,-1
 698 1300 l 1,15,-1
 685 1303 l 2,16,17
 633 1315 633 1315 573 1315 c 0,18,19
 471 1315 471 1315 380 1275.5 c 128,-1,20
 289 1236 289 1236 220.5 1154.5 c 128,-1,21
 152 1073 152 1073 112 946.5 c 128,-1,22
 72 820 72 820 72 647 c 0,23,24
 72 426 72 426 132.5 273 c 128,-1,25
 193 120 193 120 314 51 c 2,26,-1
 325 45 l 1,27,-1
 251 -205 l 1,28,-1
 366 -205 l 1,29,-1
 427 4 l 1,30,0
 468 -3 468 -3 495 -5.5 c 128,-1,1
255 388.5 m 128,-1,32
 227 504 227 504 227 652 c 0,33,34
 227 758 227 758 246.5 854 c 128,-1,35
 266 950 266 950 306 1021.5 c 128,-1,36
 346 1093 346 1093 410 1136 c 128,-1,37
 474 1179 474 1179 563 1179 c 0,38,39
 607 1179 607 1179 647 1169 c 2,40,41
 647 1169 647 1169 662 1164 c 1,42,-1
 367 186 l 1,43,-1
 349 204 l 2,44,31
 283 273 283 273 255 388.5 c 128,-1,32
871.5 915.5 m 128,-1,46
 900 802 900 802 900 654 c 0,47,48
 900 547 900 547 880.5 451.5 c 128,-1,49
 861 356 861 356 820.5 284.5 c 128,-1,50
 780 213 780 213 716 170 c 128,-1,51
 652 127 652 127 563 127 c 0,52,53
 508 127 508 127 480 135 c 2,54,-1
 467 140 l 1,55,-1
 759 1120 l 1,56,-1
 777 1100 l 2,57,45
 843 1029 843 1029 871.5 915.5 c 128,-1,46
EndSplineSet
EndChar

StartChar: Thorn
Encoding: 222 222 158
Width: 1126
Flags: W
LayerCount: 2
Fore
SplineSet
321 1292 m 1,0,-1
 173 1292 l 1,1,-1
 173 15 l 1,2,-1
 321 15 l 1,3,-1
 321 269 l 1,4,-1
 498 269 l 2,5,6
 631 269 631 269 726 307.5 c 128,-1,7
 821 346 821 346 882 408 c 128,-1,8
 943 470 943 470 972 547.5 c 128,-1,9
 1001 625 1001 625 1001 702 c 0,10,11
 1001 808 1001 808 962.5 882.5 c 128,-1,12
 924 957 924 957 859.5 1004.5 c 128,-1,13
 795 1052 795 1052 708 1074.5 c 128,-1,14
 621 1097 621 1097 526 1097 c 2,15,-1
 321 1097 l 1,16,-1
 321 1292 l 1,0,-1
823.5 813 m 128,-1,18
 846 760 846 760 846 694 c 0,19,20
 846 547 846 547 756 469 c 128,-1,21
 666 391 666 391 502 391 c 2,22,-1
 321 391 l 1,23,-1
 321 980 l 1,24,-1
 518 980 l 2,25,26
 672 980 672 980 758 904 c 0,27,17
 801 866 801 866 823.5 813 c 128,-1,18
EndSplineSet
EndChar

StartChar: germandbls
Encoding: 223 223 159
Width: 1126
Flags: W
LayerCount: 2
Fore
SplineSet
736 126 m 0,0,1
 696 115 696 115 641 115 c 0,2,3
 572 115 572 115 504 132 c 1,4,-1
 504 8 l 1,5,6
 526 6 526 6 562.5 2 c 128,-1,7
 599 -2 599 -2 649 -2 c 0,8,9
 749 -2 749 -2 817.5 23.5 c 128,-1,10
 886 49 886 49 928 88 c 128,-1,11
 970 127 970 127 988.5 176.5 c 128,-1,12
 1007 226 1007 226 1007 276 c 0,13,14
 1007 337 1007 337 982.5 384.5 c 128,-1,15
 958 432 958 432 920 471 c 128,-1,16
 882 510 882 510 836 542 c 128,-1,17
 790 574 790 574 749.5 606 c 128,-1,18
 709 638 709 638 681 672 c 128,-1,19
 653 706 653 706 653 749.5 c 128,-1,20
 653 793 653 793 674.5 823 c 128,-1,21
 696 853 696 853 726 877.5 c 128,-1,22
 756 902 756 902 789.5 926 c 128,-1,23
 823 950 823 950 851 980 c 0,24,25
 877 1008 877 1008 896 1050 c 0,26,27
 915 1089 915 1089 915 1148.5 c 128,-1,28
 915 1208 915 1208 893 1257.5 c 128,-1,29
 871 1307 871 1307 827.5 1341.5 c 128,-1,30
 784 1376 784 1376 720 1395.5 c 128,-1,31
 656 1415 656 1415 570 1415 c 128,-1,32
 484 1415 484 1415 408.5 1391 c 128,-1,33
 333 1367 333 1367 278 1317.5 c 128,-1,34
 223 1268 223 1268 192.5 1193 c 128,-1,35
 162 1118 162 1118 162 1015 c 2,36,-1
 162 20 l 1,37,-1
 307 20 l 1,38,-1
 307 1021 l 2,39,40
 307 1165 307 1165 375 1236 c 0,41,42
 439 1304 439 1304 557 1304 c 0,43,44
 658 1304 658 1304 713.5 1263.5 c 128,-1,45
 769 1223 769 1223 769 1133 c 0,46,47
 769 1089 769 1089 747 1058 c 0,48,49
 726 1027 726 1027 696 1001 c 256,50,51
 666 975 666 975 632.5 951.5 c 128,-1,52
 599 928 599 928 571 899 c 128,-1,53
 543 870 543 870 525 832 c 128,-1,54
 507 794 507 794 507 741 c 0,55,56
 507 680 507 680 531.5 635 c 128,-1,57
 556 590 556 590 593.5 553 c 128,-1,58
 631 516 631 516 677 484.5 c 128,-1,59
 723 453 723 453 763 419.5 c 128,-1,60
 803 386 803 386 831 347 c 128,-1,61
 859 308 859 308 859 256 c 0,62,63
 859 227 859 227 845 201 c 0,64,65
 817 147 817 147 736 126 c 0,0,1
EndSplineSet
EndChar

StartChar: ae
Encoding: 230 230 166
Width: 1126
Flags: W
LayerCount: 2
Fore
SplineSet
673 200 m 0,0,1
 624 290 624 290 624 456 c 2,2,-1
 624 471 l 1,3,-1
 1069 471 l 1,4,5
 1072 504 1072 504 1072 591.5 c 128,-1,6
 1072 679 1072 679 1056.5 759.5 c 128,-1,7
 1041 840 1041 840 1008 895.5 c 128,-1,8
 975 951 975 951 924 981 c 0,9,10
 873 1012 873 1012 801.5 1012 c 128,-1,11
 730 1012 730 1012 678 981.5 c 128,-1,12
 626 951 626 951 592 898 c 2,13,-1
 577 873 l 1,14,-1
 566 900 l 2,15,16
 542 957 542 957 485 984.5 c 128,-1,17
 428 1012 428 1012 340 1012 c 0,18,19
 280 1012 280 1012 214.5 994 c 128,-1,20
 149 976 149 976 101 953 c 1,21,-1
 101 833 l 1,22,23
 154 861 154 861 213 880 c 128,-1,24
 272 899 272 899 332 899 c 0,25,26
 425 899 425 899 463 837 c 0,27,28
 500 777 500 777 500 671 c 2,29,-1
 500 572 l 1,30,-1
 365 572 l 2,31,32
 122 572 122 572 65 397 c 0,33,34
 46 339 46 339 46 266 c 0,35,36
 46 130 46 130 104.5 61 c 128,-1,37
 163 -8 163 -8 276 -8 c 0,38,39
 347 -8 347 -8 410 36 c 128,-1,40
 473 80 473 80 523 159 c 2,41,-1
 538 184 l 1,42,-1
 549 157 l 2,43,44
 619 -8 619 -8 803 -8 c 0,45,46
 902 -8 902 -8 994 19 c 0,47,48
 1020 26 1020 26 1036 32 c 1,49,-1
 1036 141 l 1,50,51
 1000 128 1000 128 949.5 117 c 128,-1,52
 899 106 899 106 840 106 c 0,53,54
 723 106 723 106 673 200 c 0,0,1
223 417.5 m 128,-1,56
 266 472 266 472 360 472 c 2,57,-1
 500 472 l 1,58,-1
 500 279 l 1,59,60
 441 187 441 187 391.5 151 c 128,-1,61
 342 115 342 115 295 115 c 0,62,63
 239 115 239 115 209.5 156.5 c 128,-1,64
 180 198 180 198 180 277 c 0,65,55
 180 363 180 363 223 417.5 c 128,-1,56
624 571 m 1,66,-1
 624 586 l 2,67,68
 624 650 624 650 634 706 c 0,69,70
 653 819 653 819 717 872 c 0,71,72
 748 898 748 898 792 898 c 128,-1,73
 836 898 836 898 865 872 c 0,74,75
 939 805 939 805 939 602 c 2,76,-1
 939 571 l 1,77,-1
 624 571 l 1,66,-1
EndSplineSet
EndChar

StartChar: ccedilla
Encoding: 231 231 167
Width: 1126
Flags: W
LayerCount: 2
Fore
SplineSet
925 831 m 1,0,-1
 925 965 l 1,1,2
 814 1008 814 1008 664 1008 c 0,3,4
 555 1008 555 1008 465 971 c 128,-1,5
 375 934 375 934 310 867 c 128,-1,6
 245 800 245 800 209 705 c 128,-1,7
 173 610 173 610 173 493 c 0,8,9
 173 293 173 293 258.5 171 c 128,-1,10
 344 49 344 49 512 12 c 2,11,-1
 527 9 l 1,12,-1
 461 -285 l 1,13,-1
 583 -285 l 1,14,-1
 665 -4 l 1,15,16
 804 -2 804 -2 925 43 c 1,17,-1
 925 174 l 1,18,19
 807 118 807 118 674 118 c 0,20,21
 511 118 511 118 418 213.5 c 128,-1,22
 325 309 325 309 325 498 c 0,23,24
 325 589 325 589 352 661 c 128,-1,25
 379 733 379 733 426 783.5 c 128,-1,26
 473 834 473 834 535.5 860.5 c 128,-1,27
 598 887 598 887 668 887 c 0,28,29
 807 887 807 887 925 831 c 1,0,-1
EndSplineSet
EndChar

StartChar: eth
Encoding: 240 240 176
Width: 1126
Flags: W
LayerCount: 2
Fore
SplineSet
433 846 m 128,-1,1
 494 878 494 878 582 878 c 0,2,3
 644 878 644 878 726 861 c 1,4,5
 788 755 788 755 815 667 c 128,-1,6
 842 579 842 579 842 495 c 0,7,8
 842 322 842 322 771 225 c 0,9,10
 735 174 735 174 680 146.5 c 128,-1,11
 625 119 625 119 553 119 c 0,12,13
 491 119 491 119 437.5 143 c 128,-1,14
 384 167 384 167 345.5 214.5 c 128,-1,15
 307 262 307 262 285.5 330.5 c 128,-1,16
 264 399 264 399 264 481 c 0,17,18
 264 656 264 656 334 758 c 0,19,0
 372 814 372 814 433 846 c 128,-1,1
649 994 m 1,20,21
 591 1004 591 1004 571 1004 c 0,22,23
 460 1004 460 1004 375.5 962 c 128,-1,24
 291 920 291 920 233 848.5 c 128,-1,25
 175 777 175 777 145 680.5 c 128,-1,26
 115 584 115 584 115 475.5 c 128,-1,27
 115 367 115 367 143 277 c 0,28,29
 200 95 200 95 357 26 c 0,30,31
 436 -8 436 -8 539 -8 c 0,32,33
 631 -8 631 -8 700.5 15 c 128,-1,34
 770 38 770 38 819.5 77 c 128,-1,35
 869 116 869 116 902 167 c 0,36,37
 965 263 965 263 983 390 c 0,38,39
 991 448 991 448 991 501 c 0,40,41
 991 706 991 706 821 985 c 0,42,43
 766 1078 766 1078 679 1199 c 1,44,-1
 894 1242 l 1,45,-1
 894 1357 l 1,46,-1
 606 1297 l 1,47,-1
 523 1403 l 1,48,-1
 344 1403 l 1,49,-1
 455 1264 l 1,50,-1
 257 1222 l 1,51,-1
 257 1106 l 1,52,-1
 528 1165 l 1,53,54
 560 1122 560 1122 584 1087 c 2,55,-1
 649 994 l 1,20,21
EndSplineSet
EndChar

StartChar: divide
Encoding: 247 247 183
Width: 1126
Flags: W
LayerCount: 2
Fore
SplineSet
99 606 m 1,0,-1
 99 484 l 1,1,-1
 1027 484 l 1,2,-1
 1027 606 l 1,3,-1
 99 606 l 1,0,-1
560.5 272 m 128,-1,5
 536 272 536 272 515 263 c 128,-1,6
 494 254 494 254 477.5 237.5 c 128,-1,7
 461 221 461 221 452 199.5 c 128,-1,8
 443 178 443 178 443 154 c 128,-1,9
 443 130 443 130 453 109 c 0,10,11
 471 67 471 67 515 48 c 0,12,13
 536 38 536 38 560.5 38 c 128,-1,14
 585 38 585 38 606 47 c 128,-1,15
 627 56 627 56 643 72 c 128,-1,16
 659 88 659 88 668 109 c 128,-1,17
 677 130 677 130 677 154 c 128,-1,18
 677 178 677 178 668 199.5 c 128,-1,19
 659 221 659 221 643 237.5 c 128,-1,20
 627 254 627 254 606 263 c 128,-1,4
 585 272 585 272 560.5 272 c 128,-1,5
560.5 818 m 128,-1,22
 585 818 585 818 606 828 c 0,23,24
 648 846 648 846 667 890 c 0,25,26
 677 911 677 911 677 935.5 c 128,-1,27
 677 960 677 960 668 981 c 128,-1,28
 659 1002 659 1002 643 1018 c 128,-1,29
 627 1034 627 1034 606 1043 c 128,-1,30
 585 1052 585 1052 560.5 1052 c 128,-1,31
 536 1052 536 1052 515 1043 c 128,-1,32
 494 1034 494 1034 477.5 1018 c 128,-1,33
 461 1002 461 1002 452 981 c 128,-1,34
 443 960 443 960 443 935.5 c 128,-1,35
 443 911 443 911 452 890 c 128,-1,36
 461 869 461 869 477.5 852.5 c 128,-1,37
 494 836 494 836 515 827 c 128,-1,21
 536 818 536 818 560.5 818 c 128,-1,22
EndSplineSet
EndChar

StartChar: oslash
Encoding: 248 248 184
Width: 1126
Flags: W
LayerCount: 2
Fore
SplineSet
674 1005 m 1,0,1
 616 1012 616 1012 573 1012 c 0,2,3
 462 1012 462 1012 376 975.5 c 128,-1,4
 290 939 290 939 230 873 c 128,-1,5
 170 807 170 807 138.5 711.5 c 128,-1,6
 107 616 107 616 107 497 c 0,7,8
 107 320 107 320 169 206 c 128,-1,9
 231 92 231 92 340 39 c 1,10,-1
 352 34 l 1,11,-1
 273 -205 l 1,12,-1
 386 -205 l 1,13,-1
 455 0 l 1,14,15
 509 -8 509 -8 553 -8 c 0,16,17
 664 -8 664 -8 750 28 c 128,-1,18
 836 64 836 64 896 130.5 c 128,-1,19
 956 197 956 197 987.5 293 c 128,-1,20
 1019 389 1019 389 1019 510 c 0,21,22
 1019 685 1019 685 958 799 c 128,-1,23
 897 913 897 913 789 965 c 1,24,-1
 777 970 l 1,25,-1
 856 1209 l 1,26,-1
 742 1209 l 1,27,-1
 674 1005 l 1,0,1
843 705 m 128,-1,29
 875 622 875 622 875 507 c 0,30,31
 875 429 875 429 858 359 c 128,-1,32
 841 289 841 289 804 234.5 c 128,-1,33
 767 180 767 180 709 148.5 c 128,-1,34
 651 117 651 117 569 117 c 0,35,36
 537 117 537 117 511 121 c 2,37,38
 511 121 511 121 494 124 c 1,39,-1
 736 849 l 1,40,-1
 752 836 l 2,41,28
 811 788 811 788 843 705 c 128,-1,29
282.5 298 m 128,-1,43
 251 381 251 381 251 497 c 0,44,45
 251 575 251 575 268 645 c 128,-1,46
 285 715 285 715 322 769.5 c 128,-1,47
 359 824 359 824 417 855.5 c 128,-1,48
 475 887 475 887 557 887 c 0,49,50
 585 887 585 887 634 879 c 1,51,-1
 393 155 l 1,52,-1
 376 167 l 2,53,42
 314 215 314 215 282.5 298 c 128,-1,43
EndSplineSet
EndChar

StartChar: thorn
Encoding: 254 254 190
Width: 1126
Flags: W
LayerCount: 2
Fore
SplineSet
969.5 300 m 128,-1,1
 1003 397 1003 397 1003 515 c 0,2,3
 1003 751 1003 751 918 880 c 0,4,5
 875 943 875 943 813.5 977.5 c 128,-1,6
 752 1012 752 1012 670 1012 c 0,7,8
 575 1012 575 1012 493 972 c 128,-1,9
 411 932 411 932 338 834 c 2,10,-1
 309 795 l 1,11,-1
 319 1029 l 1,12,-1
 319 1403 l 1,13,-1
 175 1403 l 1,14,-1
 175 -400 l 1,15,-1
 319 -400 l 1,16,-1
 319 24 l 1,17,18
 386 8 386 8 432.5 3 c 128,-1,19
 479 -2 479 -2 526 -2 c 0,20,21
 637 -2 637 -2 725 33.5 c 128,-1,22
 813 69 813 69 874.5 136 c 128,-1,0
 936 203 936 203 969.5 300 c 128,-1,1
843 658 m 0,23,24
 855 591 855 591 855 512 c 0,25,26
 855 401 855 401 829.5 326.5 c 128,-1,27
 804 252 804 252 760.5 205 c 128,-1,28
 717 158 717 158 659.5 138.5 c 128,-1,29
 602 119 602 119 539 119 c 0,30,31
 439 119 439 119 319 166 c 1,32,-1
 319 662 l 1,33,34
 368 726 368 726 410 767 c 128,-1,35
 452 808 452 808 489 833 c 0,36,37
 560 880 560 880 635 880 c 0,38,39
 694 880 694 880 736 852 c 0,40,41
 819 796 819 796 843 658 c 0,23,24
EndSplineSet
EndChar

StartChar: Aogonek
Encoding: 260 260 196
Width: 1126
Flags: W
LayerCount: 2
Fore
SplineSet
820 -183 m 0,0,1
 816 -204 816 -204 816 -226 c 0,2,3
 816 -291 816 -291 867 -333 c 128,-1,4
 918 -375 918 -375 1020 -375 c 0,5,6
 1071 -375 1071 -375 1116 -368 c 1,7,-1
 1116 -284 l 1,8,9
 1089 -286 1089 -286 1061 -286 c 0,10,11
 1002 -286 1002 -286 976 -261 c 128,-1,12
 950 -236 950 -236 950 -198 c 0,13,14
 950 -153 950 -153 973 -111 c 0,15,16
 999 -63 999 -63 1072 10 c 1,17,-1
 1095 10 l 1,18,-1
 677 1287 l 1,19,-1
 455 1287 l 1,20,-1
 31 10 l 1,21,-1
 184 10 l 1,22,-1
 276 295 l 1,23,-1
 842 295 l 1,24,-1
 939 -9 l 1,25,26
 895 -53 895 -53 871 -83 c 0,27,28
 829 -139 829 -139 820 -183 c 0,0,1
801 429 m 1,29,-1
 317 429 l 1,30,-1
 559 1193 l 1,31,-1
 801 429 l 1,29,-1
EndSplineSet
EndChar

StartChar: aogonek
Encoding: 261 261 197
Width: 1126
Flags: W
LayerCount: 2
Fore
SplineSet
703 -183 m 0,0,1
 699 -204 699 -204 699 -226 c 0,2,3
 699 -291 699 -291 750 -333 c 128,-1,4
 801 -375 801 -375 903 -375 c 0,5,6
 954 -375 954 -375 999 -368 c 1,7,-1
 999 -284 l 1,8,9
 972 -286 972 -286 944 -286 c 0,10,11
 885 -286 885 -286 859 -261 c 128,-1,12
 833 -236 833 -236 833 -198 c 0,13,14
 833 -153 833 -153 856 -111 c 0,15,16
 882 -64 882 -64 946 3 c 1,17,-1
 946 694 l 2,18,19
 946 776 946 776 920 836 c 0,20,21
 869 953 869 953 729 992 c 0,22,23
 658 1012 658 1012 568 1012 c 128,-1,24
 478 1012 478 1012 379 992 c 0,25,26
 302 977 302 977 232 951 c 1,27,-1
 232 824 l 1,28,29
 310 855 310 855 389 873 c 128,-1,30
 468 891 468 891 555 891 c 0,31,32
 678 891 678 891 739.5 833.5 c 128,-1,33
 801 776 801 776 801 679 c 2,34,-1
 801 577 l 1,35,-1
 578 577 l 2,36,37
 363 577 363 577 255.5 494 c 128,-1,38
 148 411 148 411 148 266 c 0,39,40
 148 207 148 207 165.5 157.5 c 128,-1,41
 183 108 183 108 220 71.5 c 128,-1,42
 257 35 257 35 315.5 13.5 c 128,-1,43
 374 -8 374 -8 460.5 -8 c 128,-1,44
 547 -8 547 -8 628.5 31.5 c 128,-1,45
 710 71 710 71 790 160 c 0,46,47
 790 161 790 161 815 185 c 1,48,-1
 820 -11 l 1,49,50
 778 -53 778 -53 754 -83 c 0,51,52
 712 -139 712 -139 703 -183 c 0,0,1
367 420 m 0,53,54
 433 472 433 472 565 472 c 2,55,-1
 801 472 l 1,56,-1
 801 276 l 1,57,58
 709 192 709 192 628.5 154.5 c 128,-1,59
 548 117 548 117 485 117 c 0,60,61
 391 117 391 117 344 165 c 0,62,63
 302 209 302 209 302 277 c 0,64,65
 302 369 302 369 367 420 c 0,53,54
EndSplineSet
EndChar

StartChar: dcroat
Encoding: 273 273 209
Width: 1126
Flags: W
LayerCount: 2
Fore
SplineSet
1111 1157 m 1,0,-1
 1111 1272 l 1,1,-1
 925 1272 l 1,2,-1
 925 1403 l 1,3,-1
 781 1403 l 1,4,-1
 781 1272 l 1,5,-1
 492 1272 l 1,6,-1
 492 1157 l 1,7,-1
 781 1157 l 1,8,-1
 781 977 l 1,9,-1
 762 981 l 1,10,11
 677 1006 677 1006 582 1006 c 0,12,13
 474 1006 474 1006 387.5 971 c 128,-1,14
 301 936 301 936 240 869.5 c 128,-1,15
 179 803 179 803 146 705 c 128,-1,16
 113 607 113 607 113 481 c 0,17,18
 113 370 113 370 133.5 279 c 128,-1,19
 154 188 154 188 194.5 124.5 c 128,-1,20
 235 61 235 61 295.5 26.5 c 128,-1,21
 356 -8 356 -8 438 -8 c 0,22,23
 533 -8 533 -8 614 41.5 c 128,-1,24
 695 91 695 91 766 195 c 2,25,-1
 791 234 l 1,26,-1
 799 10 l 1,27,-1
 925 10 l 1,28,-1
 925 1157 l 1,29,-1
 1111 1157 l 1,0,-1
313 216 m 0,30,31
 261 307 261 307 261 492 c 0,32,33
 261 691 261 691 341 786.5 c 128,-1,34
 421 882 421 882 569 882 c 0,35,36
 683 882 683 882 781 836 c 1,37,-1
 781 362 l 1,38,39
 695 242 695 242 620 181.5 c 128,-1,40
 545 121 545 121 473 121 c 0,41,42
 367 121 367 121 313 216 c 0,30,31
EndSplineSet
EndChar

StartChar: Eogonek
Encoding: 280 280 216
Width: 1126
Flags: W
LayerCount: 2
Fore
SplineSet
734 -333 m 128,-1,1
 785 -375 785 -375 887 -375 c 0,2,3
 938 -375 938 -375 983 -368 c 1,4,-1
 983 -284 l 1,5,6
 956 -286 956 -286 928 -286 c 0,7,8
 869 -286 869 -286 843 -261 c 128,-1,9
 817 -236 817 -236 817 -198 c 0,10,11
 817 -153 817 -153 840 -111 c 0,12,13
 865 -61 865 -61 929 8 c 1,14,-1
 929 150 l 1,15,-1
 364 150 l 1,16,-1
 364 627 l 1,17,-1
 907 627 l 1,18,-1
 907 746 l 1,19,-1
 364 746 l 1,20,-1
 364 1178 l 1,21,-1
 929 1178 l 1,22,-1
 929 1297 l 1,23,-1
 216 1297 l 1,24,-1
 216 12 l 1,25,-1
 826 12 l 1,26,-1
 799 -16 l 2,27,28
 702 -111 702 -111 687 -183 c 0,29,30
 683 -214 683 -214 683 -226 c 0,31,0
 683 -291 683 -291 734 -333 c 128,-1,1
EndSplineSet
EndChar

StartChar: eogonek
Encoding: 281 281 217
Width: 1126
Flags: W
LayerCount: 2
Fore
SplineSet
374.5 198.5 m 128,-1,1
 284 286 284 286 284 447 c 2,2,-1
 284 462 l 1,3,-1
 990 462 l 1,4,5
 993 501 993 501 993 557 c 0,6,7
 993 662 993 662 965 746 c 0,8,9
 910 915 910 915 753 979 c 0,10,11
 675 1012 675 1012 571.5 1012 c 128,-1,12
 468 1012 468 1012 386 971 c 128,-1,13
 304 930 304 930 247.5 860.5 c 128,-1,14
 191 791 191 791 161.5 697.5 c 128,-1,15
 132 604 132 604 132 500 c 0,16,17
 132 252 132 252 245 125 c 0,18,19
 302 61 302 61 392 26.5 c 128,-1,20
 482 -8 482 -8 608 -8 c 2,21,-1
 657 -7 l 1,22,-1
 693 -7 l 1,23,-1
 668 -33 l 2,24,25
 607 -95 607 -95 586 -143 c 0,26,27
 568 -183 568 -183 568 -226 c 0,28,29
 568 -291 568 -291 619 -333 c 128,-1,30
 670 -375 670 -375 772 -375 c 0,31,32
 823 -375 823 -375 868 -368 c 1,33,-1
 868 -284 l 1,34,35
 841 -286 841 -286 813 -286 c 0,36,37
 754 -286 754 -286 728 -261 c 128,-1,38
 702 -236 702 -236 702 -198 c 0,39,40
 702 -153 702 -153 725 -111 c 0,41,42
 751 -62 751 -62 821 12 c 1,43,44
 888 21 888 21 939 36 c 1,45,-1
 939 150 l 1,46,47
 883 135 883 135 808 124 c 0,48,49
 718 111 718 111 633 111 c 0,50,0
 465 111 465 111 374.5 198.5 c 128,-1,1
842 596 m 2,51,-1
 842 560 l 1,52,-1
 283 560 l 1,53,-1
 284 576 l 2,54,55
 289 645 289 645 311 703.5 c 128,-1,56
 333 762 333 762 369 804 c 128,-1,57
 405 846 405 846 455 869.5 c 128,-1,58
 505 893 505 893 565 893 c 0,59,60
 634 893 634 893 687 869 c 128,-1,61
 740 845 740 845 776 803 c 0,62,63
 842 724 842 724 842 596 c 2,51,-1
EndSplineSet
EndChar

StartChar: Hbar
Encoding: 294 294 230
Width: 1126
Flags: W
LayerCount: 2
Fore
SplineSet
822 20 m 1,0,-1
 970 20 l 1,1,-1
 970 950 l 1,2,-1
 1081 950 l 1,3,-1
 1081 1070 l 1,4,-1
 970 1070 l 1,5,-1
 970 1287 l 1,6,-1
 822 1287 l 1,7,-1
 822 1070 l 1,8,-1
 304 1070 l 1,9,-1
 304 1287 l 1,10,-1
 156 1287 l 1,11,-1
 156 1070 l 1,12,-1
 46 1070 l 1,13,-1
 46 950 l 1,14,-1
 156 950 l 1,15,-1
 156 20 l 1,16,-1
 304 20 l 1,17,-1
 304 586 l 1,18,-1
 822 586 l 1,19,-1
 822 20 l 1,0,-1
822 950 m 1,20,-1
 822 706 l 1,21,-1
 304 706 l 1,22,-1
 304 950 l 1,23,-1
 822 950 l 1,20,-1
EndSplineSet
EndChar

StartChar: hbar
Encoding: 295 295 231
Width: 1126
Flags: W
LayerCount: 2
Fore
SplineSet
175 20 m 1,0,-1
 319 20 l 1,1,-1
 319 627 l 1,2,3
 374 692 374 692 413.5 733 c 128,-1,4
 453 774 453 774 488 798.5 c 128,-1,5
 523 823 523 823 555 833 c 128,-1,6
 587 843 587 843 625 843 c 0,7,8
 714 843 714 843 761 780 c 128,-1,9
 808 717 808 717 808 597 c 2,10,-1
 808 20 l 1,11,-1
 952 20 l 1,12,-1
 952 611 l 2,13,14
 952 789 952 789 874.5 876 c 128,-1,15
 797 963 797 963 653 963 c 0,16,17
 611 963 611 963 571.5 954.5 c 128,-1,18
 532 946 532 946 494 926 c 0,19,20
 416 884 416 884 340 793 c 2,21,-1
 311 758 l 1,22,-1
 319 968 l 1,23,-1
 319 1159 l 1,24,-1
 634 1159 l 1,25,-1
 634 1270 l 1,26,-1
 319 1270 l 1,27,-1
 319 1403 l 1,28,-1
 175 1403 l 1,29,-1
 175 1270 l 1,30,-1
 15 1270 l 1,31,-1
 15 1159 l 1,32,-1
 175 1159 l 1,33,-1
 175 20 l 1,0,-1
0 1004 m 1024,34,-1
EndSplineSet
EndChar

StartChar: Iogonek
Encoding: 302 302 238
Width: 1126
Flags: W
LayerCount: 2
Fore
SplineSet
744 -333 m 128,-1,1
 795 -375 795 -375 897 -375 c 0,2,3
 948 -375 948 -375 993 -368 c 1,4,-1
 993 -284 l 1,5,6
 966 -286 966 -286 938 -286 c 0,7,8
 879 -286 879 -286 853 -261 c 128,-1,9
 827 -236 827 -236 827 -198 c 0,10,11
 827 -153 827 -153 850 -111 c 0,12,13
 875 -61 875 -61 939 8 c 1,14,-1
 939 150 l 1,15,-1
 638 150 l 1,16,-1
 638 1178 l 1,17,-1
 939 1178 l 1,18,-1
 939 1297 l 1,19,-1
 187 1297 l 1,20,-1
 187 1178 l 1,21,-1
 488 1178 l 1,22,-1
 488 151 l 1,23,-1
 187 151 l 1,24,-1
 187 12 l 1,25,-1
 836 12 l 1,26,-1
 809 -16 l 2,27,28
 712 -111 712 -111 697 -183 c 0,29,30
 693 -214 693 -214 693 -226 c 0,31,0
 693 -291 693 -291 744 -333 c 128,-1,1
EndSplineSet
EndChar

StartChar: iogonek
Encoding: 303 303 239
Width: 1126
Flags: W
LayerCount: 2
Fore
SplineSet
766 -333 m 128,-1,1
 817 -375 817 -375 919 -375 c 0,2,3
 970 -375 970 -375 1015 -368 c 1,4,-1
 1015 -284 l 1,5,6
 988 -286 988 -286 960 -286 c 0,7,8
 901 -286 901 -286 875 -261 c 128,-1,9
 849 -236 849 -236 849 -198 c 0,10,11
 849 -153 849 -153 872 -111 c 0,12,13
 898 -64 898 -64 962 1 c 1,14,-1
 962 125 l 1,15,-1
 663 125 l 1,16,-1
 663 984 l 1,17,-1
 220 984 l 1,18,-1
 220 870 l 1,19,-1
 517 870 l 1,20,-1
 517 125 l 1,21,-1
 187 125 l 1,22,-1
 187 10 l 1,23,-1
 859 10 l 1,24,-1
 831 -16 l 2,25,26
 734 -111 734 -111 719 -183 c 0,27,28
 715 -214 715 -214 715 -226 c 0,29,0
 715 -291 715 -291 766 -333 c 128,-1,1
562.5 1415 m 128,-1,31
 510 1415 510 1415 477 1380 c 0,32,33
 441 1343 441 1343 441 1293 c 0,34,35
 441 1268 441 1268 450 1246 c 128,-1,36
 459 1224 459 1224 476 1206.5 c 128,-1,37
 493 1189 493 1189 515 1180 c 128,-1,38
 537 1171 537 1171 563 1171 c 128,-1,39
 589 1171 589 1171 611 1180 c 128,-1,40
 633 1189 633 1189 650 1206.5 c 128,-1,41
 667 1224 667 1224 676 1246 c 128,-1,42
 685 1268 685 1268 685 1293.5 c 128,-1,43
 685 1319 685 1319 676 1340.5 c 128,-1,44
 667 1362 667 1362 650 1380 c 0,45,30
 615 1415 615 1415 562.5 1415 c 128,-1,31
EndSplineSet
EndChar

StartChar: dotlessi
Encoding: 305 305 241
Width: 1126
Flags: W
LayerCount: 2
Fore
SplineSet
220 984 m 1,0,-1
 220 870 l 1,1,-1
 517 870 l 1,2,-1
 517 135 l 1,3,-1
 187 135 l 1,4,-1
 187 20 l 1,5,-1
 962 20 l 1,6,-1
 962 135 l 1,7,-1
 663 135 l 1,8,-1
 663 984 l 1,9,-1
 220 984 l 1,0,-1
EndSplineSet
EndChar

StartChar: IJ
Encoding: 306 306 242
Width: 1126
Flags: W
LayerCount: 2
Fore
SplineSet
490 149 m 1,0,-1
 490 22 l 1,1,2
 563 -2 563 -2 653 -2 c 128,-1,3
 743 -2 743 -2 808 24 c 0,4,5
 936 74 936 74 979 205 c 0,6,7
 1001 270 1001 270 1001 349 c 2,8,-1
 1001 1287 l 1,9,-1
 853 1287 l 1,10,-1
 853 364 l 2,11,12
 853 232 853 232 798 173.5 c 128,-1,13
 743 115 743 115 645 115 c 0,14,15
 578 115 578 115 490 149 c 1,0,-1
274 15 m 1,16,-1
 274 1292 l 1,17,-1
 126 1292 l 1,18,-1
 126 15 l 1,19,-1
 274 15 l 1,16,-1
EndSplineSet
EndChar

StartChar: ij
Encoding: 307 307 243
Width: 1126
Flags: W
LayerCount: 2
Fore
SplineSet
444.5 -399 m 128,-1,1
 497 -410 497 -410 563 -410 c 0,2,3
 654 -410 654 -410 725.5 -382.5 c 128,-1,4
 797 -355 797 -355 847.5 -301 c 128,-1,5
 898 -247 898 -247 925 -168 c 128,-1,6
 952 -89 952 -89 952 13 c 2,7,-1
 952 984 l 1,8,-1
 808 984 l 1,9,-1
 808 7 l 2,10,11
 808 -139 808 -139 745 -214.5 c 128,-1,12
 682 -290 682 -290 569 -290 c 0,13,14
 514 -290 514 -290 449 -278 c 0,15,16
 396 -269 396 -269 357 -254 c 1,17,-1
 357 -375 l 1,18,0
 392 -388 392 -388 444.5 -399 c 128,-1,1
319 984 m 1,19,-1
 175 984 l 1,20,-1
 175 10 l 1,21,-1
 319 10 l 1,22,-1
 319 984 l 1,19,-1
130.5 1336 m 128,-1,24
 121 1313 121 1313 121 1287 c 128,-1,25
 121 1261 121 1261 130.5 1238 c 128,-1,26
 140 1215 140 1215 157 1197.5 c 128,-1,27
 174 1180 174 1180 196.5 1170.5 c 128,-1,28
 219 1161 219 1161 246.5 1161 c 128,-1,29
 274 1161 274 1161 296.5 1170.5 c 128,-1,30
 319 1180 319 1180 336 1197.5 c 128,-1,31
 353 1215 353 1215 362.5 1238 c 128,-1,32
 372 1261 372 1261 372 1287 c 128,-1,33
 372 1313 372 1313 362.5 1336 c 128,-1,34
 353 1359 353 1359 336 1376.5 c 128,-1,35
 319 1394 319 1394 296.5 1403.5 c 128,-1,36
 274 1413 274 1413 246.5 1413 c 128,-1,37
 219 1413 219 1413 196.5 1403.5 c 128,-1,38
 174 1394 174 1394 157 1376.5 c 128,-1,23
 140 1359 140 1359 130.5 1336 c 128,-1,24
763.5 1336 m 128,-1,40
 754 1313 754 1313 754 1287 c 128,-1,41
 754 1261 754 1261 763.5 1238 c 128,-1,42
 773 1215 773 1215 790 1197.5 c 128,-1,43
 807 1180 807 1180 829.5 1170.5 c 128,-1,44
 852 1161 852 1161 879.5 1161 c 128,-1,45
 907 1161 907 1161 929.5 1170.5 c 128,-1,46
 952 1180 952 1180 969 1197.5 c 128,-1,47
 986 1215 986 1215 995.5 1238 c 128,-1,48
 1005 1261 1005 1261 1005 1287 c 128,-1,49
 1005 1313 1005 1313 995.5 1336 c 128,-1,50
 986 1359 986 1359 969 1376.5 c 128,-1,51
 952 1394 952 1394 929.5 1403.5 c 128,-1,52
 907 1413 907 1413 879.5 1413 c 128,-1,53
 852 1413 852 1413 829.5 1403.5 c 128,-1,54
 807 1394 807 1394 790 1376.5 c 128,-1,39
 773 1359 773 1359 763.5 1336 c 128,-1,40
EndSplineSet
EndChar

StartChar: Lslash
Encoding: 321 321 257
Width: 1126
Flags: W
LayerCount: 2
Fore
SplineSet
970 30 m 1,0,-1
 970 152 l 1,1,-1
 419 152 l 1,2,-1
 419 711 l 1,3,-1
 780 889 l 1,4,-1
 780 1013 l 1,5,-1
 419 836 l 1,6,-1
 419 1297 l 1,7,-1
 269 1297 l 1,8,-1
 269 761 l 1,9,-1
 60 654 l 1,10,-1
 60 530 l 1,11,-1
 269 636 l 1,12,-1
 269 30 l 1,13,-1
 970 30 l 1,0,-1
EndSplineSet
EndChar

StartChar: lslash
Encoding: 322 322 258
Width: 1126
Flags: W
LayerCount: 2
Fore
SplineSet
517 692 m 1,0,-1
 517 141 l 1,1,-1
 187 141 l 1,2,-1
 187 30 l 1,3,-1
 962 30 l 1,4,-1
 962 141 l 1,5,-1
 663 141 l 1,6,-1
 663 765 l 1,7,-1
 950 910 l 1,8,-1
 950 1034 l 1,9,-1
 663 888 l 1,10,-1
 663 1403 l 1,11,-1
 220 1403 l 1,12,-1
 220 1292 l 1,13,-1
 517 1292 l 1,14,-1
 517 815 l 1,15,-1
 230 670 l 1,16,-1
 230 550 l 1,17,-1
 517 692 l 1,0,-1
EndSplineSet
EndChar

StartChar: Eng
Encoding: 330 330 266
Width: 1126
Flags: W
LayerCount: 2
Fore
SplineSet
329 1287 m 1,0,-1
 134 1287 l 1,1,-1
 134 10 l 1,2,-1
 270 10 l 1,3,-1
 270 1138 l 1,4,-1
 421 822 l 1,5,-1
 849 10 l 1,6,-1
 849 7 l 2,7,8
 849 -139 849 -139 786 -213 c 0,9,10
 726 -285 726 -285 621 -290 c 1,11,-1
 619 -410 l 1,12,13
 701 -407 701 -407 769.5 -381 c 128,-1,14
 838 -355 838 -355 888.5 -301 c 128,-1,15
 939 -247 939 -247 966 -168 c 128,-1,16
 993 -89 993 -89 993 13 c 2,17,-1
 993 1287 l 1,18,-1
 857 1287 l 1,19,-1
 857 269 l 1,20,-1
 722 543 l 1,21,-1
 329 1287 l 1,0,-1
EndSplineSet
EndChar

StartChar: eng
Encoding: 331 331 267
Width: 1126
Flags: W
LayerCount: 2
Fore
SplineSet
300 994 m 1,0,-1
 175 994 l 1,1,-1
 175 4 l 1,2,-1
 319 4 l 1,3,-1
 319 671 l 1,4,5
 370 736 370 736 409.5 777.5 c 128,-1,6
 449 819 449 819 484 844.5 c 128,-1,7
 519 870 519 870 551 880 c 128,-1,8
 583 890 583 890 618 890 c 0,9,10
 808 890 808 890 808 642 c 2,11,-1
 808 9 l 2,12,13
 808 -137 808 -137 745 -213 c 0,14,15
 685 -285 685 -285 580 -290 c 1,16,-1
 578 -410 l 1,17,18
 660 -407 660 -407 728.5 -381 c 128,-1,19
 797 -355 797 -355 847.5 -301 c 128,-1,20
 898 -247 898 -247 925 -168 c 256,21,22
 952 -89 952 -89 952 14 c 2,23,-1
 952 657 l 2,24,25
 952 837 952 837 876.5 924.5 c 128,-1,26
 801 1012 801 1012 653 1012 c 0,27,28
 611 1012 611 1012 571.5 1003.5 c 128,-1,29
 532 995 532 995 494 975 c 0,30,31
 414 932 414 932 334 835 c 2,32,-1
 309 805 l 1,33,-1
 300 994 l 1,0,-1
EndSplineSet
EndChar

StartChar: OE
Encoding: 338 338 274
Width: 1126
Flags: W
LayerCount: 2
Fore
SplineSet
1058 618 m 1,0,-1
 1058 735 l 1,1,-1
 749 735 l 1,2,-1
 749 1179 l 1,3,-1
 1079 1179 l 1,4,-1
 1079 1297 l 1,5,-1
 725 1297 l 2,6,7
 697 1297 697 1297 626 1304 c 128,-1,8
 555 1311 555 1311 510 1311 c 0,9,10
 415 1311 415 1311 331 1272.5 c 128,-1,11
 247 1234 247 1234 184.5 1153 c 128,-1,12
 122 1072 122 1072 84 946 c 128,-1,13
 46 820 46 820 46 654 c 128,-1,14
 46 488 46 488 74 365 c 0,15,16
 130 122 130 122 301 38 c 0,17,18
 387 -4 387 -4 506 -4 c 0,19,20
 548 -4 548 -4 601 3 c 128,-1,21
 654 10 654 10 729 10 c 2,22,-1
 1079 10 l 1,23,-1
 1079 128 l 1,24,-1
 749 128 l 1,25,-1
 749 618 l 1,26,-1
 1058 618 l 1,0,-1
364.5 1151 m 128,-1,28
 425 1194 425 1194 510 1194 c 0,29,30
 552 1194 552 1194 607 1182 c 1,31,-1
 607 136 l 1,32,33
 575 128 575 128 556 125.5 c 128,-1,34
 537 123 537 123 516 123 c 0,35,36
 355 123 355 123 274 264 c 0,37,38
 194 402 194 402 194 658 c 0,39,40
 194 768 194 768 211 865 c 128,-1,41
 228 962 228 962 266 1035 c 128,-1,27
 304 1108 304 1108 364.5 1151 c 128,-1,28
EndSplineSet
EndChar

StartChar: oe
Encoding: 339 339 275
Width: 1126
Flags: W
LayerCount: 2
Fore
SplineSet
697 205 m 0,0,1
 649 292 649 292 649 458 c 2,2,-1
 649 473 l 1,3,-1
 1073 473 l 1,4,5
 1075 495 1075 495 1075 555 c 0,6,7
 1075 666 1075 666 1056.5 752 c 128,-1,8
 1038 838 1038 838 1004 896 c 128,-1,9
 970 954 970 954 921 983 c 0,10,11
 873 1012 873 1012 811 1012 c 0,12,13
 731 1012 731 1012 680 970 c 0,14,15
 635 930 635 930 598 847 c 2,16,-1
 584 817 l 1,17,-1
 570 847 l 2,18,19
 531 934 531 934 481 973 c 128,-1,20
 431 1012 431 1012 356.5 1012 c 128,-1,21
 282 1012 282 1012 226 977 c 0,22,23
 113 907 113 907 74 713 c 0,24,25
 54 615 54 615 54 487 c 0,26,27
 54 227 54 227 127 106 c 0,28,29
 163 47 163 47 216 19.5 c 128,-1,30
 269 -8 269 -8 342.5 -8 c 128,-1,31
 416 -8 416 -8 470 34.5 c 128,-1,32
 524 77 524 77 557 159 c 2,33,-1
 573 195 l 1,34,-1
 585 158 l 2,35,36
 615 74 615 74 681 33 c 128,-1,37
 747 -8 747 -8 834 -8 c 0,38,39
 893 -8 893 -8 946.5 3.5 c 128,-1,40
 1000 15 1000 15 1040 32 c 1,41,-1
 1040 147 l 1,42,43
 1005 134 1005 134 957 123.5 c 128,-1,44
 909 113 909 113 850 113 c 0,45,46
 747 113 747 113 697 205 c 0,0,1
417 864 m 0,47,48
 504 795 504 795 504 500 c 0,49,50
 504 250 504 250 439 163 c 0,51,52
 403 117 403 117 350 117 c 0,53,54
 263 117 263 117 224 211 c 0,55,56
 205 256 205 256 196.5 327.5 c 128,-1,57
 188 399 188 399 188 500 c 0,58,59
 188 696 188 696 227 790 c 0,60,61
 268 887 268 887 350 887 c 0,62,63
 388 887 388 887 417 864 c 0,47,48
943 597 m 2,64,-1
 943 568 l 1,65,-1
 649 568 l 1,66,-1
 649 583 l 2,67,68
 651 723 651 723 685 802 c 0,69,70
 722 887 722 887 801 887 c 0,71,72
 833 887 833 887 860 868 c 0,73,74
 914 832 914 832 934 719 c 0,75,76
 943 667 943 667 943 597 c 2,64,-1
EndSplineSet
EndChar

StartChar: Scedilla
Encoding: 350 350 286
Width: 1126
Flags: W
LayerCount: 2
Fore
SplineSet
375 1134 m 128,-1,1
 452 1189 452 1189 610 1189 c 0,2,3
 749 1189 749 1189 898 1149 c 1,4,-1
 898 1279 l 1,5,6
 838 1292 838 1292 761 1303 c 0,7,8
 680 1315 680 1315 614 1315 c 0,9,10
 489 1315 489 1315 399 1284.5 c 128,-1,11
 309 1254 309 1254 252 1205.5 c 128,-1,12
 195 1157 195 1157 168.5 1094.5 c 128,-1,13
 142 1032 142 1032 142 968 c 0,14,15
 142 894 142 894 170 840.5 c 128,-1,16
 198 787 198 787 244.5 746.5 c 128,-1,17
 291 706 291 706 351 676 c 128,-1,18
 411 646 411 646 475 620 c 128,-1,19
 539 594 539 594 600.5 569 c 128,-1,20
 662 544 662 544 712 513.5 c 128,-1,21
 762 483 762 483 794 442 c 128,-1,22
 826 401 826 401 826 345 c 128,-1,23
 826 289 826 289 807 248 c 128,-1,24
 788 207 788 207 747 177 c 0,25,26
 665 121 665 121 492 121 c 0,27,28
 372 121 372 121 283.5 136 c 128,-1,29
 195 151 195 151 126 176 c 1,30,-1
 126 34 l 1,31,32
 232 7 232 7 371 -4 c 0,33,34
 417 -7 417 -7 475 -8 c 1,35,-1
 413 -285 l 1,36,-1
 535 -285 l 1,37,-1
 619 3 l 1,38,-1
 628 5 l 1,39,40
 760 27 760 27 834.5 78 c 128,-1,41
 909 129 909 129 945.5 196 c 128,-1,42
 982 263 982 263 982 353 c 0,43,44
 982 427 982 427 954 481.5 c 128,-1,45
 926 536 926 536 879.5 577.5 c 128,-1,46
 833 619 833 619 773 649.5 c 128,-1,47
 713 680 713 680 649 706 c 2,48,-1
 523 756 l 2,49,50
 461 781 461 781 411.5 813 c 128,-1,51
 362 845 362 845 330 886 c 128,-1,52
 298 927 298 927 298 985 c 0,53,0
 298 1079 298 1079 375 1134 c 128,-1,1
EndSplineSet
EndChar

StartChar: scedilla
Encoding: 351 351 287
Width: 1126
Flags: W
LayerCount: 2
Fore
SplineSet
723 147 m 0,0,1
 659 111 659 111 530 111 c 0,2,3
 368 111 368 111 197 158 c 1,4,-1
 197 28 l 1,5,6
 327 -3 327 -3 481 -7 c 1,7,-1
 493 -7 l 1,8,-1
 499 -7 l 1,9,-1
 438 -285 l 1,10,-1
 559 -285 l 1,11,-1
 643 3 l 1,12,-1
 646 3 l 1,13,14
 848 39 848 39 917 168 c 0,15,16
 940 213 940 213 940 270 c 128,-1,17
 940 327 940 327 924.5 368 c 128,-1,18
 909 409 909 409 873 442 c 128,-1,19
 837 475 837 475 777.5 503 c 128,-1,20
 718 531 718 531 633 556.5 c 128,-1,21
 548 582 548 582 496 603 c 128,-1,22
 444 624 444 624 413 646.5 c 128,-1,23
 382 669 382 669 370 694 c 128,-1,24
 358 719 358 719 358 750 c 128,-1,25
 358 781 358 781 372 808 c 0,26,27
 400 864 400 864 493 885 c 0,28,29
 539 895 539 895 600 895 c 0,30,31
 723 895 723 895 874 859 c 1,32,-1
 874 985 l 1,33,34
 741 1012 741 1012 608 1012 c 0,35,36
 491 1012 491 1012 413 984 c 0,37,38
 336 956 336 956 291 914.5 c 128,-1,39
 246 873 246 873 228 826 c 128,-1,40
 210 779 210 779 210 740 c 0,41,42
 210 679 210 679 232.5 634.5 c 128,-1,43
 255 590 255 590 295 556.5 c 128,-1,44
 335 523 335 523 391 498 c 128,-1,45
 447 473 447 473 526 449 c 0,46,47
 690 400 690 400 740 361 c 0,48,49
 768 339 768 339 779 314 c 128,-1,50
 790 289 790 289 790 258 c 0,51,52
 790 186 790 186 723 147 c 0,0,1
EndSplineSet
EndChar

StartChar: Tbar
Encoding: 358 358 294
Width: 1126
Flags: W
LayerCount: 2
Fore
SplineSet
488 10 m 1,0,-1
 638 10 l 1,1,-1
 638 587 l 1,2,-1
 905 587 l 1,3,-1
 905 706 l 1,4,-1
 638 706 l 1,5,-1
 638 1155 l 1,6,-1
 1025 1155 l 1,7,-1
 1025 1277 l 1,8,-1
 101 1277 l 1,9,-1
 101 1155 l 1,10,-1
 488 1155 l 1,11,-1
 488 706 l 1,12,-1
 222 706 l 1,13,-1
 222 587 l 1,14,-1
 488 587 l 1,15,-1
 488 10 l 1,0,-1
EndSplineSet
EndChar

StartChar: tbar
Encoding: 359 359 295
Width: 1126
Flags: W
LayerCount: 2
Fore
SplineSet
119 577 m 1,0,-1
 119 461 l 1,1,-1
 359 461 l 1,2,-1
 359 331 l 2,3,4
 359 160 359 160 447.5 78 c 128,-1,5
 536 -4 536 -4 719 -4 c 0,6,7
 850 -4 850 -4 954 21 c 1,8,-1
 954 143 l 1,9,10
 843 115 843 115 745 115 c 0,11,12
 627 115 627 115 565 173 c 128,-1,13
 503 231 503 231 503 345 c 2,14,-1
 503 462 l 1,15,-1
 892 462 l 1,16,-1
 892 578 l 1,17,-1
 503 578 l 1,18,-1
 503 872 l 1,19,-1
 954 872 l 1,20,-1
 954 989 l 1,21,-1
 503 989 l 1,22,-1
 503 1311 l 1,23,-1
 359 1273 l 1,24,-1
 359 990 l 1,25,-1
 78 990 l 1,26,-1
 78 873 l 1,27,-1
 359 873 l 1,28,-1
 359 577 l 1,29,-1
 119 577 l 1,0,-1
EndSplineSet
EndChar

StartChar: Uogonek
Encoding: 370 370 306
Width: 1126
Flags: W
LayerCount: 2
Fore
SplineSet
272 1297 m 1,0,-1
 124 1297 l 1,1,-1
 124 440 l 2,2,3
 124 239 124 239 217 131 c 1,4,-1
 217 131 l 1,5,6
 265 69 265 69 342.5 32.5 c 128,-1,7
 420 -4 420 -4 532 -7 c 2,8,-1
 567 -8 l 1,9,-1
 543 -33 l 2,10,11
 460 -118 460 -118 447 -185 c 0,12,13
 443 -205 443 -205 443 -226 c 0,14,15
 443 -291 443 -291 494 -333 c 128,-1,16
 545 -375 545 -375 647 -375 c 0,17,18
 698 -375 698 -375 743 -368 c 1,19,-1
 743 -284 l 1,20,21
 716 -286 716 -286 688 -286 c 0,22,23
 630 -286 630 -286 603.5 -261 c 128,-1,24
 577 -236 577 -236 577 -198 c 0,25,26
 577 -153 577 -153 600 -111 c 0,27,28
 626 -59 626 -59 697 18 c 1,29,30
 845 56 845 56 925 180 c 1,31,-1
 925 180 l 1,32,33
 963 235 963 235 983 307.5 c 128,-1,34
 1003 380 1003 380 1003 466 c 2,35,-1
 1003 1297 l 1,36,-1
 855 1297 l 1,37,-1
 855 456 l 2,38,39
 855 304 855 304 783.5 217 c 128,-1,40
 712 130 712 130 563 130 c 0,41,42
 484 130 484 130 429 152 c 0,43,44
 318 194 318 194 287 317 c 0,45,46
 272 376 272 376 272 454 c 2,47,-1
 272 1297 l 1,0,-1
EndSplineSet
EndChar

StartChar: uogonek
Encoding: 371 371 307
Width: 1126
Flags: W
LayerCount: 2
Fore
SplineSet
709 -183 m 0,0,1
 705 -204 705 -204 705 -226 c 0,2,3
 705 -291 705 -291 756 -333 c 128,-1,4
 807 -375 807 -375 909 -375 c 0,5,6
 960 -375 960 -375 1005 -368 c 1,7,-1
 1005 -284 l 1,8,9
 978 -286 978 -286 950 -286 c 0,10,11
 891 -286 891 -286 865 -261 c 128,-1,12
 839 -236 839 -236 839 -198 c 0,13,14
 839 -153 839 -153 862 -111 c 0,15,16
 888 -64 888 -64 952 1 c 1,17,-1
 952 984 l 1,18,-1
 808 984 l 1,19,-1
 808 328 l 1,20,21
 757 262 757 262 717.5 221 c 128,-1,22
 678 180 678 180 642.5 155.5 c 128,-1,23
 607 131 607 131 575 121 c 128,-1,24
 543 111 543 111 508 111 c 0,25,26
 403 111 403 111 356 189 c 0,27,28
 319 251 319 251 319 357 c 2,29,-1
 319 984 l 1,30,-1
 175 984 l 1,31,-1
 175 343 l 2,32,33
 175 165 175 165 250 78.5 c 128,-1,34
 325 -8 325 -8 473 -8 c 0,35,36
 516 -8 516 -8 555 0 c 0,37,38
 633 17 633 17 710 82 c 0,39,40
 749 116 749 116 793 167 c 0,41,42
 810 186 810 186 819 196 c 1,43,-1
 826 -11 l 1,44,45
 784 -53 784 -53 760 -83 c 0,46,47
 718 -139 718 -139 709 -183 c 0,0,1
EndSplineSet
EndChar

StartChar: longs
Encoding: 383 383 319
Width: 1126
Flags: W
LayerCount: 2
Fore
SplineSet
337 1165.5 m 128,-1,1
 304 1081 304 1081 304 966 c 2,2,-1
 304 20 l 1,3,-1
 452 20 l 1,4,-1
 452 984 l 2,5,6
 452 1147 452 1147 532.5 1224.5 c 128,-1,7
 613 1302 613 1302 770 1302 c 0,8,9
 833 1302 833 1302 884 1297 c 0,10,11
 964 1288 964 1288 1015 1278 c 1,12,-1
 1015 1394 l 1,13,14
 961 1404 961 1404 893.5 1410.5 c 128,-1,15
 826 1417 826 1417 760 1417 c 0,16,17
 658 1417 658 1417 574 1389.5 c 128,-1,18
 490 1362 490 1362 430 1306 c 128,-1,0
 370 1250 370 1250 337 1165.5 c 128,-1,1
EndSplineSet
EndChar

StartChar: uni0180
Encoding: 384 384 320
Width: 1126
Flags: W
LayerCount: 2
Fore
SplineSet
608 1157 m 1,0,-1
 608 1272 l 1,1,-1
 319 1272 l 1,2,-1
 319 1403 l 1,3,-1
 175 1403 l 1,4,-1
 175 1272 l 1,5,-1
 15 1272 l 1,6,-1
 15 1157 l 1,7,-1
 175 1157 l 1,8,-1
 175 65 l 1,9,10
 260 31 260 31 349 14.5 c 128,-1,11
 438 -2 438 -2 526 -2 c 0,12,13
 637 -2 637 -2 725 33.5 c 128,-1,14
 813 69 813 69 874.5 136 c 128,-1,15
 936 203 936 203 969.5 300 c 128,-1,16
 1003 397 1003 397 1003 515 c 0,17,18
 1003 751 1003 751 918 880 c 0,19,20
 875 943 875 943 813.5 977.5 c 128,-1,21
 752 1012 752 1012 670 1012 c 0,22,23
 575 1012 575 1012 493 972 c 128,-1,24
 411 932 411 932 338 834 c 2,25,-1
 309 795 l 1,26,-1
 319 1029 l 1,27,-1
 319 1157 l 1,28,-1
 608 1157 l 1,0,-1
843 658 m 0,29,30
 855 591 855 591 855 512 c 0,31,32
 855 401 855 401 829.5 326.5 c 128,-1,33
 804 252 804 252 760.5 205 c 128,-1,34
 717 158 717 158 659.5 138.5 c 128,-1,35
 602 119 602 119 539 119 c 0,36,37
 439 119 439 119 319 166 c 1,38,-1
 319 662 l 1,39,40
 368 726 368 726 410 767 c 128,-1,41
 452 808 452 808 489 833 c 0,42,43
 560 880 560 880 635 880 c 0,44,45
 694 880 694 880 736 852 c 0,46,47
 819 796 819 796 843 658 c 0,29,30
EndSplineSet
EndChar

StartChar: uni0181
Encoding: 385 385 321
Width: 1126
Flags: W
LayerCount: 2
Fore
SplineSet
92.5 1226 m 128,-1,1
 15 1160 15 1160 15 1032 c 0,2,3
 15 986 15 986 29 932 c 1,4,-1
 141 932 l 1,5,-1
 135 954 l 2,6,7
 127 986 127 986 127 1026 c 0,8,9
 127 1049 127 1049 132 1071 c 0,10,11
 143 1120 143 1120 197 1146 c 0,12,13
 223 1161 223 1161 266 1167 c 2,14,-1
 283 1170 l 1,15,-1
 283 15 l 1,16,-1
 500 15 l 2,17,18
 615 15 615 15 708.5 40.5 c 128,-1,19
 802 66 802 66 866.5 114 c 128,-1,20
 931 162 931 162 966 231 c 128,-1,21
 1001 300 1001 300 1001 391 c 0,22,23
 1001 453 1001 453 981 502.5 c 128,-1,24
 961 552 961 552 927 588 c 128,-1,25
 893 624 893 624 847.5 646.5 c 128,-1,26
 802 669 802 669 751 679 c 2,27,-1
 695 689 l 1,28,-1
 749 709 l 1,29,30
 859 743 859 743 906.5 815.5 c 128,-1,31
 954 888 954 888 954 989 c 0,32,33
 954 1157 954 1157 826 1232 c 0,34,35
 723 1292 723 1292 532 1292 c 2,36,-1
 321 1292 l 2,37,0
 170 1292 170 1292 92.5 1226 c 128,-1,1
819.5 481.5 m 128,-1,39
 842 438 842 438 842 385 c 0,40,41
 842 257 842 257 762 196 c 128,-1,42
 682 135 682 135 524 135 c 2,43,-1
 431 135 l 1,44,-1
 431 615 l 1,45,-1
 518 615 l 2,46,47
 592 615 592 615 651.5 599.5 c 128,-1,48
 711 584 711 584 754 554.5 c 128,-1,38
 797 525 797 525 819.5 481.5 c 128,-1,39
786 1043 m 128,-1,50
 799 1005 799 1005 799 962 c 0,51,52
 799 904 799 904 778 860.5 c 128,-1,53
 757 817 757 817 719 788 c 0,54,55
 645 733 645 733 514 733 c 2,56,-1
 431 733 l 1,57,-1
 431 1167 l 1,58,-1
 520 1167 l 2,59,60
 670 1167 670 1167 739 1109 c 0,61,49
 773 1081 773 1081 786 1043 c 128,-1,50
EndSplineSet
EndChar

StartChar: uni0183
Encoding: 387 387 323
Width: 1126
Flags: W
LayerCount: 2
Fore
SplineSet
319 1029 m 1,0,-1
 319 1288 l 1,1,-1
 878 1288 l 1,2,-1
 878 1403 l 1,3,-1
 175 1403 l 1,4,-1
 175 65 l 1,5,6
 260 31 260 31 349 14.5 c 128,-1,7
 438 -2 438 -2 526 -2 c 0,8,9
 637 -2 637 -2 725 33.5 c 128,-1,10
 813 69 813 69 874.5 136 c 128,-1,11
 936 203 936 203 969.5 300 c 128,-1,12
 1003 397 1003 397 1003 515 c 0,13,14
 1003 751 1003 751 918 880 c 0,15,16
 875 943 875 943 813.5 977.5 c 128,-1,17
 752 1012 752 1012 670 1012 c 0,18,19
 575 1012 575 1012 493 972 c 128,-1,20
 411 932 411 932 338 834 c 2,21,-1
 309 795 l 1,22,-1
 319 1029 l 1,0,-1
843 658 m 0,23,24
 855 591 855 591 855 512 c 0,25,26
 855 401 855 401 829.5 326.5 c 128,-1,27
 804 252 804 252 760.5 205 c 128,-1,28
 717 158 717 158 659.5 138.5 c 128,-1,29
 602 119 602 119 539 119 c 0,30,31
 439 119 439 119 319 166 c 1,32,-1
 319 662 l 1,33,34
 368 726 368 726 410 767 c 128,-1,35
 452 808 452 808 489 833 c 0,36,37
 560 880 560 880 635 880 c 0,38,39
 694 880 694 880 736 852 c 0,40,41
 819 796 819 796 843 658 c 0,23,24
EndSplineSet
EndChar

StartChar: uni0184
Encoding: 388 388 324
Width: 1126
Flags: W
LayerCount: 2
Fore
SplineSet
753.5 727.5 m 128,-1,1
 664 755 664 755 547 755 c 2,2,-1
 321 755 l 1,3,-1
 321 1292 l 1,4,5
 284 1292 284 1292 235.5 1278 c 128,-1,6
 187 1264 187 1264 144.5 1240 c 128,-1,7
 102 1216 102 1216 74.5 1187 c 128,-1,8
 47 1158 47 1158 47 1130 c 0,9,10
 47 1108 47 1108 86 1079 c 0,11,12
 118 1055 118 1055 173 1031 c 1,13,-1
 173 15 l 1,14,-1
 528 15 l 2,15,16
 641 15 641 15 732 42 c 128,-1,17
 823 69 823 69 887 118.5 c 128,-1,18
 951 168 951 168 986 239.5 c 128,-1,19
 1021 311 1021 311 1021 401 c 0,20,21
 1021 476 1021 476 991 540 c 128,-1,22
 961 604 961 604 902 652 c 128,-1,0
 843 700 843 700 753.5 727.5 c 128,-1,1
783 571 m 0,23,24
 863 505 863 505 863 389 c 0,25,26
 863 267 863 267 781.5 201 c 128,-1,27
 700 135 700 135 541 135 c 2,28,-1
 321 135 l 1,29,-1
 321 638 l 1,30,-1
 535 638 l 2,31,32
 701 638 701 638 783 571 c 0,23,24
EndSplineSet
EndChar

StartChar: uni0185
Encoding: 389 389 325
Width: 1126
Flags: W
LayerCount: 2
Fore
SplineSet
843 658 m 0,0,1
 855 591 855 591 855 512 c 0,2,3
 855 401 855 401 829.5 326.5 c 128,-1,4
 804 252 804 252 760.5 205 c 128,-1,5
 717 158 717 158 659.5 138.5 c 128,-1,6
 602 119 602 119 539 119 c 0,7,8
 439 119 439 119 319 166 c 1,9,-1
 319 662 l 1,10,11
 368 726 368 726 410 767 c 128,-1,12
 452 808 452 808 489 833 c 0,13,14
 560 880 560 880 635 880 c 0,15,16
 694 880 694 880 736 852 c 0,17,18
 819 796 819 796 843 658 c 0,0,1
87 1084 m 0,19,20
 118 1061 118 1061 175 1036 c 1,21,-1
 175 65 l 1,22,23
 343 -2 343 -2 526 -2 c 0,24,25
 637 -2 637 -2 725 33.5 c 128,-1,26
 813 69 813 69 874.5 136 c 128,-1,27
 936 203 936 203 969.5 300 c 128,-1,28
 1003 397 1003 397 1003 515 c 0,29,30
 1003 751 1003 751 918 880 c 0,31,32
 875 943 875 943 813.5 977.5 c 128,-1,33
 752 1012 752 1012 670 1012 c 0,34,35
 575 1012 575 1012 496.5 972 c 128,-1,36
 418 932 418 932 346 834 c 2,37,-1
 319 796 l 1,38,-1
 319 1297 l 1,39,40
 282 1297 282 1297 234.5 1283 c 128,-1,41
 187 1269 187 1269 144.5 1245 c 128,-1,42
 102 1221 102 1221 74.5 1192 c 128,-1,43
 47 1163 47 1163 47 1135 c 0,44,45
 47 1114 47 1114 87 1084 c 0,19,20
EndSplineSet
EndChar

StartChar: uni0186
Encoding: 390 390 326
Width: 1126
Flags: W
LayerCount: 2
Fore
SplineSet
286 8 m 128,-1,1
 360 -6 360 -6 450 -6 c 0,2,3
 581 -6 581 -6 686 35 c 0,4,5
 900 118 900 118 979 368 c 0,6,7
 1019 495 1019 495 1019 666 c 128,-1,8
 1019 837 1019 837 982 959 c 0,9,10
 908 1200 908 1200 700 1276 c 0,11,12
 595 1313 595 1313 460 1313 c 0,13,14
 374 1313 374 1313 304 1300.5 c 128,-1,15
 234 1288 234 1288 168 1261 c 1,16,-1
 168 1129 l 1,17,18
 264 1174 264 1174 359 1185 c 0,19,20
 397 1189 397 1189 440 1189 c 0,21,22
 646 1189 646 1189 753 1056 c 128,-1,23
 860 923 860 923 860 652 c 0,24,25
 860 522 860 522 831.5 422.5 c 128,-1,26
 803 323 803 323 748.5 255.5 c 128,-1,27
 694 188 694 188 616.5 154 c 128,-1,28
 539 120 539 120 445 120 c 128,-1,29
 351 120 351 120 280 139 c 128,-1,30
 209 158 209 158 146 191 c 1,31,-1
 146 51 l 1,32,0
 212 22 212 22 286 8 c 128,-1,1
EndSplineSet
EndChar

StartChar: uni0187
Encoding: 391 391 327
Width: 1126
Flags: W
LayerCount: 2
Fore
SplineSet
980 1110 m 1,0,-1
 980 1296 l 2,1,2
 980 1438 980 1438 1051 1463 c 0,3,4
 1072 1470 1072 1470 1092 1470 c 128,-1,5
 1112 1470 1112 1470 1128 1468.5 c 128,-1,6
 1144 1467 1144 1467 1159 1463 c 1,7,-1
 1159 1569 l 1,8,9
 1119 1577 1119 1577 1070 1577 c 0,10,11
 964 1577 964 1577 911 1519 c 0,12,13
 855 1457 855 1457 847 1314 c 1,14,15
 847 1314 847 1314 845 1297 c 1,16,17
 793 1306 793 1306 755.5 1309.5 c 128,-1,18
 718 1313 718 1313 676 1313 c 0,19,20
 545 1313 545 1313 440 1266 c 128,-1,21
 335 1219 335 1219 261 1132.5 c 128,-1,22
 187 1046 187 1046 147 920.5 c 128,-1,23
 107 795 107 795 107 639 c 0,24,25
 107 318 107 318 251 156 c 128,-1,26
 395 -6 395 -6 666 -6 c 0,27,28
 828 -6 828 -6 980 55 c 1,29,-1
 980 191 l 1,30,31
 917 162 917 162 845 143.5 c 128,-1,32
 773 125 773 125 686 125 c 0,33,34
 479 125 479 125 372.5 258.5 c 128,-1,35
 266 392 266 392 266 654 c 0,36,37
 266 778 266 778 294.5 875 c 128,-1,38
 323 972 323 972 377.5 1040.5 c 128,-1,39
 432 1109 432 1109 509.5 1145 c 128,-1,40
 587 1181 587 1181 681 1181 c 128,-1,41
 775 1181 775 1181 846 1161.5 c 128,-1,42
 917 1142 917 1142 980 1110 c 1,0,-1
EndSplineSet
EndChar

StartChar: uni0188
Encoding: 392 392 328
Width: 1126
Flags: W
LayerCount: 2
Fore
SplineSet
447 28 m 0,0,1
 537 -4 537 -4 653 -4 c 0,2,3
 796 -4 796 -4 925 43 c 1,4,-1
 925 173 l 1,5,6
 807 117 807 117 674 117 c 0,7,8
 511 117 511 117 418 213 c 128,-1,9
 325 309 325 309 325 497 c 0,10,11
 325 588 325 588 352 660 c 128,-1,12
 379 732 379 732 426 782.5 c 128,-1,13
 473 833 473 833 535.5 859.5 c 128,-1,14
 598 886 598 886 670 886 c 0,15,16
 805 886 805 886 925 829 c 1,17,-1
 925 971 l 2,18,19
 925 1052 925 1052 961 1091 c 0,20,21
 993 1125 993 1125 1048 1125 c 0,22,23
 1076 1125 1076 1125 1086.5 1122.5 c 128,-1,24
 1097 1120 1097 1120 1104 1118 c 1,25,-1
 1104 1228 l 1,26,27
 1068 1234 1068 1234 1023.5 1234 c 128,-1,28
 979 1234 979 1234 940 1223 c 0,29,30
 863 1200 863 1200 827 1119 c 0,31,32
 808 1077 808 1077 802 1014 c 2,33,-1
 800 998 l 1,34,35
 730 1008 730 1008 664 1008 c 0,36,37
 555 1008 555 1008 465 971.5 c 128,-1,38
 375 935 375 935 310 867 c 128,-1,39
 245 799 245 799 209 704 c 128,-1,40
 173 609 173 609 173 489 c 128,-1,41
 173 369 173 369 205 277 c 0,42,43
 269 91 269 91 447 28 c 0,0,1
EndSplineSet
EndChar

StartChar: uni018A
Encoding: 394 394 330
Width: 1126
Flags: W
LayerCount: 2
Fore
SplineSet
92.5 1226 m 128,-1,1
 15 1160 15 1160 15 1032 c 0,2,3
 15 986 15 986 29 932 c 1,4,-1
 141 932 l 1,5,-1
 135 954 l 2,6,7
 127 986 127 986 127 1026 c 128,-1,8
 127 1066 127 1066 141 1093 c 0,9,10
 157 1128 157 1128 200 1148 c 0,11,12
 225 1161 225 1161 266 1167 c 2,13,-1
 283 1170 l 1,14,-1
 283 15 l 1,15,-1
 402 15 l 2,16,17
 634 15 634 15 781 103 c 0,18,19
 852 145 852 145 900 203 c 0,20,21
 996 319 996 319 1024 491 c 0,22,23
 1038 575 1038 575 1038 668 c 0,24,25
 1038 986 1038 986 895 1139 c 128,-1,26
 752 1292 752 1292 458 1292 c 2,27,-1
 336 1292 l 2,28,0
 170 1292 170 1292 92.5 1226 c 128,-1,1
855 889 m 0,29,30
 881 791 881 791 881 650 c 0,31,32
 881 423 881 423 797 295 c 0,33,34
 692 134 692 134 455 134 c 2,35,-1
 431 134 l 1,36,-1
 431 1167 l 1,37,-1
 456 1167 l 2,38,39
 563 1167 563 1167 643 1140 c 0,40,41
 805 1084 805 1084 855 889 c 0,29,30
EndSplineSet
EndChar

StartChar: uni018B
Encoding: 395 395 331
Width: 1126
Flags: W
LayerCount: 2
Fore
SplineSet
953 1292 m 1,0,-1
 197 1292 l 1,1,-1
 197 1172 l 1,2,-1
 805 1172 l 1,3,-1
 805 755 l 1,4,-1
 579 755 l 2,5,6
 462 755 462 755 372.5 727.5 c 128,-1,7
 283 700 283 700 224 652 c 128,-1,8
 165 604 165 604 135 540 c 128,-1,9
 105 476 105 476 105 401 c 0,10,11
 105 311 105 311 140 239.5 c 128,-1,12
 175 168 175 168 239 118.5 c 128,-1,13
 303 69 303 69 394 42 c 128,-1,14
 485 15 485 15 598 15 c 2,15,-1
 953 15 l 1,16,-1
 953 1292 l 1,0,-1
345 201.5 m 128,-1,18
 263 268 263 268 263 389 c 0,19,20
 263 505 263 505 343 571 c 0,21,22
 425 638 425 638 591 638 c 2,23,-1
 805 638 l 1,24,-1
 805 135 l 1,25,-1
 585 135 l 2,26,17
 427 135 427 135 345 201.5 c 128,-1,18
EndSplineSet
EndChar

StartChar: uni018C
Encoding: 396 396 332
Width: 1126
Flags: W
LayerCount: 2
Fore
SplineSet
158 705 m 128,-1,1
 124 607 124 607 124 481 c 0,2,3
 124 370 124 370 145.5 279 c 128,-1,4
 167 188 167 188 209 124.5 c 128,-1,5
 251 61 251 61 313 26.5 c 128,-1,6
 375 -8 375 -8 457 -8 c 0,7,8
 552 -8 552 -8 633.5 41.5 c 128,-1,9
 715 91 715 91 787 195 c 2,10,-1
 812 233 l 1,11,-1
 820 10 l 1,12,-1
 946 10 l 1,13,-1
 946 1403 l 1,14,-1
 242 1403 l 1,15,-1
 242 1288 l 1,16,-1
 801 1288 l 1,17,-1
 801 977 l 1,18,-1
 782 981 l 1,19,20
 697 1006 697 1006 600 1006 c 0,21,22
 492 1006 492 1006 404.5 971 c 128,-1,23
 317 936 317 936 254.5 869.5 c 128,-1,0
 192 803 192 803 158 705 c 128,-1,1
328 216 m 0,24,25
 272 308 272 308 272 492 c 0,26,27
 272 691 272 691 355.5 786.5 c 128,-1,28
 439 882 439 882 588 882 c 0,29,30
 703 882 703 882 801 836 c 1,31,-1
 801 362 l 1,32,33
 716 242 716 242 640 181.5 c 128,-1,34
 564 121 564 121 492 121 c 0,35,36
 385 121 385 121 328 216 c 0,24,25
EndSplineSet
EndChar

StartChar: uni018D
Encoding: 397 397 333
Width: 1126
Flags: W
LayerCount: 2
Fore
SplineSet
966.5 763.5 m 128,-1,1
 995 847 995 847 995 946 c 128,-1,2
 995 1045 995 1045 968 1132 c 0,3,4
 942 1217 942 1217 888.5 1280.5 c 128,-1,5
 835 1344 835 1344 755.5 1379.5 c 128,-1,6
 676 1415 676 1415 568 1415 c 0,7,8
 403 1415 403 1415 299 1338 c 0,9,10
 250 1301 250 1301 217 1256 c 0,11,12
 151 1166 151 1166 133 1048 c 0,13,14
 124 991 124 991 124 941 c 0,15,16
 124 872 124 872 135.5 818 c 128,-1,17
 147 764 147 764 176 706.5 c 128,-1,18
 205 649 205 649 253 593.5 c 128,-1,19
 301 538 301 538 383 467 c 2,20,-1
 518 348 l 2,21,22
 543 326 543 326 563 308 c 0,23,24
 603 270 603 270 616 234 c 0,25,26
 623 215 623 215 623 193 c 0,27,28
 623 153 623 153 585 130 c 0,29,30
 549 109 549 109 473 109 c 0,31,32
 363 109 363 109 223 140 c 1,33,-1
 223 19 l 1,34,35
 403 -7 403 -7 467 -8 c 0,36,37
 540 -8 540 -8 601 8 c 0,38,39
 719 39 719 39 757 118 c 0,40,41
 776 157 776 157 776 202 c 0,42,43
 776 261 776 261 748.5 311 c 128,-1,44
 721 361 721 361 660 417 c 2,45,-1
 642 433 l 1,46,-1
 664 442 l 2,47,48
 727 467 727 467 785 508.5 c 128,-1,49
 843 550 843 550 890.5 615 c 128,-1,0
 938 680 938 680 966.5 763.5 c 128,-1,1
285 862 m 0,50,51
 277 905 277 905 277 951 c 0,52,53
 277 1035 277 1035 293.5 1093.5 c 128,-1,54
 310 1152 310 1152 343.5 1198 c 128,-1,55
 377 1244 377 1244 429 1270 c 128,-1,56
 481 1296 481 1296 550 1296 c 128,-1,57
 619 1296 619 1296 674.5 1269.5 c 128,-1,58
 730 1243 730 1243 769 1195 c 128,-1,59
 808 1147 808 1147 827.5 1080 c 128,-1,60
 847 1013 847 1013 847 933 c 0,61,62
 847 834 847 834 821.5 763 c 128,-1,63
 796 692 796 692 752 643 c 128,-1,64
 708 594 708 594 658.5 566 c 128,-1,65
 609 538 609 538 548 521 c 1,66,-1
 471 585 l 2,67,68
 414 635 414 635 377 680 c 0,69,70
 300 775 300 775 285 862 c 0,50,51
EndSplineSet
EndChar

StartChar: uni018E
Encoding: 398 398 334
Width: 1126
Flags: W
LayerCount: 2
Fore
SplineSet
197 1177 m 1,0,-1
 762 1177 l 1,1,-1
 762 747 l 1,2,-1
 219 747 l 1,3,-1
 219 627 l 1,4,-1
 762 627 l 1,5,-1
 762 152 l 1,6,-1
 197 152 l 1,7,-1
 197 30 l 1,8,-1
 910 30 l 1,9,-1
 910 1297 l 1,10,-1
 197 1297 l 1,11,-1
 197 1177 l 1,0,-1
EndSplineSet
EndChar

StartChar: uni018F
Encoding: 399 399 335
Width: 1126
Flags: W
LayerCount: 2
Fore
SplineSet
790 1064 m 128,-1,1
 898 953 898 953 898 740 c 2,2,-1
 898 725 l 1,3,-1
 77 725 l 1,4,5
 74 677 74 677 74 605 c 0,6,7
 74 471 74 471 103 358.5 c 128,-1,8
 132 246 132 246 191 164.5 c 128,-1,9
 250 83 250 83 340.5 37.5 c 128,-1,10
 431 -8 431 -8 555.5 -8 c 128,-1,11
 680 -8 680 -8 773 44 c 128,-1,12
 866 96 866 96 928 185 c 128,-1,13
 990 274 990 274 1022 393.5 c 128,-1,14
 1054 513 1054 513 1054 647 c 0,15,16
 1054 805 1054 805 1019 930 c 0,17,18
 951 1179 951 1179 741 1268 c 0,19,20
 635 1312 635 1312 490 1312 c 0,21,22
 384 1312 384 1312 292.5 1292 c 128,-1,23
 201 1272 201 1272 127 1245 c 1,24,-1
 127 1118 l 1,25,26
 193 1139 193 1139 281 1155 c 0,27,28
 390 1175 390 1175 483 1175 c 0,29,0
 682 1175 682 1175 790 1064 c 128,-1,1
246 386 m 0,30,31
 222 478 222 478 222 610 c 2,32,-1
 222 625 l 1,33,-1
 898 625 l 1,34,-1
 898 610 l 2,35,36
 898 477 898 477 872 384 c 128,-1,37
 846 291 846 291 800 232 c 128,-1,38
 754 173 754 173 693 146 c 128,-1,39
 632 119 632 119 565 119 c 0,40,41
 489 119 489 119 425 145 c 0,42,43
 296 200 296 200 246 386 c 0,30,31
EndSplineSet
EndChar

StartChar: uni0190
Encoding: 400 400 336
Width: 1126
Flags: W
LayerCount: 2
Fore
SplineSet
474.5 1177 m 128,-1,1
 528 1195 528 1195 609 1195 c 0,2,3
 774 1195 774 1195 936 1147 c 1,4,-1
 936 1269 l 1,5,6
 868 1289 868 1289 786.5 1301 c 128,-1,7
 705 1313 705 1313 597 1313 c 128,-1,8
 489 1313 489 1313 410 1289 c 128,-1,9
 331 1265 331 1265 278 1221.5 c 128,-1,10
 225 1178 225 1178 198 1116.5 c 128,-1,11
 171 1055 171 1055 171 979 c 0,12,13
 171 877 171 877 218.5 809 c 128,-1,14
 266 741 266 741 376 704 c 2,15,-1
 431 686 l 1,16,-1
 374 676 l 2,17,18
 323 666 323 666 277.5 640.5 c 128,-1,19
 232 615 232 615 198 576 c 128,-1,20
 164 537 164 537 144 486.5 c 128,-1,21
 124 436 124 436 124 376 c 0,22,23
 124 194 124 194 244 94 c 128,-1,24
 364 -6 364 -6 607 -6 c 0,25,26
 708 -6 708 -6 802 9 c 128,-1,27
 896 24 896 24 970 51 c 1,28,-1
 970 196 l 1,29,30
 902 169 902 169 816.5 151.5 c 128,-1,31
 731 134 731 134 605 134 c 0,32,33
 445 134 445 134 364.5 203 c 128,-1,34
 284 272 284 272 284 399 c 0,35,36
 284 452 284 452 307 494.5 c 128,-1,37
 330 537 330 537 373.5 566 c 128,-1,38
 417 595 417 595 477 610 c 128,-1,39
 537 625 537 625 611 625 c 2,40,-1
 870 625 l 1,41,-1
 870 742 l 1,42,-1
 615 742 l 2,43,44
 485 742 485 742 409 798 c 0,45,46
 370 827 370 827 348.5 871 c 128,-1,47
 327 915 327 915 327 973 c 0,48,49
 327 1016 327 1016 340.5 1056 c 128,-1,50
 354 1096 354 1096 387.5 1127.5 c 128,-1,0
 421 1159 421 1159 474.5 1177 c 128,-1,1
EndSplineSet
EndChar

StartChar: uni0191
Encoding: 401 401 337
Width: 1126
Flags: W
LayerCount: 2
Fore
SplineSet
137 -195 m 0,0,1
 109 -207 109 -207 72 -207 c 0,2,3
 18 -207 18 -207 -38 -191 c 1,4,-1
 -38 -326 l 1,5,6
 -9 -332 -9 -332 47 -337 c 0,7,8
 77 -338 77 -338 87 -338 c 0,9,10
 172 -338 172 -338 226 -312 c 0,11,12
 331 -261 331 -261 358 -131 c 0,13,14
 372 -66 372 -66 372 9 c 2,15,-1
 372 592 l 1,16,-1
 898 592 l 1,17,-1
 898 711 l 1,18,-1
 372 711 l 1,19,-1
 372 1165 l 1,20,-1
 927 1165 l 1,21,-1
 927 1287 l 1,22,-1
 220 1287 l 1,23,-1
 220 48 l 2,24,25
 220 -23 220 -23 212 -71 c 0,26,27
 194 -167 194 -167 137 -195 c 0,0,1
EndSplineSet
EndChar

StartChar: florin
Encoding: 402 402 338
Width: 1126
Flags: W
LayerCount: 2
Fore
SplineSet
154 766 m 1,0,-1
 154 652 l 1,1,-1
 447 652 l 1,2,-1
 375 114 l 2,3,4
 361 11 361 11 316 -46 c 256,5,6
 271 -103 271 -103 182 -103 c 0,7,8
 114 -103 114 -103 58 -96 c 1,9,-1
 58 -210 l 1,10,11
 120 -223 120 -223 180 -223 c 0,12,13
 279 -223 279 -223 341.5 -197.5 c 128,-1,14
 404 -172 404 -172 442 -123 c 0,15,16
 480 -73 480 -73 501 2 c 0,17,18
 521 76 521 76 534 174 c 2,19,-1
 599 652 l 1,20,-1
 946 652 l 1,21,-1
 946 766 l 1,22,-1
 614 766 l 1,23,-1
 655 1074 l 2,24,25
 670 1181 670 1181 720.5 1237 c 128,-1,26
 771 1293 771 1293 868 1293 c 0,27,28
 940 1293 940 1293 1011 1278 c 1,29,-1
 1011 1401 l 1,30,31
 921 1413 921 1413 864 1413 c 0,32,33
 700 1413 700 1413 612.5 1324.5 c 128,-1,34
 525 1236 525 1236 500 1054 c 2,35,-1
 462 766 l 1,36,-1
 154 766 l 1,0,-1
EndSplineSet
EndChar

StartChar: uni0193
Encoding: 403 403 339
Width: 1126
Flags: W
LayerCount: 2
Fore
SplineSet
991 1108 m 1,0,-1
 991 1296 l 2,1,2
 991 1438 991 1438 1062 1463 c 0,3,4
 1083 1470 1083 1470 1103 1470 c 128,-1,5
 1123 1470 1123 1470 1139 1468.5 c 128,-1,6
 1155 1467 1155 1467 1170 1463 c 1,7,-1
 1170 1569 l 1,8,9
 1130 1577 1130 1577 1081 1577 c 0,10,11
 975 1577 975 1577 922 1519 c 0,12,13
 866 1457 866 1457 858 1315 c 1,14,15
 858 1315 858 1315 856 1298 c 1,16,17
 803 1308 803 1308 765 1311.5 c 128,-1,18
 727 1315 727 1315 686 1315 c 0,19,20
 551 1315 551 1315 439.5 1269 c 128,-1,21
 328 1223 328 1223 248.5 1136.5 c 128,-1,22
 169 1050 169 1050 125 924 c 128,-1,23
 81 798 81 798 81 638 c 128,-1,24
 81 478 81 478 120.5 357 c 128,-1,25
 160 236 160 236 233.5 155.5 c 128,-1,26
 307 75 307 75 411.5 33.5 c 128,-1,27
 516 -8 516 -8 650 -8 c 128,-1,28
 784 -8 784 -8 920 37 c 0,29,30
 961 50 961 50 997 66 c 1,31,-1
 997 719 l 1,32,-1
 584 719 l 1,33,-1
 584 600 l 1,34,-1
 851 600 l 1,35,-1
 851 153 l 1,36,37
 791 130 791 130 714 123 c 0,38,39
 691 121 691 121 672 121 c 0,40,41
 558 121 558 121 475 157 c 0,42,43
 312 229 312 229 261 431 c 0,44,45
 237 528 237 528 237 648 c 128,-1,46
 237 768 237 768 267.5 865.5 c 128,-1,47
 298 963 298 963 355.5 1033.5 c 128,-1,48
 413 1104 413 1104 497 1142.5 c 128,-1,49
 581 1181 581 1181 688 1181 c 0,50,51
 781 1181 781 1181 854 1160.5 c 128,-1,52
 927 1140 927 1140 991 1108 c 1,0,-1
EndSplineSet
EndChar

StartChar: uni0194
Encoding: 404 404 340
Width: 1126
Flags: W
LayerCount: 2
Fore
SplineSet
29 1287 m 1,0,-1
 472 483 l 1,1,-1
 193 20 l 1,2,-1
 927 20 l 1,3,-1
 641 504 l 1,4,-1
 1096 1287 l 1,5,-1
 941 1287 l 1,6,-1
 561 590 l 1,7,-1
 196 1287 l 1,8,-1
 29 1287 l 1,0,-1
383 121 m 1,9,-1
 561 416 l 1,10,-1
 724 121 l 1,11,-1
 383 121 l 1,9,-1
EndSplineSet
EndChar

StartChar: uni0195
Encoding: 405 405 341
Width: 1126
Flags: W
LayerCount: 2
Fore
SplineSet
651 336 m 2,0,-1
 651 718 l 2,1,2
 651 1012 651 1012 445 1012 c 0,3,4
 392 1012 392 1012 348 987.5 c 128,-1,5
 304 963 304 963 263 902 c 2,6,-1
 233 854 l 1,7,-1
 242 1009 l 1,8,-1
 242 1403 l 1,9,-1
 105 1403 l 1,10,-1
 105 0 l 1,11,-1
 242 0 l 1,12,-1
 242 744 l 1,13,-1
 244 747 l 1,14,15
 314 885 314 885 399 885 c 0,16,17
 425 885 425 885 447 876 c 0,18,19
 493 857 493 857 509 785 c 0,20,21
 516 750 516 750 516 696 c 2,22,-1
 516 303 l 2,23,24
 516 251 516 251 525 196 c 128,-1,25
 534 141 534 141 561 95.5 c 128,-1,26
 588 50 588 50 639 21 c 128,-1,27
 690 -8 690 -8 776 -8 c 0,28,29
 907 -8 907 -8 966 79 c 0,30,31
 1021 161 1021 161 1021 327 c 2,32,-1
 1021 994 l 1,33,-1
 888 994 l 1,34,-1
 888 311 l 2,35,36
 888 205 888 205 860 156 c 0,37,38
 833 107 833 107 775 107 c 0,39,40
 752 107 752 107 730 115.5 c 128,-1,41
 708 124 708 124 689.5 150 c 128,-1,42
 671 176 671 176 661 220.5 c 128,-1,43
 651 265 651 265 651 336 c 2,0,-1
EndSplineSet
EndChar

StartChar: uni0196
Encoding: 406 406 342
Width: 1126
Flags: W
LayerCount: 2
Fore
SplineSet
908 14 m 1,0,-1
 908 136 l 1,1,2
 888 134 888 134 855 129.5 c 128,-1,3
 822 125 822 125 773.5 125 c 128,-1,4
 725 125 725 125 695 139 c 128,-1,5
 665 153 665 153 645 177 c 0,6,7
 619 210 619 210 613.5 255.5 c 128,-1,8
 608 301 608 301 608 350 c 2,9,-1
 608 1403 l 1,10,-1
 458 1403 l 1,11,-1
 458 294 l 2,12,13
 458 204 458 204 478 145 c 128,-1,14
 498 86 498 86 552 50 c 0,15,16
 584 28 584 28 631.5 13.5 c 128,-1,17
 679 -1 679 -1 739.5 -1 c 128,-1,18
 800 -1 800 -1 883 10 c 0,19,20
 897 12 897 12 908 14 c 1,0,-1
EndSplineSet
EndChar

StartChar: uni0198
Encoding: 408 408 344
Width: 1126
Flags: W
LayerCount: 2
Fore
SplineSet
883 1171.5 m 128,-1,1
 902 1179 902 1179 925 1179 c 0,2,3
 961 1179 961 1179 975 1176.5 c 128,-1,4
 989 1174 989 1174 996 1172 c 1,5,-1
 996 1285 l 1,6,7
 959 1293 959 1293 911.5 1293 c 128,-1,8
 864 1293 864 1293 830 1282 c 128,-1,9
 796 1271 796 1271 769 1249.5 c 128,-1,10
 742 1228 742 1228 717 1197 c 128,-1,11
 692 1166 692 1166 664 1127 c 2,12,-1
 331 665 l 1,13,-1
 830 10 l 1,14,-1
 1016 10 l 1,15,-1
 489 681 l 1,16,-1
 766 1051 l 2,17,18
 791 1084 791 1084 810 1108 c 128,-1,19
 829 1132 829 1132 846.5 1148 c 128,-1,0
 864 1164 864 1164 883 1171.5 c 128,-1,1
319 1292 m 1,20,-1
 171 1292 l 1,21,-1
 171 15 l 1,22,-1
 319 15 l 1,23,-1
 319 1292 l 1,20,-1
EndSplineSet
EndChar

StartChar: uni0199
Encoding: 409 409 345
Width: 1126
Flags: W
LayerCount: 2
Fore
SplineSet
197 1073 m 2,0,-1
 197 20 l 1,1,-1
 341 20 l 1,2,-1
 341 1074 l 2,3,4
 341 1123 341 1123 348 1164 c 0,5,6
 362 1248 362 1248 424 1280 c 0,7,8
 456 1297 456 1297 503 1297 c 0,9,10
 578 1297 578 1297 665 1276 c 1,11,-1
 665 1398 l 1,12,13
 634 1405 634 1405 593 1410 c 128,-1,14
 552 1415 552 1415 510 1415 c 0,15,16
 423 1415 423 1415 363.5 1394.5 c 128,-1,17
 304 1374 304 1374 267.5 1332.5 c 128,-1,18
 231 1291 231 1291 214 1226.5 c 128,-1,19
 197 1162 197 1162 197 1073 c 2,0,-1
831 10 m 1,20,-1
 1029 10 l 1,21,-1
 545 536 l 1,22,-1
 1001 984 l 1,23,-1
 813 984 l 1,24,-1
 373 536 l 1,25,-1
 831 10 l 1,20,-1
EndSplineSet
EndChar

StartChar: uni019B
Encoding: 411 411 347
Width: 1126
Flags: W
LayerCount: 2
Fore
SplineSet
178 1279 m 1,0,1
 238 1299 238 1299 287 1299 c 0,2,3
 326 1299 326 1299 355.5 1286.5 c 128,-1,4
 385 1274 385 1274 410 1237 c 2,5,-1
 419 1224 l 1,6,-1
 237 1107 l 1,7,-1
 290 1018 l 1,8,-1
 463 1128 l 1,9,-1
 505 1007 l 1,10,-1
 88 10 l 1,11,-1
 246 10 l 1,12,-1
 502 650 l 1,13,-1
 570 833 l 1,14,-1
 630 650 l 1,15,-1
 788 199 l 2,16,17
 808 144 808 144 828 104.5 c 128,-1,18
 848 65 848 65 871.5 42 c 128,-1,19
 895 19 895 19 924 8.5 c 128,-1,20
 953 -2 953 -2 990 -2 c 128,-1,21
 1027 -2 1027 -2 1072 7 c 1,22,-1
 1072 123 l 1,23,24
 1070 123 1070 123 1067 123 c 2,25,-1
 1049 123 l 2,26,27
 1025 123 1025 123 1006.5 130 c 128,-1,28
 988 137 988 137 974 152 c 128,-1,29
 960 167 960 167 948 190.5 c 128,-1,30
 936 214 936 214 924 249 c 2,31,-1
 588 1207 l 1,32,-1
 746 1308 l 1,33,-1
 693 1397 l 1,34,-1
 541 1300 l 1,35,-1
 534 1312 l 2,36,37
 512 1345 512 1345 488 1364 c 0,38,39
 441 1402 441 1402 378 1411 c 0,40,41
 347 1415 347 1415 314 1415 c 128,-1,42
 281 1415 281 1415 243.5 1409 c 128,-1,43
 206 1403 206 1403 178 1394 c 1,44,-1
 178 1279 l 1,0,1
EndSplineSet
EndChar

StartChar: uni019C
Encoding: 412 412 348
Width: 1126
Flags: W
LayerCount: 2
Fore
SplineSet
1021 1287 m 1,0,-1
 891 1287 l 1,1,-1
 891 321 l 1,2,3
 856 247 856 247 831 205 c 0,4,5
 785 127 785 127 745 113 c 0,6,7
 727 107 727 107 706 107 c 128,-1,8
 685 107 685 107 669 116.5 c 128,-1,9
 653 126 653 126 644 148.5 c 128,-1,10
 635 171 635 171 631.5 206 c 128,-1,11
 628 241 628 241 628 297 c 2,12,-1
 628 1287 l 1,13,-1
 499 1287 l 1,14,-1
 499 321 l 1,15,16
 465 252 465 252 441 211.5 c 128,-1,17
 417 171 417 171 396 147.5 c 128,-1,18
 375 124 375 124 354.5 115.5 c 128,-1,19
 334 107 334 107 312.5 107 c 128,-1,20
 291 107 291 107 275 117 c 0,21,22
 246 134 246 134 239 199 c 0,23,24
 235 230 235 230 235 278 c 2,25,-1
 235 1287 l 1,26,-1
 105 1287 l 1,27,-1
 105 268 l 2,28,29
 105 142 105 142 140 73 c 0,30,31
 183 -8 183 -8 279 -8 c 0,32,33
 318 -8 318 -8 348 6 c 0,34,35
 407 31 407 31 452 100 c 0,36,37
 474 133 474 133 495 171 c 2,38,-1
 519 215 l 1,39,-1
 523 165 l 2,40,41
 531 76 531 76 565 34 c 128,-1,42
 599 -8 599 -8 673 -8 c 0,43,44
 739 -8 739 -8 788 32.5 c 128,-1,45
 837 73 837 73 882 162 c 2,46,-1
 907 215 l 1,47,-1
 918 10 l 1,48,-1
 1021 10 l 1,49,-1
 1021 1287 l 1,0,-1
EndSplineSet
EndChar

StartChar: uni019D
Encoding: 413 413 349
Width: 1126
Flags: W
LayerCount: 2
Fore
SplineSet
339 1287 m 1,0,-1
 134 1287 l 1,1,-1
 134 -59 l 2,2,3
 134 -105 134 -105 130.5 -146 c 128,-1,4
 127 -187 127 -187 111.5 -219 c 128,-1,5
 96 -251 96 -251 62.5 -269 c 128,-1,6
 29 -287 29 -287 -27 -287 c 2,7,-1
 -41 -287 l 1,8,-1
 -41 -409 l 1,9,10
 -21 -411 -21 -411 -3 -411 c 0,11,12
 141 -411 141 -411 205.5 -329.5 c 128,-1,13
 270 -248 270 -248 270 -89 c 2,14,-1
 270 1147 l 1,15,-1
 409 816 l 1,16,-1
 785 10 l 1,17,-1
 993 10 l 1,18,-1
 993 1287 l 1,19,-1
 857 1287 l 1,20,-1
 857 159 l 1,21,-1
 697 524 l 1,22,-1
 339 1287 l 1,0,-1
EndSplineSet
EndChar

StartChar: Ohorn
Encoding: 416 416 352
Width: 1126
Flags: W
LayerCount: 2
Fore
SplineSet
1116 1194 m 0,0,1
 1172 1258 1172 1258 1172 1365 c 0,2,3
 1172 1413 1172 1413 1154.5 1436 c 128,-1,4
 1137 1459 1137 1459 1095 1459 c 128,-1,5
 1053 1459 1053 1459 1035 1436.5 c 128,-1,6
 1017 1414 1017 1414 1017 1384 c 0,7,8
 1017 1365 1017 1365 1021 1339.5 c 128,-1,9
 1025 1314 1025 1314 1025 1289 c 0,10,11
 1025 1232 1025 1232 996.5 1204.5 c 128,-1,12
 968 1177 968 1177 922 1172 c 1,13,-1
 914 1170 l 1,14,-1
 909 1177 l 1,15,16
 846 1247 846 1247 758.5 1281 c 128,-1,17
 671 1315 671 1315 571 1315 c 128,-1,18
 471 1315 471 1315 380 1275.5 c 128,-1,19
 289 1236 289 1236 220.5 1154 c 128,-1,20
 152 1072 152 1072 112 946 c 128,-1,21
 72 820 72 820 72 647 c 0,22,23
 72 493 72 493 102 370 c 0,24,25
 161 124 161 124 340 36 c 0,26,27
 430 -8 430 -8 553 -8 c 0,28,29
 655 -8 655 -8 746.5 31.5 c 128,-1,30
 838 71 838 71 906.5 152.5 c 128,-1,31
 975 234 975 234 1015.5 360.5 c 128,-1,32
 1056 487 1056 487 1056 662 c 0,33,34
 1056 817 1056 817 1025 937 c 0,35,36
 1004 1022 1004 1022 964 1090 c 2,37,-1
 953 1108 l 1,38,-1
 974 1113 l 2,39,40
 1065 1135 1065 1135 1116 1194 c 0,0,1
716.5 169.5 m 128,-1,42
 652 127 652 127 562.5 127 c 128,-1,43
 473 127 473 127 408 167 c 0,44,45
 283 244 283 244 245 444 c 0,46,47
 227 541 227 541 227 651.5 c 128,-1,48
 227 762 227 762 246.5 857 c 128,-1,49
 266 952 266 952 306 1023 c 128,-1,50
 346 1094 346 1094 410 1136.5 c 128,-1,51
 474 1179 474 1179 564 1179 c 128,-1,52
 654 1179 654 1179 719 1139 c 128,-1,53
 784 1099 784 1099 825 1028 c 128,-1,54
 866 957 866 957 883.5 860.5 c 128,-1,55
 901 764 901 764 901 653.5 c 128,-1,56
 901 543 901 543 881.5 448.5 c 128,-1,57
 862 354 862 354 821.5 283 c 128,-1,41
 781 212 781 212 716.5 169.5 c 128,-1,42
EndSplineSet
EndChar

StartChar: ohorn
Encoding: 417 417 353
Width: 1126
Flags: W
LayerCount: 2
Fore
SplineSet
1089 893 m 0,0,1
 1114 923 1114 923 1128 965 c 128,-1,2
 1142 1007 1142 1007 1142 1059 c 0,3,4
 1142 1110 1142 1110 1124.5 1133 c 128,-1,5
 1107 1156 1107 1156 1065 1156 c 128,-1,6
 1023 1156 1023 1156 1005 1133.5 c 128,-1,7
 987 1111 987 1111 987 1081 c 0,8,9
 987 1062 987 1062 991 1036.5 c 128,-1,10
 995 1011 995 1011 995 986 c 0,11,12
 995 930 995 930 971 903.5 c 128,-1,13
 947 877 947 877 903 870 c 2,14,-1
 894 869 l 1,15,-1
 888 875 l 1,16,17
 831 943 831 943 746.5 977.5 c 128,-1,18
 662 1012 662 1012 552.5 1012 c 128,-1,19
 443 1012 443 1012 357 974.5 c 128,-1,20
 271 937 271 937 211 869.5 c 128,-1,21
 151 802 151 802 119 706.5 c 128,-1,22
 87 611 87 611 87 491.5 c 128,-1,23
 87 372 87 372 118 278 c 0,24,25
 178 91 178 91 345 24 c 0,26,27
 428 -8 428 -8 535 -8 c 128,-1,28
 642 -8 642 -8 728.5 29.5 c 128,-1,29
 815 67 815 67 875 135 c 128,-1,30
 935 203 935 203 967 298.5 c 128,-1,31
 999 394 999 394 999 510 c 0,32,33
 999 673 999 673 941 790 c 1,34,-1
 934 807 l 1,35,-1
 951 811 l 2,36,37
 1042 836 1042 836 1089 893 c 0,0,1
830 666 m 0,38,39
 851 595 851 595 851 502 c 0,40,41
 851 426 851 426 834 357.5 c 128,-1,42
 817 289 817 289 779.5 235.5 c 128,-1,43
 742 182 742 182 683.5 150.5 c 128,-1,44
 625 119 625 119 543 119 c 0,45,46
 472 119 472 119 415 143.5 c 128,-1,47
 358 168 358 168 317.5 216.5 c 128,-1,48
 277 265 277 265 256 336.5 c 128,-1,49
 235 408 235 408 235 502 c 0,50,51
 235 577 235 577 252 645.5 c 128,-1,52
 269 714 269 714 306.5 767.5 c 128,-1,53
 344 821 344 821 402.5 852.5 c 128,-1,54
 461 884 461 884 543 884 c 0,55,56
 613 884 613 884 671 860 c 0,57,58
 787 810 787 810 830 666 c 0,38,39
EndSplineSet
EndChar

StartChar: uni01A2
Encoding: 418 418 354
Width: 1126
Flags: W
LayerCount: 2
Fore
SplineSet
492 1307 m 0,0,1
 464 1310 464 1310 429 1310 c 0,2,3
 339 1310 339 1310 280 1269 c 0,4,5
 163 1188 163 1188 132 936 c 0,6,7
 117 809 117 809 117 637.5 c 128,-1,8
 117 466 117 466 135 342.5 c 128,-1,9
 153 219 153 219 190.5 142 c 128,-1,10
 228 65 228 65 286.5 29.5 c 128,-1,11
 345 -6 345 -6 430 -6 c 0,12,13
 481 -6 481 -6 524 6 c 128,-1,14
 567 18 567 18 598.5 48 c 128,-1,15
 630 78 630 78 648.5 129.5 c 128,-1,16
 667 181 667 181 667 261 c 2,17,-1
 667 1122 l 1,18,-1
 879 1149 l 1,19,-1
 879 10 l 1,20,-1
 1009 10 l 1,21,-1
 1009 1295 l 1,22,-1
 632 1252 l 1,23,24
 606 1271 606 1271 586 1280 c 0,25,26
 542 1302 542 1302 492 1307 c 0,0,1
426 118 m 128,-1,28
 368 118 368 118 334.5 156 c 128,-1,29
 301 194 301 194 285 263 c 128,-1,30
 269 332 269 332 265 430.5 c 128,-1,31
 261 529 261 529 261 652.5 c 128,-1,32
 261 776 261 776 266.5 872 c 128,-1,33
 272 968 272 968 289 1035.5 c 128,-1,34
 306 1103 306 1103 339 1141 c 128,-1,35
 372 1179 372 1179 425 1179 c 128,-1,36
 478 1179 478 1179 507.5 1145 c 128,-1,37
 537 1111 537 1111 537 1032 c 2,38,-1
 537 284 l 2,39,40
 537 197 537 197 509 157 c 0,41,27
 484 118 484 118 426 118 c 128,-1,28
EndSplineSet
EndChar

StartChar: uni01A3
Encoding: 419 419 355
Width: 1126
Flags: W
LayerCount: 2
Fore
SplineSet
504.5 850 m 128,-1,1
 535 818 535 818 535 757 c 2,2,-1
 535 265 l 2,3,4
 535 189 535 189 509.5 153 c 128,-1,5
 484 117 484 117 421 117 c 0,6,7
 370 117 370 117 337 146 c 0,8,9
 272 199 272 199 257 346 c 0,10,11
 249 416 249 416 249 504 c 0,12,13
 249 775 249 775 341 854 c 0,14,15
 373 882 373 882 418 882 c 0,16,0
 474 882 474 882 504.5 850 c 128,-1,1
595 952 m 1,17,18
 518 1008 518 1008 417 1008 c 0,19,20
 334 1008 334 1008 278 973 c 0,21,22
 166 903 166 903 132 712 c 0,23,24
 115 616 115 616 115 497 c 0,25,26
 115 248 115 248 185 125 c 0,27,28
 221 62 221 62 277.5 29 c 128,-1,29
 334 -4 334 -4 416 -4 c 0,30,31
 531 -4 531 -4 594.5 55.5 c 128,-1,32
 658 115 658 115 658 225 c 2,33,-1
 658 830 l 1,34,-1
 877 860 l 1,35,-1
 877 10 l 1,36,-1
 1011 10 l 1,37,-1
 1011 992 l 1,38,-1
 600 949 l 1,39,-1
 595 952 l 1,17,18
EndSplineSet
EndChar

StartChar: uni01A4
Encoding: 420 420 356
Width: 1126
Flags: W
LayerCount: 2
Fore
SplineSet
786 1098.5 m 128,-1,1
 865 1028 865 1028 865 896 c 0,2,3
 865 735 865 735 762 663 c 0,4,5
 681 606 681 606 536 606 c 2,6,-1
 450 606 l 1,7,-1
 450 1169 l 1,8,-1
 552 1169 l 2,9,0
 707 1169 707 1169 786 1098.5 c 128,-1,1
69 1221 m 256,10,11
 -6 1155 -6 1155 -6 1028 c 0,12,13
 -6 983 -6 983 8 929 c 1,14,-1
 120 929 l 1,15,-1
 114 950 l 2,16,17
 106 983 106 983 106 1021 c 0,18,19
 106 1098 106 1098 158 1135 c 0,20,21
 202 1167 202 1167 287 1167 c 2,22,-1
 302 1167 l 1,23,-1
 302 15 l 1,24,-1
 450 15 l 1,25,-1
 450 484 l 1,26,-1
 532 484 l 2,27,28
 665 484 665 484 757.5 521 c 128,-1,29
 850 558 850 558 908.5 617 c 128,-1,30
 967 676 967 676 993.5 751.5 c 128,-1,31
 1020 827 1020 827 1020 904 c 0,32,33
 1020 1009 1020 1009 984 1081 c 128,-1,34
 948 1153 948 1153 886 1199 c 256,35,36
 824 1245 824 1245 739.5 1266 c 128,-1,37
 655 1287 655 1287 560 1287 c 2,38,-1
 310 1287 l 2,39,40
 144 1287 144 1287 69 1221 c 256,10,11
EndSplineSet
EndChar

StartChar: uni01A5
Encoding: 421 421 357
Width: 1126
Flags: W
LayerCount: 2
Fore
SplineSet
813.5 977.5 m 128,-1,1
 752 1012 752 1012 670 1012 c 0,2,3
 576 1012 576 1012 495 974 c 128,-1,4
 414 936 414 936 343 842 c 2,5,-1
 316 806 l 1,6,-1
 316 1074 l 2,7,8
 316 1123 316 1123 323 1164 c 0,9,10
 339 1249 339 1249 402 1280 c 0,11,12
 434 1297 434 1297 481 1297 c 0,13,14
 556 1297 556 1297 643 1276 c 1,15,-1
 643 1398 l 1,16,17
 612 1405 612 1405 571 1410 c 128,-1,18
 530 1415 530 1415 488 1415 c 0,19,20
 401 1415 401 1415 341.5 1394.5 c 128,-1,21
 282 1374 282 1374 245.5 1332.5 c 128,-1,22
 209 1291 209 1291 192 1226.5 c 128,-1,23
 175 1162 175 1162 175 1073 c 2,24,-1
 175 -400 l 1,25,-1
 319 -400 l 1,26,-1
 319 24 l 1,27,28
 386 8 386 8 432.5 3 c 128,-1,29
 479 -2 479 -2 526 -2 c 0,30,31
 628 -2 628 -2 715 30.5 c 128,-1,32
 802 63 802 63 866 127 c 128,-1,33
 930 191 930 191 966.5 289.5 c 128,-1,34
 1003 388 1003 388 1003 520 c 0,35,36
 1003 633 1003 633 981.5 724.5 c 128,-1,37
 960 816 960 816 917.5 879.5 c 128,-1,0
 875 943 875 943 813.5 977.5 c 128,-1,1
843 658 m 0,38,39
 855 591 855 591 855 512 c 0,40,41
 855 317 855 317 771 218 c 128,-1,42
 687 119 687 119 539 119 c 0,43,44
 433 119 433 119 319 166 c 1,45,-1
 319 662 l 1,46,47
 368 726 368 726 410 767 c 128,-1,48
 452 808 452 808 489 833 c 0,49,50
 560 880 560 880 635 880 c 0,51,52
 694 880 694 880 736 852 c 0,53,54
 819 796 819 796 843 658 c 0,38,39
EndSplineSet
EndChar

StartChar: uni01A6
Encoding: 422 422 358
Width: 1126
Flags: W
LayerCount: 2
Fore
SplineSet
920 678.5 m 128,-1,1
 937 731 937 731 937 789 c 0,2,3
 937 863 937 863 913 924 c 0,4,5
 866 1047 866 1047 712 1093 c 0,6,7
 632 1118 632 1118 520 1118 c 2,8,-1
 333 1118 l 1,9,-1
 333 1282 l 1,10,-1
 185 1282 l 1,11,-1
 185 9 l 1,12,-1
 333 9 l 1,13,-1
 333 423 l 1,14,-1
 432 423 l 2,15,16
 473 423 473 423 506 414 c 0,17,18
 575 397 575 397 622 333 c 0,19,20
 646 301 646 301 669 252 c 2,21,-1
 859 -154 l 1,22,-1
 1027 -154 l 1,23,-1
 830 251 l 2,24,25
 792 328 792 328 755 372.5 c 128,-1,26
 718 417 718 417 667 435 c 2,27,-1
 618 452 l 1,28,-1
 669 464 l 2,29,30
 734 479 734 479 784.5 510.5 c 128,-1,31
 835 542 835 542 869 584 c 128,-1,0
 903 626 903 626 920 678.5 c 128,-1,1
710.5 952 m 128,-1,33
 781 896 781 896 781 784 c 0,34,35
 781 727 781 727 760 682.5 c 128,-1,36
 739 638 739 638 701 607 c 0,37,38
 625 546 625 546 492 546 c 2,39,-1
 333 546 l 1,40,-1
 333 1008 l 1,41,-1
 516 1008 l 2,42,32
 640 1008 640 1008 710.5 952 c 128,-1,33
EndSplineSet
EndChar

StartChar: uni01A7
Encoding: 423 423 359
Width: 1126
Flags: W
LayerCount: 2
Fore
SplineSet
732 1290 m 0,0,1
 650 1315 650 1315 535 1315 c 0,2,3
 383 1315 383 1315 222 1273 c 1,4,-1
 222 1142 l 1,5,6
 303 1164 303 1164 365 1175 c 0,7,8
 450 1189 450 1189 535 1189 c 0,9,10
 673 1189 673 1189 740 1149 c 0,11,12
 810 1107 810 1107 810 1008 c 0,13,14
 810 952 810 952 779.5 910.5 c 128,-1,15
 749 869 749 869 701 836 c 128,-1,16
 653 803 653 803 592 774 c 128,-1,17
 531 745 531 745 469.5 715.5 c 128,-1,18
 408 686 408 686 348 652 c 0,19,20
 225 581 225 581 172 477 c 0,21,22
 146 423 146 423 146 351 c 0,23,24
 146 171 146 171 263 81.5 c 128,-1,25
 380 -8 380 -8 605 -8 c 0,26,27
 755 -8 755 -8 914 20 c 0,28,29
 952 26 952 26 982 34 c 1,30,-1
 982 176 l 1,31,32
 912 151 912 151 812.5 136 c 128,-1,33
 713 121 713 121 592 121 c 0,34,35
 511 121 511 121 456 135 c 0,36,37
 348 164 348 164 319 250 c 0,38,39
 306 291 306 291 306 344 c 128,-1,40
 306 397 306 397 336.5 440 c 128,-1,41
 367 483 367 483 415 517 c 128,-1,42
 463 551 463 551 524 581 c 2,43,-1
 645 640 l 2,44,45
 706 671 706 671 764 704.5 c 128,-1,46
 822 738 822 738 867 779.5 c 128,-1,47
 912 821 912 821 939 872.5 c 128,-1,48
 966 924 966 924 966 992 c 128,-1,49
 966 1060 966 1060 942 1120 c 0,50,51
 893 1241 893 1241 732 1290 c 0,0,1
EndSplineSet
EndChar

StartChar: uni01A8
Encoding: 424 424 360
Width: 1126
Flags: W
LayerCount: 2
Fore
SplineSet
239 368 m 0,0,1
 218 326 218 326 218 268 c 0,2,3
 218 195 218 195 244 143.5 c 128,-1,4
 270 92 270 92 317 58 c 0,5,6
 408 -8 408 -8 575 -8 c 0,7,8
 665 -8 665 -8 761 5 c 128,-1,9
 857 18 857 18 939 40 c 1,10,-1
 933 170 l 1,11,12
 849 145 849 145 762.5 128 c 128,-1,13
 676 111 676 111 583 111 c 0,14,15
 474 111 474 111 421.5 148 c 128,-1,16
 369 185 369 185 369 252 c 0,17,18
 369 294 369 294 395.5 323.5 c 128,-1,19
 422 353 422 353 461 377 c 128,-1,20
 500 401 500 401 549.5 422.5 c 128,-1,21
 599 444 599 444 649.5 467 c 128,-1,22
 700 490 700 490 748 517.5 c 128,-1,23
 796 545 796 545 832.5 579.5 c 128,-1,24
 869 614 869 614 891 658.5 c 128,-1,25
 913 703 913 703 913 763 c 0,26,27
 913 808 913 808 896.5 852.5 c 128,-1,28
 880 897 880 897 840.5 931.5 c 128,-1,29
 801 966 801 966 736 988 c 0,30,31
 670 1011 670 1011 573 1011 c 0,32,33
 438 1011 438 1011 321 990 c 0,34,35
 288 983 288 983 252 975 c 1,36,-1
 258 850 l 1,37,38
 337 871 337 871 410 882.5 c 128,-1,39
 483 894 483 894 563 894 c 0,40,41
 665 894 665 894 713 866 c 0,42,43
 764 835 764 835 764 775 c 0,44,45
 764 728 764 728 738 694 c 128,-1,46
 712 660 712 660 672 634.5 c 128,-1,47
 632 609 632 609 582 588 c 2,48,-1
 482 546 l 2,49,50
 431 525 431 525 383 500 c 0,51,52
 282 448 282 448 239 368 c 0,0,1
EndSplineSet
EndChar

StartChar: uni01AA
Encoding: 426 426 362
Width: 1126
Flags: W
LayerCount: 2
Fore
SplineSet
108 1350 m 128,-1,1
 88 1300 88 1300 88 1239 c 128,-1,2
 88 1178 88 1178 106.5 1128 c 128,-1,3
 125 1078 125 1078 159.5 1043.5 c 128,-1,4
 194 1009 194 1009 242.5 990 c 128,-1,5
 291 971 291 971 352 971 c 0,6,7
 390 971 390 971 416.5 981.5 c 128,-1,8
 443 992 443 992 466 1006 c 0,9,10
 477 1012 477 1012 488 1018 c 1,11,-1
 488 -113 l 2,12,13
 488 -202 488 -202 508 -261.5 c 128,-1,14
 528 -321 528 -321 582 -356 c 0,15,16
 614 -377 614 -377 661.5 -391.5 c 128,-1,17
 709 -406 709 -406 769.5 -406 c 128,-1,18
 830 -406 830 -406 913 -395 c 0,19,20
 927 -393 927 -393 938 -392 c 1,21,-1
 938 -270 l 1,22,23
 918 -273 918 -273 885 -277 c 128,-1,24
 852 -281 852 -281 803.5 -281 c 128,-1,25
 755 -281 755 -281 725 -267 c 128,-1,26
 695 -253 695 -253 675 -229 c 0,27,28
 649 -197 649 -197 643.5 -152 c 128,-1,29
 638 -107 638 -107 638 -58 c 2,30,-1
 638 1205 l 2,31,32
 638 1274 638 1274 621 1331 c 0,33,34
 588 1445 588 1445 485 1490 c 0,35,36
 432 1513 432 1513 360 1513 c 0,37,38
 299 1513 299 1513 249 1493 c 128,-1,39
 199 1473 199 1473 163.5 1436.5 c 128,-1,0
 128 1400 128 1400 108 1350 c 128,-1,1
238 1184 m 0,40,41
 229 1210 229 1210 229 1239 c 128,-1,42
 229 1268 229 1268 238.5 1293.5 c 128,-1,43
 248 1319 248 1319 265.5 1338.5 c 128,-1,44
 283 1358 283 1358 307.5 1369.5 c 128,-1,45
 332 1381 332 1381 361 1381 c 128,-1,46
 390 1381 390 1381 414.5 1369.5 c 128,-1,47
 439 1358 439 1358 456.5 1338.5 c 128,-1,48
 474 1319 474 1319 483.5 1293.5 c 128,-1,49
 493 1268 493 1268 493 1239 c 128,-1,50
 493 1210 493 1210 483.5 1184 c 128,-1,51
 474 1158 474 1158 456.5 1139 c 128,-1,52
 439 1120 439 1120 414.5 1108.5 c 128,-1,53
 390 1097 390 1097 361 1097 c 128,-1,54
 332 1097 332 1097 307 1108 c 0,55,56
 258 1131 258 1131 238 1184 c 0,40,41
EndSplineSet
EndChar

StartChar: uni01AB
Encoding: 427 427 363
Width: 1126
Flags: W
LayerCount: 2
Fore
SplineSet
583 -284 m 1,0,-1
 583 -389 l 1,1,2
 671 -404 671 -404 731 -404 c 128,-1,3
 791 -404 791 -404 834 -392 c 128,-1,4
 877 -380 877 -380 903.5 -353.5 c 128,-1,5
 930 -327 930 -327 942 -284.5 c 128,-1,6
 954 -242 954 -242 954 -178 c 2,7,-1
 954 145 l 1,8,9
 791 117 791 117 747 117 c 0,10,11
 746 117 746 117 745 117 c 0,12,13
 627 117 627 117 565 174.5 c 128,-1,14
 503 232 503 232 503 347 c 2,15,-1
 503 873 l 1,16,-1
 954 873 l 1,17,-1
 954 990 l 1,18,-1
 503 990 l 1,19,-1
 503 1311 l 1,20,-1
 359 1273 l 1,21,-1
 359 990 l 1,22,-1
 78 990 l 1,23,-1
 78 873 l 1,24,-1
 359 873 l 1,25,-1
 359 331 l 2,26,27
 359 159 359 159 447 77.5 c 128,-1,28
 535 -4 535 -4 719 -4 c 0,29,30
 767 -4 767 -4 830 1 c 1,31,-1
 830 -167 l 2,32,33
 830 -213 830 -213 819 -240 c 128,-1,34
 808 -267 808 -267 789.5 -282 c 128,-1,35
 771 -297 771 -297 748.5 -299.5 c 128,-1,36
 726 -302 726 -302 705 -302 c 0,37,38
 645 -302 645 -302 583 -284 c 1,0,-1
EndSplineSet
EndChar

StartChar: uni01AC
Encoding: 428 428 364
Width: 1126
Flags: W
LayerCount: 2
Fore
SplineSet
120 1231 m 0,0,1
 21 1168 21 1168 21 1025 c 0,2,3
 21 979 21 979 35 925 c 1,4,-1
 150 925 l 1,5,-1
 143 949 l 2,6,7
 136 979 136 979 136 1019 c 0,8,9
 136 1082 136 1082 179 1121 c 128,-1,10
 222 1160 222 1160 297 1160 c 2,11,-1
 488 1160 l 1,12,-1
 488 5 l 1,13,-1
 638 5 l 1,14,-1
 638 1160 l 1,15,-1
 1025 1160 l 1,16,-1
 1025 1282 l 1,17,-1
 348 1282 l 2,18,19
 200 1282 200 1282 120 1231 c 0,0,1
EndSplineSet
EndChar

StartChar: uni01AD
Encoding: 429 429 365
Width: 1126
Flags: W
LayerCount: 2
Fore
SplineSet
78 993 m 1,0,-1
 78 875 l 1,1,-1
 359 875 l 1,2,-1
 359 332 l 2,3,4
 359 159 359 159 447 77.5 c 128,-1,5
 535 -4 535 -4 719 -4 c 0,6,7
 849 -4 849 -4 954 21 c 1,8,-1
 954 143 l 1,9,10
 791 115 791 115 747 115 c 0,11,12
 746 115 746 115 745 115 c 0,13,14
 627 115 627 115 565 173 c 128,-1,15
 503 231 503 231 503 347 c 2,16,-1
 503 875 l 1,17,-1
 954 875 l 1,18,-1
 954 993 l 1,19,-1
 502 993 l 1,20,-1
 502 1074 l 2,21,22
 502 1123 502 1123 509 1164 c 0,23,24
 523 1248 523 1248 585 1280 c 0,25,26
 617 1297 617 1297 664 1297 c 0,27,28
 739 1297 739 1297 826 1276 c 1,29,-1
 826 1398 l 1,30,31
 795 1405 795 1405 754 1410 c 128,-1,32
 713 1415 713 1415 671 1415 c 0,33,34
 584 1415 584 1415 524.5 1394.5 c 128,-1,35
 465 1374 465 1374 428.5 1332.5 c 128,-1,36
 392 1291 392 1291 375.5 1226.5 c 128,-1,37
 359 1162 359 1162 359 1073 c 2,38,-1
 359 993 l 1,39,-1
 78 993 l 1,0,-1
EndSplineSet
EndChar

StartChar: uni01AE
Encoding: 430 430 366
Width: 1126
Flags: W
LayerCount: 2
Fore
SplineSet
503.5 -240.5 m 128,-1,1
 519 -297 519 -297 552 -335 c 128,-1,2
 585 -373 585 -373 638.5 -392.5 c 128,-1,3
 692 -412 692 -412 767 -412 c 128,-1,4
 842 -412 842 -412 916 -399 c 1,5,-1
 916 -277 l 1,6,-1
 875 -283 l 2,7,8
 847 -288 847 -288 799 -288 c 0,9,10
 703 -288 703 -288 667 -227 c 0,11,12
 649 -198 649 -198 643.5 -159.5 c 128,-1,13
 638 -121 638 -121 638 -75 c 2,14,-1
 638 1165 l 1,15,-1
 1025 1165 l 1,16,-1
 1025 1287 l 1,17,-1
 101 1287 l 1,18,-1
 101 1165 l 1,19,-1
 488 1165 l 1,20,-1
 488 -110 l 2,21,0
 488 -184 488 -184 503.5 -240.5 c 128,-1,1
EndSplineSet
EndChar

StartChar: Uhorn
Encoding: 431 431 367
Width: 1126
Flags: W
LayerCount: 2
Fore
SplineSet
864 260 m 0,0,1
 891 347 891 347 891 454 c 2,2,-1
 891 1100 l 1,3,-1
 905 1102 l 1,4,5
 963 1106 963 1106 1011.5 1124 c 128,-1,6
 1060 1142 1060 1142 1096 1174 c 128,-1,7
 1132 1206 1132 1206 1152 1253 c 128,-1,8
 1172 1300 1172 1300 1172 1365 c 0,9,10
 1172 1413 1172 1413 1154.5 1436 c 128,-1,11
 1137 1459 1137 1459 1095 1459 c 128,-1,12
 1053 1459 1053 1459 1035 1436.5 c 128,-1,13
 1017 1414 1017 1414 1017 1384 c 0,14,15
 1017 1365 1017 1365 1021 1339.5 c 128,-1,16
 1025 1314 1025 1314 1025 1289 c 0,17,18
 1025 1228 1025 1228 992.5 1200.5 c 128,-1,19
 960 1173 960 1173 906 1171 c 1,20,21
 899 1176 899 1176 891 1171 c 1,22,-1
 891 1297 l 1,23,-1
 743 1297 l 1,24,-1
 743 456 l 2,25,26
 743 304 743 304 685.5 217.5 c 128,-1,27
 628 131 628 131 507 131 c 0,28,29
 443 131 443 131 397 152 c 0,30,31
 308 195 308 195 283 317 c 0,32,33
 271 376 271 376 271 454 c 2,34,-1
 271 1297 l 1,35,-1
 123 1297 l 1,36,-1
 123 440 l 2,37,38
 123 232 123 232 210 124 c 1,39,-1
 210 124 l 1,40,41
 254 60 254 60 325.5 26 c 128,-1,42
 397 -8 397 -8 501 -8 c 0,43,44
 595 -8 595 -8 667 24 c 0,45,46
 812 89 812 89 864 260 c 0,0,1
EndSplineSet
EndChar

StartChar: uhorn
Encoding: 432 432 368
Width: 1126
Flags: W
LayerCount: 2
Fore
SplineSet
735 10 m 1,0,-1
 861 10 l 1,1,-1
 861 797 l 1,2,-1
 875 798 l 2,3,4
 933 802 933 802 981.5 820 c 128,-1,5
 1030 838 1030 838 1066 870 c 128,-1,6
 1102 902 1102 902 1122 950 c 128,-1,7
 1142 998 1142 998 1142 1062 c 0,8,9
 1142 1110 1142 1110 1124.5 1133 c 128,-1,10
 1107 1156 1107 1156 1065 1156 c 128,-1,11
 1023 1156 1023 1156 1005 1133.5 c 128,-1,12
 987 1111 987 1111 987 1081 c 0,13,14
 987 1062 987 1062 991 1036 c 128,-1,15
 995 1010 995 1010 995 985 c 0,16,17
 995 923 995 923 962.5 895 c 128,-1,18
 930 867 930 867 876 865 c 1,19,-1
 861 863 l 1,20,-1
 861 993 l 1,21,-1
 717 993 l 1,22,-1
 717 333 l 1,23,24
 676 267 676 267 642.5 226 c 128,-1,25
 609 185 609 185 577 159.5 c 128,-1,26
 545 134 545 134 514 123.5 c 128,-1,27
 483 113 483 113 449 113 c 0,28,29
 348 113 348 113 303 193 c 0,30,31
 268 254 268 254 268 361 c 2,32,-1
 268 993 l 1,33,-1
 124 993 l 1,34,-1
 124 346 l 2,35,36
 124 165 124 165 196 78.5 c 128,-1,37
 268 -8 268 -8 412 -8 c 0,38,39
 454 -8 454 -8 492 0 c 0,40,41
 566 16 566 16 632 82 c 0,42,43
 666 116 666 116 702 167 c 2,44,-1
 727 204 l 1,45,-1
 735 10 l 1,0,-1
EndSplineSet
EndChar

StartChar: uni01B1
Encoding: 433 433 369
Width: 1126
Flags: W
LayerCount: 2
Fore
SplineSet
887 798 m 0,0,1
 899 715 899 715 899 615.5 c 128,-1,2
 899 516 899 516 879.5 425 c 128,-1,3
 860 334 860 334 819.5 265.5 c 128,-1,4
 779 197 779 197 715 157 c 128,-1,5
 651 117 651 117 561 117 c 128,-1,6
 471 117 471 117 406 156 c 0,7,8
 281 231 281 231 244 421 c 0,9,10
 226 512 226 512 226 615.5 c 128,-1,11
 226 719 226 719 238 804 c 0,12,13
 263 977 263 977 352 1084 c 0,14,15
 397 1139 397 1139 460 1180 c 1,16,-1
 460 1288 l 1,17,-1
 58 1288 l 1,18,-1
 58 1174 l 1,19,-1
 347 1174 l 1,20,-1
 306 1147 l 2,21,22
 180 1062 180 1062 126 928 c 128,-1,23
 72 794 72 794 72 611 c 0,24,25
 72 470 72 470 101 355 c 0,26,27
 158 123 158 123 338 38 c 0,28,29
 429 -7 429 -7 557 -7 c 0,30,31
 659 -7 659 -7 749 30 c 128,-1,32
 839 67 839 67 907 144.5 c 128,-1,33
 975 222 975 222 1014.5 341 c 128,-1,34
 1054 460 1054 460 1054 623 c 0,35,36
 1054 807 1054 807 998 937.5 c 128,-1,37
 942 1068 942 1068 823 1147 c 2,38,-1
 781 1174 l 1,39,-1
 1068 1174 l 1,40,-1
 1068 1288 l 1,41,-1
 666 1288 l 1,42,-1
 666 1176 l 1,43,44
 728 1133 728 1133 773 1077 c 0,45,46
 863 963 863 963 887 798 c 0,0,1
EndSplineSet
EndChar

StartChar: uni01B2
Encoding: 434 434 370
Width: 1126
Flags: W
LayerCount: 2
Fore
SplineSet
855 1290 m 128,-1,1
 802 1311 802 1311 725 1311 c 0,2,3
 672 1311 672 1311 600 1296 c 1,4,-1
 600 1156 l 1,5,6
 616 1159 616 1159 638.5 1163 c 128,-1,7
 661 1167 661 1167 694 1167 c 0,8,9
 744 1167 744 1167 776 1151 c 0,10,11
 839 1121 839 1121 850 1029 c 0,12,13
 855 986 855 986 855 931 c 2,14,-1
 855 450 l 2,15,16
 855 301 855 301 783.5 216 c 128,-1,17
 712 131 712 131 563 131 c 0,18,19
 333 131 333 131 287 317 c 0,20,21
 272 376 272 376 272 454 c 2,22,-1
 272 1297 l 1,23,-1
 124 1297 l 1,24,-1
 124 440 l 2,25,26
 124 233 124 233 223 124 c 1,27,-1
 223 124 l 1,28,29
 274 62 274 62 356 27 c 128,-1,30
 438 -8 438 -8 557 -8 c 0,31,32
 665 -8 665 -8 748 25 c 0,33,34
 914 91 914 91 973 262 c 0,35,36
 1003 347 1003 347 1003 454 c 2,37,-1
 1003 977 l 2,38,39
 1003 1061 1003 1061 988 1124.5 c 128,-1,40
 973 1188 973 1188 940.5 1228.5 c 128,-1,0
 908 1269 908 1269 855 1290 c 128,-1,1
EndSplineSet
EndChar

StartChar: uni01B3
Encoding: 435 435 371
Width: 1126
Flags: W
LayerCount: 2
Fore
SplineSet
488 10 m 1,0,-1
 638 10 l 1,1,-1
 638 465 l 1,2,-1
 955 1101 l 2,3,4
 973 1139 973 1139 998.5 1155.5 c 128,-1,5
 1024 1172 1024 1172 1060 1172 c 0,6,7
 1082 1172 1082 1172 1111 1168 c 1,8,-1
 1111 1289 l 1,9,10
 1062 1295 1062 1295 1021 1295 c 0,11,12
 954 1295 954 1295 907 1259 c 128,-1,13
 860 1223 860 1223 821 1138 c 2,14,-1
 571 597 l 1,15,-1
 226 1287 l 1,16,-1
 45 1287 l 1,17,-1
 488 470 l 1,18,-1
 488 10 l 1,0,-1
EndSplineSet
EndChar

StartChar: uni01B4
Encoding: 436 436 372
Width: 1126
Flags: W
LayerCount: 2
Fore
SplineSet
992.5 841.5 m 128,-1,1
 1015 857 1015 857 1052 857 c 0,2,3
 1074 857 1074 857 1103 853 c 1,4,-1
 1103 976 l 1,5,6
 1053 982 1053 982 1006 982 c 0,7,8
 939 982 939 982 895 948 c 128,-1,9
 851 914 851 914 821 828 c 2,10,-1
 569 131 l 1,11,-1
 504 327 l 1,12,-1
 254 974 l 1,13,-1
 88 974 l 1,14,-1
 483 -5 l 1,15,16
 448 -83 448 -83 413 -135 c 0,17,18
 343 -238 343 -238 257 -267 c 0,19,20
 213 -282 213 -282 168.5 -282 c 128,-1,21
 124 -282 124 -282 74 -276 c 1,22,-1
 74 -403 l 1,23,24
 115 -406 115 -406 152 -406 c 0,25,26
 248 -406 248 -406 325.5 -377 c 128,-1,27
 403 -348 403 -348 468 -286.5 c 128,-1,28
 533 -225 533 -225 589 -127 c 0,29,30
 644 -31 644 -31 697 104 c 2,31,-1
 955 786 l 2,32,0
 970 826 970 826 992.5 841.5 c 128,-1,1
EndSplineSet
EndChar

StartChar: uni01B5
Encoding: 437 437 373
Width: 1126
Flags: W
LayerCount: 2
Fore
SplineSet
986 1287 m 1,0,-1
 144 1287 l 1,1,-1
 144 1155 l 1,2,-1
 810 1155 l 1,3,-1
 539 752 l 1,4,-1
 178 752 l 1,5,-1
 178 632 l 1,6,-1
 460 632 l 1,7,-1
 126 131 l 1,8,-1
 126 20 l 1,9,-1
 999 20 l 1,10,-1
 999 156 l 1,11,-1
 306 156 l 1,12,-1
 626 632 l 1,13,-1
 979 632 l 1,14,-1
 979 752 l 1,15,-1
 706 752 l 1,16,-1
 986 1169 l 1,17,-1
 986 1287 l 1,0,-1
EndSplineSet
EndChar

StartChar: uni01B6
Encoding: 438 438 374
Width: 1126
Flags: W
LayerCount: 2
Fore
SplineSet
925 984 m 1,0,-1
 193 984 l 1,1,-1
 193 868 l 1,2,-1
 761 868 l 1,3,-1
 526 570 l 1,4,-1
 227 570 l 1,5,-1
 227 455 l 1,6,-1
 437 455 l 1,7,-1
 179 123 l 1,8,-1
 179 20 l 1,9,-1
 958 20 l 1,10,-1
 958 137 l 1,11,-1
 353 137 l 1,12,-1
 602 455 l 1,13,-1
 926 455 l 1,14,-1
 926 570 l 1,15,-1
 691 570 l 1,16,-1
 925 870 l 1,17,-1
 925 984 l 1,0,-1
EndSplineSet
EndChar

StartChar: uni01B8
Encoding: 440 440 376
Width: 1126
Flags: W
LayerCount: 2
Fore
SplineSet
215 554 m 128,-1,1
 179 488 179 488 179 392 c 0,2,3
 179 309 179 309 206 236.5 c 128,-1,4
 233 164 233 164 294.5 109.5 c 128,-1,5
 356 55 356 55 457.5 23.5 c 128,-1,6
 559 -8 559 -8 707 -8 c 0,7,8
 785 -8 785 -8 840.5 -3 c 128,-1,9
 896 2 896 2 944 8 c 1,10,-1
 944 133 l 1,11,12
 819 113 819 113 691 113 c 0,13,14
 497 113 497 113 411 184 c 0,15,16
 368 220 368 220 349.5 270 c 128,-1,17
 331 320 331 320 331 383 c 128,-1,18
 331 446 331 446 351 498 c 0,19,20
 392 605 392 605 533 642 c 0,21,22
 603 660 603 660 704 660 c 2,23,-1
 758 660 l 1,24,-1
 758 758 l 1,25,-1
 392 1167 l 1,26,-1
 920 1167 l 1,27,-1
 920 1287 l 1,28,-1
 232 1287 l 1,29,-1
 232 1163 l 1,30,-1
 602 763 l 1,31,-1
 573 760 l 2,32,33
 505 752 505 752 435 729.5 c 128,-1,34
 365 707 365 707 308 663.5 c 128,-1,0
 251 620 251 620 215 554 c 128,-1,1
EndSplineSet
EndChar

StartChar: uni01B9
Encoding: 441 441 377
Width: 1126
Flags: W
LayerCount: 2
Fore
SplineSet
457.5 -281.5 m 128,-1,1
 559 -313 559 -313 707 -313 c 0,2,3
 832 -313 832 -313 924 -297 c 1,4,-1
 924 -175 l 1,5,6
 871 -183 871 -183 817.5 -189 c 128,-1,7
 764 -195 764 -195 691 -195 c 0,8,9
 497 -195 497 -195 411 -122 c 0,10,11
 367 -86 367 -86 349 -35.5 c 128,-1,12
 331 15 331 15 331 78 c 128,-1,13
 331 141 331 141 351 193 c 0,14,15
 392 300 392 300 533 337 c 0,16,17
 603 355 603 355 704 355 c 2,18,-1
 745 355 l 1,19,-1
 745 453 l 1,20,-1
 392 866 l 1,21,-1
 907 866 l 1,22,-1
 907 982 l 1,23,-1
 238 982 l 1,24,-1
 238 858 l 1,25,-1
 602 458 l 1,26,-1
 573 455 l 2,27,28
 505 447 505 447 435 424.5 c 128,-1,29
 365 402 365 402 308 358.5 c 128,-1,30
 251 315 251 315 215 249 c 128,-1,31
 179 183 179 183 179 87 c 0,32,33
 179 4 179 4 206 -68.5 c 128,-1,34
 233 -141 233 -141 294.5 -195.5 c 128,-1,0
 356 -250 356 -250 457.5 -281.5 c 128,-1,1
EndSplineSet
EndChar

